<svg xmlns="http://www.w3.org/2000/svg" width="41" height="36" viewBox="0 0 41 36">
  <g id="apple" transform="translate(-12282 -3935)">
    <rect id="Rectangle_279" data-name="Rectangle 279" width="41" height="36" transform="translate(12282 3935)" fill="none"/>
    <g id="XMLID_228_" transform="translate(12264.476 3940.581)">
      <path id="XMLID_229_" d="M28.923,75.561c-2.1,3.644-.765,9.174,1.557,12.527,1.159,1.676,2.333,3.181,3.94,3.181l.092,0a4.865,4.865,0,0,0,1.829-.487,5.007,5.007,0,0,1,2.166-.513,4.709,4.709,0,0,1,2.062.5,4.368,4.368,0,0,0,1.975.474c1.811-.034,2.922-1.657,3.9-3.09a13.7,13.7,0,0,0,1.71-3.5l.007-.022a.2.2,0,0,0-.108-.25l-.015-.006A5.19,5.19,0,0,1,44.9,79.613a5.342,5.342,0,0,1,2.524-4.466l.02-.012a.2.2,0,0,0,.058-.286,5.875,5.875,0,0,0-4.621-2.509c-.131-.013-.267-.02-.4-.02a8.055,8.055,0,0,0-2.9.724,4.662,4.662,0,0,1-1.389.415,4.545,4.545,0,0,1-1.437-.42,6.963,6.963,0,0,0-2.533-.643H34.15A6.211,6.211,0,0,0,28.923,75.561Z" transform="translate(0 -66.43)"/>
      <path id="XMLID_230_" d="M154.332,0a5.671,5.671,0,0,0-3.744,1.921,5.314,5.314,0,0,0-1.345,3.94.2.2,0,0,0,.186.176c.087.007.175.01.263.01a4.8,4.8,0,0,0,3.534-1.813A5.6,5.6,0,0,0,154.543.181.2.2,0,0,0,154.332,0Z" transform="translate(-111.454 0)"/>
    </g>
  </g>
</svg>
