<svg width="59" height="121" viewBox="0 0 59 121" fill="none" xmlns="http://www.w3.org/2000/svg">
<path d="M16.9382 40.2365C15.3611 42.0315 13.7628 43.5498 12.5127 45.3261C6.18417 54.2881 4.46055 63.568 7.27314 73.0747C10.0493 82.486 15.867 89.1434 23.4052 94.1861C30.0915 98.659 37.6268 101.441 45.4242 103.679C45.674 103.748 45.9408 103.764 46.518 103.855C46.1259 103.194 45.8652 102.757 45.6106 102.318C43.7801 99.1906 41.9607 96.052 40.1178 92.9287C39.2272 91.4134 40.1031 89.6115 41.2995 88.8195C42.4894 88.0295 43.9257 88.3903 44.6986 89.7233C46.4669 92.758 48.0335 95.9634 50.0426 98.7865C52.2784 101.929 54.8812 104.75 57.3907 107.642C58.176 108.552 58.6536 109.515 58.1388 110.848C57.624 112.18 56.5937 112.598 55.3292 112.961C53.5365 113.473 51.7924 114.42 50.0386 115.196C48.6593 115.808 47.3014 116.508 45.9097 117.05C42.8422 118.246 39.7596 119.394 36.6788 120.513C35.045 121.106 33.6747 120.364 33.4534 118.861C33.2431 117.421 34.2247 116.001 35.8083 115.385C39.4954 113.955 43.1782 112.498 46.8683 111.046C47.1525 110.934 47.4205 110.727 48.0254 110.369C47.283 110.126 46.8462 109.967 46.3946 109.839C39.446 107.888 32.6156 105.666 26.2353 102.424C17.4446 97.9634 10.0713 91.8169 5.29766 82.6915C0.772673 74.0473 -0.691756 64.5469 2.73896 53.8796C4.87861 47.2243 8.54059 41.4267 13.7805 36.7307C14.8606 35.7627 15.3316 35.053 15.2195 33.5318C14.7733 27.5011 17.0064 21.9546 20.7251 16.826C24.4389 11.7057 29.2223 8.14693 34.5681 5.46693C38.5589 3.46506 42.6491 2.03671 46.8246 0.983883C48.3812 0.593921 49.74 1.34602 49.9448 2.75394C50.1476 4.1489 49.1094 5.66281 47.5467 6.16963C45.1906 6.93736 42.8067 7.54606 40.479 8.43897C34.9693 10.5545 29.7986 13.444 25.7018 18.3724C22.6806 22.0038 20.5906 26.0151 20.3403 30.6596C20.3183 31.0657 20.3495 31.4735 20.3541 32.0324C21.0082 31.806 21.5515 31.6654 22.0723 31.4312C25.4044 29.9343 28.7406 29.3336 32.0486 29.9045C35.9153 30.5722 38.5779 33.5472 38.8265 37.3371C39.0652 40.9955 36.5997 44.8598 33.1937 46.3893C26.9338 49.203 20.89 46.3781 17.7937 41.5141C17.5757 41.1708 17.3504 40.8231 16.9545 40.2176L16.9382 40.2365ZM21.7526 37.1598C22.7233 39.2145 24.0826 40.5404 25.8496 41.3604C27.5662 42.1576 29.4168 42.3951 31.4377 41.5611C33.5624 40.6775 34.3698 38.7101 33.1205 37.0288C32.5439 36.2559 31.5979 35.6379 30.6653 35.4C27.7478 34.6471 24.8347 35.8573 21.7587 37.1579L21.7526 37.1598Z" fill="#101010"/>
</svg>
