<svg width="1427" height="852" viewBox="0 0 1427 852" fill="none" xmlns="http://www.w3.org/2000/svg">
<path d="M0 0H1427V852H0V0Z" fill="#FBFBFB"/>
<rect width="1427" height="852" fill="#FB2119"/>
<g opacity="0.427575">
<path d="M1299.4 720.139C1298.29 720.507 1297.29 721.623 1297.06 722.75C1296.61 724.919 1298.78 727.088 1300.95 726.636C1302.58 726.299 1303.84 724.635 1303.68 723.066C1303.57 721.96 1302.74 720.823 1301.68 720.307C1301.04 720.002 1300.05 719.928 1299.4 720.139Z" fill="white"/>
<path d="M1312.88 720.139C1311.29 720.665 1310.21 722.413 1310.54 723.951C1310.8 725.204 1311.97 726.372 1313.21 726.636C1315.26 727.067 1317.37 725.14 1317.16 723.066C1317.05 721.96 1316.21 720.823 1315.16 720.307C1314.52 720.002 1313.53 719.928 1312.88 720.139Z" fill="white"/>
<path d="M1326.35 720.139C1325.25 720.507 1324.25 721.623 1324.02 722.75C1323.56 724.919 1325.73 727.088 1327.9 726.636C1329.53 726.299 1330.8 724.635 1330.64 723.066C1330.52 721.96 1329.69 720.823 1328.64 720.307C1328 720.002 1327.01 719.928 1326.35 720.139Z" fill="white"/>
<path d="M1339.83 720.139C1338.73 720.507 1337.73 721.623 1337.49 722.75C1337.04 724.919 1339.21 727.088 1341.38 726.636C1343.01 726.299 1344.28 724.635 1344.12 723.066C1344 721.96 1343.17 720.823 1342.12 720.307C1341.48 720.002 1340.49 719.928 1339.83 720.139Z" fill="white"/>
<path d="M1353.31 720.139C1352.2 720.507 1351.2 721.623 1350.97 722.75C1350.52 724.919 1352.69 727.088 1354.86 726.636C1356.49 726.299 1357.75 724.635 1357.6 723.066C1357.48 721.96 1356.65 720.823 1355.6 720.307C1354.95 720.002 1353.96 719.928 1353.31 720.139Z" fill="white"/>
<path d="M1366.79 720.139C1365.68 720.507 1364.68 721.623 1364.45 722.75C1364 724.919 1366.17 727.088 1368.34 726.636C1369.97 726.299 1371.23 724.635 1371.07 723.066C1370.96 721.96 1370.13 720.823 1369.07 720.307C1368.43 720.002 1367.44 719.928 1366.79 720.139Z" fill="white"/>
<path d="M1380.27 720.139C1379.16 720.507 1378.16 721.623 1377.93 722.75C1377.48 724.919 1379.65 727.088 1381.81 726.636C1383.45 726.299 1384.71 724.635 1384.55 723.066C1384.44 721.96 1383.6 720.823 1382.55 720.307C1381.91 720.002 1380.92 719.928 1380.27 720.139Z" fill="white"/>
<path d="M1393.74 720.139C1392.64 720.507 1391.64 721.623 1391.41 722.75C1390.95 724.919 1393.12 727.088 1395.29 726.636C1396.92 726.299 1398.19 724.635 1398.03 723.066C1397.91 721.96 1397.08 720.823 1396.03 720.307C1395.39 720.002 1394.4 719.928 1393.74 720.139Z" fill="white"/>
<path d="M1407.22 720.139C1406.12 720.507 1405.12 721.624 1404.89 722.75C1404.62 723.982 1405.22 725.32 1406.38 726.109C1407.51 726.888 1408.79 726.899 1409.93 726.141C1411.79 724.898 1412.05 722.582 1410.49 721.034C1409.59 720.128 1408.31 719.781 1407.22 720.139Z" fill="white"/>
<path d="M1420.7 720.139C1419.6 720.507 1418.6 721.624 1418.36 722.75C1418.1 723.982 1418.7 725.32 1419.86 726.109C1420.99 726.888 1422.27 726.899 1423.41 726.141C1425.27 724.898 1425.52 722.582 1423.97 721.034C1423.07 720.128 1421.79 719.781 1420.7 720.139Z" fill="white"/>
<path d="M1299.4 733.617C1298.29 733.985 1297.29 735.102 1297.06 736.228C1296.61 738.398 1298.78 740.567 1300.95 740.114C1302.58 739.777 1303.84 738.113 1303.68 736.544C1303.57 735.439 1302.74 734.301 1301.68 733.785C1301.04 733.48 1300.05 733.406 1299.4 733.617Z" fill="white"/>
<path d="M1312.88 733.617C1311.29 734.144 1310.21 735.891 1310.54 737.429C1310.8 738.682 1311.97 739.851 1313.21 740.114C1315.26 740.546 1317.37 738.619 1317.16 736.544C1317.05 735.439 1316.21 734.301 1315.16 733.786C1314.52 733.48 1313.53 733.406 1312.88 733.617Z" fill="white"/>
<path d="M1326.35 733.617C1325.25 733.985 1324.25 735.102 1324.02 736.228C1323.56 738.398 1325.73 740.567 1327.9 740.114C1329.53 739.777 1330.8 738.113 1330.64 736.544C1330.52 735.439 1329.69 734.301 1328.64 733.785C1328 733.48 1327.01 733.406 1326.35 733.617Z" fill="white"/>
<path d="M1339.83 733.617C1338.73 733.985 1337.73 735.102 1337.49 736.228C1337.04 738.398 1339.21 740.567 1341.38 740.114C1343.01 739.777 1344.28 738.113 1344.12 736.544C1344 735.439 1343.17 734.301 1342.12 733.785C1341.48 733.48 1340.49 733.406 1339.83 733.617Z" fill="white"/>
<path d="M1353.31 733.617C1352.2 733.985 1351.2 735.102 1350.97 736.228C1350.52 738.398 1352.69 740.567 1354.86 740.114C1356.49 739.777 1357.75 738.113 1357.6 736.544C1357.48 735.439 1356.65 734.301 1355.6 733.785C1354.95 733.48 1353.96 733.406 1353.31 733.617Z" fill="white"/>
<path d="M1366.79 733.617C1365.68 733.985 1364.68 735.102 1364.45 736.228C1364 738.398 1366.17 740.567 1368.34 740.114C1369.97 739.777 1371.23 738.113 1371.07 736.544C1370.96 735.439 1370.13 734.301 1369.07 733.785C1368.43 733.48 1367.44 733.406 1366.79 733.617Z" fill="white"/>
<path d="M1380.27 733.617C1379.16 733.985 1378.16 735.102 1377.93 736.228C1377.48 738.398 1379.65 740.567 1381.81 740.114C1383.45 739.777 1384.71 738.113 1384.55 736.544C1384.44 735.439 1383.6 734.301 1382.55 733.785C1381.91 733.48 1380.92 733.406 1380.27 733.617Z" fill="white"/>
<path d="M1393.74 733.617C1392.64 733.985 1391.64 735.102 1391.41 736.228C1390.95 738.398 1393.12 740.567 1395.29 740.114C1396.92 739.777 1398.19 738.113 1398.03 736.544C1397.91 735.439 1397.08 734.301 1396.03 733.785C1395.39 733.48 1394.4 733.406 1393.74 733.617Z" fill="white"/>
<path d="M1407.22 733.617C1406.12 733.985 1405.12 735.102 1404.89 736.228C1404.62 737.46 1405.22 738.798 1406.38 739.587C1407.51 740.366 1408.79 740.377 1409.93 739.619C1411.79 738.376 1412.05 736.06 1410.49 734.512C1409.59 733.606 1408.31 733.259 1407.22 733.617Z" fill="white"/>
<path d="M1420.7 733.617C1419.6 733.985 1418.6 735.102 1418.36 736.228C1418.1 737.46 1418.7 738.798 1419.86 739.587C1420.99 740.366 1422.27 740.377 1423.41 739.619C1425.27 738.376 1425.52 736.06 1423.97 734.512C1423.07 733.606 1421.79 733.259 1420.7 733.617Z" fill="white"/>
<path d="M1299.4 747.095C1298.29 747.464 1297.29 748.58 1297.06 749.707C1296.61 751.876 1298.78 754.045 1300.95 753.592C1302.58 753.255 1303.84 751.591 1303.68 750.023C1303.57 748.917 1302.74 747.78 1301.68 747.264C1301.04 746.958 1300.05 746.885 1299.4 747.095Z" fill="white"/>
<path d="M1312.88 747.095C1311.77 747.464 1310.77 748.58 1310.54 749.707C1310.09 751.876 1312.25 754.045 1314.42 753.592C1316.06 753.255 1317.32 751.591 1317.16 750.023C1317.05 748.917 1316.21 747.78 1315.16 747.264C1314.52 746.958 1313.53 746.885 1312.88 747.095Z" fill="white"/>
<path d="M1326.35 747.095C1325.25 747.464 1324.25 748.58 1324.02 749.707C1323.56 751.876 1325.73 754.045 1327.9 753.592C1329.53 753.255 1330.8 751.591 1330.64 750.023C1330.52 748.917 1329.69 747.78 1328.64 747.264C1328 746.958 1327.01 746.885 1326.35 747.095Z" fill="white"/>
<path d="M1339.83 747.095C1338.73 747.464 1337.73 748.58 1337.49 749.707C1337.04 751.876 1339.21 754.045 1341.38 753.592C1343.01 753.255 1344.28 751.591 1344.12 750.023C1344 748.917 1343.17 747.78 1342.12 747.264C1341.48 746.958 1340.49 746.885 1339.83 747.095Z" fill="white"/>
<path d="M1353.31 747.095C1352.2 747.464 1351.2 748.58 1350.97 749.707C1350.52 751.876 1352.69 754.045 1354.86 753.592C1356.49 753.255 1357.75 751.591 1357.6 750.023C1357.48 748.917 1356.65 747.78 1355.6 747.264C1354.95 746.958 1353.96 746.885 1353.31 747.095Z" fill="white"/>
<path d="M1366.79 747.095C1365.68 747.464 1364.68 748.58 1364.45 749.707C1364 751.876 1366.17 754.045 1368.34 753.592C1369.97 753.255 1371.23 751.591 1371.07 750.023C1370.96 748.917 1370.13 747.78 1369.07 747.264C1368.43 746.958 1367.44 746.885 1366.79 747.095Z" fill="white"/>
<path d="M1380.27 747.095C1379.16 747.464 1378.16 748.58 1377.93 749.707C1377.48 751.876 1379.65 754.045 1381.81 753.592C1383.45 753.255 1384.71 751.591 1384.55 750.023C1384.44 748.917 1383.6 747.78 1382.55 747.264C1381.91 746.958 1380.92 746.885 1380.27 747.095Z" fill="white"/>
<path d="M1393.74 747.095C1392.64 747.464 1391.64 748.58 1391.41 749.707C1390.95 751.876 1393.12 754.045 1395.29 753.592C1396.92 753.255 1398.19 751.591 1398.03 750.023C1397.91 748.917 1397.08 747.78 1396.03 747.264C1395.39 746.958 1394.4 746.885 1393.74 747.095Z" fill="white"/>
<path d="M1407.22 747.095C1406.12 747.464 1405.12 748.58 1404.89 749.707C1404.43 751.876 1406.6 754.045 1408.77 753.592C1410.4 753.255 1411.67 751.591 1411.51 750.023C1411.39 748.917 1410.56 747.78 1409.51 747.264C1408.87 746.958 1407.88 746.885 1407.22 747.095Z" fill="white"/>
<path d="M1420.7 747.095C1419.6 747.464 1418.6 748.58 1418.36 749.707C1417.91 751.876 1420.08 754.045 1422.25 753.592C1423.88 753.255 1425.14 751.591 1424.99 750.023C1424.87 748.917 1424.04 747.78 1422.99 747.264C1422.34 746.958 1421.35 746.885 1420.7 747.095Z" fill="white"/>
<path d="M1299.4 760.573C1298.29 760.942 1297.29 762.058 1297.06 763.185C1296.61 765.354 1298.78 767.523 1300.95 767.07C1302.58 766.733 1303.84 765.07 1303.68 763.501C1303.57 762.395 1302.74 761.258 1301.68 760.742C1301.04 760.437 1300.05 760.363 1299.4 760.573Z" fill="white"/>
<path d="M1312.88 760.573C1311.77 760.942 1310.77 762.058 1310.54 763.185C1310.09 765.354 1312.25 767.523 1314.42 767.07C1316.06 766.733 1317.32 765.07 1317.16 763.501C1317.05 762.395 1316.21 761.258 1315.16 760.742C1314.52 760.437 1313.53 760.363 1312.88 760.573Z" fill="white"/>
<path d="M1326.35 760.573C1325.25 760.942 1324.25 762.058 1324.02 763.185C1323.56 765.354 1325.73 767.523 1327.9 767.07C1329.53 766.733 1330.8 765.07 1330.64 763.501C1330.52 762.395 1329.69 761.258 1328.64 760.742C1328 760.437 1327.01 760.363 1326.35 760.573Z" fill="white"/>
<path d="M1339.83 760.573C1338.73 760.942 1337.73 762.058 1337.49 763.185C1337.04 765.354 1339.21 767.523 1341.38 767.07C1343.01 766.733 1344.28 765.07 1344.12 763.501C1344 762.395 1343.17 761.258 1342.12 760.742C1341.48 760.437 1340.49 760.363 1339.83 760.573Z" fill="white"/>
<path d="M1353.31 760.573C1352.2 760.942 1351.2 762.058 1350.97 763.185C1350.52 765.354 1352.69 767.523 1354.86 767.07C1356.49 766.733 1357.75 765.07 1357.6 763.501C1357.48 762.395 1356.65 761.258 1355.6 760.742C1354.95 760.437 1353.96 760.363 1353.31 760.573Z" fill="white"/>
<path d="M1366.79 760.573C1365.68 760.942 1364.68 762.058 1364.45 763.185C1364 765.354 1366.17 767.523 1368.34 767.07C1369.97 766.733 1371.23 765.07 1371.07 763.501C1370.96 762.395 1370.13 761.258 1369.07 760.742C1368.43 760.437 1367.44 760.363 1366.79 760.573Z" fill="white"/>
<path d="M1380.27 760.573C1379.16 760.942 1378.16 762.058 1377.93 763.185C1377.48 765.354 1379.65 767.523 1381.81 767.07C1383.45 766.733 1384.71 765.07 1384.55 763.501C1384.44 762.395 1383.6 761.258 1382.55 760.742C1381.91 760.437 1380.92 760.363 1380.27 760.573Z" fill="white"/>
<path d="M1393.74 760.573C1392.64 760.942 1391.64 762.058 1391.41 763.185C1390.95 765.354 1393.12 767.523 1395.29 767.07C1396.92 766.733 1398.19 765.07 1398.03 763.501C1397.91 762.395 1397.08 761.258 1396.03 760.742C1395.39 760.437 1394.4 760.363 1393.74 760.573Z" fill="white"/>
<path d="M1407.22 760.573C1406.12 760.942 1405.12 762.058 1404.89 763.185C1404.43 765.354 1406.6 767.523 1408.77 767.07C1410.4 766.733 1411.67 765.07 1411.51 763.501C1411.39 762.395 1410.56 761.258 1409.51 760.742C1408.87 760.437 1407.88 760.363 1407.22 760.573Z" fill="white"/>
<path d="M1420.7 760.573C1419.6 760.942 1418.6 762.058 1418.36 763.185C1417.91 765.354 1420.08 767.523 1422.25 767.07C1423.88 766.733 1425.14 765.07 1424.99 763.501C1424.87 762.395 1424.04 761.258 1422.99 760.742C1422.34 760.437 1421.35 760.363 1420.7 760.573Z" fill="white"/>
<path d="M1299.4 774.052C1298.29 774.42 1297.29 775.536 1297.06 776.663C1296.61 778.832 1298.78 781.001 1300.95 780.548C1302.58 780.211 1303.84 778.548 1303.68 776.979C1303.57 775.873 1302.74 774.736 1301.68 774.22C1301.04 773.915 1300.05 773.841 1299.4 774.052Z" fill="white"/>
<path d="M1312.88 774.052C1311.77 774.42 1310.77 775.536 1310.54 776.663C1310.09 778.832 1312.25 781.001 1314.42 780.548C1316.06 780.211 1317.32 778.548 1317.16 776.979C1317.05 775.873 1316.21 774.736 1315.16 774.22C1314.52 773.915 1313.53 773.841 1312.88 774.052Z" fill="white"/>
<path d="M1326.35 774.052C1325.25 774.42 1324.25 775.536 1324.02 776.663C1323.56 778.832 1325.73 781.001 1327.9 780.548C1329.53 780.211 1330.8 778.548 1330.64 776.979C1330.52 775.873 1329.69 774.736 1328.64 774.22C1328 773.915 1327.01 773.841 1326.35 774.052Z" fill="white"/>
<path d="M1339.83 774.052C1338.73 774.42 1337.73 775.536 1337.49 776.663C1337.04 778.832 1339.21 781.001 1341.38 780.548C1343.01 780.211 1344.28 778.548 1344.12 776.979C1344 775.873 1343.17 774.736 1342.12 774.22C1341.48 773.915 1340.49 773.841 1339.83 774.052Z" fill="white"/>
<path d="M1353.31 774.052C1352.2 774.42 1351.2 775.536 1350.97 776.663C1350.52 778.832 1352.69 781.001 1354.86 780.548C1356.49 780.211 1357.75 778.548 1357.6 776.979C1357.48 775.873 1356.65 774.736 1355.6 774.22C1354.95 773.915 1353.96 773.841 1353.31 774.052Z" fill="white"/>
<path d="M1366.79 774.052C1365.68 774.42 1364.68 775.536 1364.45 776.663C1364 778.832 1366.17 781.001 1368.34 780.548C1369.97 780.211 1371.23 778.548 1371.07 776.979C1370.96 775.873 1370.13 774.736 1369.07 774.22C1368.43 773.915 1367.44 773.841 1366.79 774.052Z" fill="white"/>
<path d="M1380.27 774.052C1379.16 774.42 1378.16 775.536 1377.93 776.663C1377.48 778.832 1379.65 781.001 1381.81 780.548C1383.45 780.211 1384.71 778.548 1384.55 776.979C1384.44 775.873 1383.6 774.736 1382.55 774.22C1381.91 773.915 1380.92 773.841 1380.27 774.052Z" fill="white"/>
<path d="M1393.74 774.052C1392.64 774.42 1391.64 775.536 1391.41 776.663C1390.95 778.832 1393.12 781.001 1395.29 780.548C1396.92 780.211 1398.19 778.548 1398.03 776.979C1397.91 775.873 1397.08 774.736 1396.03 774.22C1395.39 773.915 1394.4 773.841 1393.74 774.052Z" fill="white"/>
<path d="M1407.22 774.052C1406.12 774.42 1405.12 775.536 1404.89 776.663C1404.43 778.832 1406.6 781.001 1408.77 780.548C1410.4 780.211 1411.67 778.548 1411.51 776.979C1411.39 775.873 1410.56 774.736 1409.51 774.22C1408.87 773.915 1407.88 773.841 1407.22 774.052Z" fill="white"/>
<path d="M1420.7 774.052C1419.6 774.42 1418.6 775.536 1418.36 776.663C1417.91 778.832 1420.08 781.001 1422.25 780.548C1423.88 780.211 1425.14 778.548 1424.99 776.979C1424.87 775.873 1424.04 774.736 1422.99 774.22C1422.34 773.915 1421.35 773.841 1420.7 774.052Z" fill="white"/>
<path d="M1299.4 787.53C1298.29 787.898 1297.29 789.014 1297.06 790.141C1296.61 792.31 1298.78 794.479 1300.95 794.027C1302.58 793.69 1303.84 792.026 1303.68 790.457C1303.57 789.351 1302.74 788.214 1301.68 787.698C1301.04 787.393 1300.05 787.319 1299.4 787.53Z" fill="white"/>
<path d="M1312.88 787.53C1311.77 787.898 1310.77 789.014 1310.54 790.141C1310.09 792.31 1312.25 794.479 1314.42 794.027C1316.06 793.69 1317.32 792.026 1317.16 790.457C1317.05 789.351 1316.21 788.214 1315.16 787.698C1314.52 787.393 1313.53 787.319 1312.88 787.53Z" fill="white"/>
<path d="M1326.35 787.53C1325.25 787.898 1324.25 789.014 1324.02 790.141C1323.56 792.31 1325.73 794.479 1327.9 794.027C1329.53 793.69 1330.8 792.026 1330.64 790.457C1330.52 789.351 1329.69 788.214 1328.64 787.698C1328 787.393 1327.01 787.319 1326.35 787.53Z" fill="white"/>
<path d="M1339.83 787.53C1338.73 787.898 1337.73 789.014 1337.49 790.141C1337.04 792.31 1339.21 794.479 1341.38 794.027C1343.01 793.69 1344.28 792.026 1344.12 790.457C1344 789.351 1343.17 788.214 1342.12 787.698C1341.48 787.393 1340.49 787.319 1339.83 787.53Z" fill="white"/>
<path d="M1353.31 787.53C1352.2 787.898 1351.2 789.014 1350.97 790.141C1350.52 792.31 1352.69 794.479 1354.86 794.027C1356.49 793.69 1357.75 792.026 1357.6 790.457C1357.48 789.351 1356.65 788.214 1355.6 787.698C1354.95 787.393 1353.96 787.319 1353.31 787.53Z" fill="white"/>
<path d="M1366.79 787.53C1365.68 787.898 1364.68 789.014 1364.45 790.141C1364 792.31 1366.17 794.479 1368.34 794.027C1369.97 793.69 1371.23 792.026 1371.07 790.457C1370.96 789.351 1370.13 788.214 1369.07 787.698C1368.43 787.393 1367.44 787.319 1366.79 787.53Z" fill="white"/>
<path d="M1380.27 787.53C1379.16 787.898 1378.16 789.014 1377.93 790.141C1377.48 792.31 1379.65 794.479 1381.81 794.027C1383.45 793.69 1384.71 792.026 1384.55 790.457C1384.44 789.351 1383.6 788.214 1382.55 787.698C1381.91 787.393 1380.92 787.319 1380.27 787.53Z" fill="white"/>
<path d="M1393.74 787.53C1392.64 787.898 1391.64 789.014 1391.41 790.141C1390.95 792.31 1393.12 794.479 1395.29 794.027C1396.92 793.69 1398.19 792.026 1398.03 790.457C1397.91 789.351 1397.08 788.214 1396.03 787.698C1395.39 787.393 1394.4 787.319 1393.74 787.53Z" fill="white"/>
<path d="M1407.22 787.53C1406.12 787.898 1405.12 789.014 1404.89 790.141C1404.43 792.31 1406.6 794.479 1408.77 794.027C1410.4 793.69 1411.67 792.026 1411.51 790.457C1411.39 789.351 1410.56 788.214 1409.51 787.698C1408.87 787.393 1407.88 787.319 1407.22 787.53Z" fill="white"/>
<path d="M1420.7 787.53C1419.6 787.898 1418.6 789.014 1418.36 790.141C1417.91 792.31 1420.08 794.479 1422.25 794.027C1423.88 793.69 1425.14 792.026 1424.99 790.457C1424.87 789.351 1424.04 788.214 1422.99 787.698C1422.34 787.393 1421.35 787.319 1420.7 787.53Z" fill="white"/>
<path d="M1299.4 801.008C1298.29 801.377 1297.29 802.493 1297.06 803.619C1296.61 805.789 1298.78 807.958 1300.95 807.505C1302.58 807.168 1303.84 805.504 1303.68 803.935C1303.57 802.83 1302.74 801.692 1301.68 801.177C1301.04 800.871 1300.05 800.797 1299.4 801.008Z" fill="white"/>
<path d="M1312.88 801.008C1311.77 801.377 1310.77 802.493 1310.54 803.619C1310.09 805.789 1312.25 807.958 1314.42 807.505C1316.06 807.168 1317.32 805.504 1317.16 803.935C1317.05 802.83 1316.21 801.692 1315.16 801.177C1314.52 800.871 1313.53 800.797 1312.88 801.008Z" fill="white"/>
<path d="M1326.35 801.008C1325.25 801.377 1324.25 802.493 1324.02 803.619C1323.75 804.851 1324.35 806.189 1325.51 806.978C1326.64 807.758 1327.92 807.768 1329.06 807.01C1330.92 805.767 1331.18 803.451 1329.62 801.903C1328.72 800.997 1327.44 800.65 1326.35 801.008Z" fill="white"/>
<path d="M1339.83 801.008C1338.73 801.377 1337.73 802.493 1337.49 803.619C1337.23 804.851 1337.83 806.189 1338.99 806.978C1340.12 807.758 1341.4 807.768 1342.54 807.01C1344.4 805.767 1344.66 803.451 1343.1 801.903C1342.2 800.997 1340.92 800.65 1339.83 801.008Z" fill="white"/>
<path d="M1353.31 801.008C1351.72 801.534 1350.65 803.282 1350.97 804.82C1351.24 806.073 1352.4 807.242 1353.66 807.505C1355.69 807.937 1357.81 806.01 1357.6 803.935C1357.48 802.83 1356.65 801.692 1355.6 801.176C1354.95 800.871 1353.96 800.797 1353.31 801.008Z" fill="white"/>
<path d="M1366.79 801.008C1365.2 801.534 1364.12 803.282 1364.45 804.82C1364.71 806.073 1365.88 807.242 1367.14 807.505C1369.17 807.937 1371.28 806.01 1371.07 803.935C1370.96 802.83 1370.13 801.692 1369.07 801.176C1368.43 800.871 1367.44 800.797 1366.79 801.008Z" fill="white"/>
<path d="M1380.27 801.008C1378.68 801.534 1377.6 803.282 1377.93 804.82C1378.19 806.073 1379.36 807.242 1380.61 807.505C1382.65 807.937 1384.76 806.01 1384.55 803.935C1384.44 802.83 1383.6 801.692 1382.55 801.176C1381.91 800.871 1380.92 800.797 1380.27 801.008Z" fill="white"/>
<path d="M1393.74 801.008C1392.15 801.534 1391.08 803.282 1391.41 804.82C1391.67 806.073 1392.84 807.242 1394.09 807.505C1396.12 807.937 1398.24 806.01 1398.03 803.935C1397.91 802.83 1397.08 801.692 1396.03 801.176C1395.39 800.871 1394.4 800.797 1393.74 801.008Z" fill="white"/>
<path d="M1407.22 801.008C1406.12 801.377 1405.12 802.493 1404.89 803.619C1404.43 805.789 1406.6 807.958 1408.77 807.505C1410.4 807.168 1411.67 805.504 1411.51 803.935C1411.39 802.83 1410.56 801.692 1409.51 801.177C1408.87 800.871 1407.88 800.797 1407.22 801.008Z" fill="white"/>
<path d="M1420.7 801.008C1419.6 801.377 1418.6 802.493 1418.36 803.619C1417.91 805.789 1420.08 807.958 1422.25 807.505C1423.88 807.168 1425.14 805.504 1424.99 803.935C1424.87 802.83 1424.04 801.692 1422.99 801.177C1422.34 800.871 1421.35 800.797 1420.7 801.008Z" fill="white"/>
<path d="M1299.4 814.486C1298.29 814.855 1297.29 815.971 1297.06 817.098C1296.61 819.267 1298.78 821.436 1300.95 820.983C1302.58 820.646 1303.84 818.983 1303.68 817.414C1303.57 816.308 1302.74 815.171 1301.68 814.655C1301.04 814.349 1300.05 814.276 1299.4 814.486Z" fill="white"/>
<path d="M1312.88 814.486C1311.77 814.855 1310.77 815.971 1310.54 817.098C1310.09 819.267 1312.25 821.436 1314.42 820.983C1316.06 820.646 1317.32 818.983 1317.16 817.414C1317.05 816.308 1316.21 815.171 1315.16 814.655C1314.52 814.349 1313.53 814.276 1312.88 814.486Z" fill="white"/>
<path d="M1326.35 814.486C1325.25 814.855 1324.25 815.971 1324.02 817.098C1323.75 818.33 1324.35 819.667 1325.51 820.457C1326.64 821.236 1327.92 821.246 1329.06 820.488C1330.92 819.246 1331.18 816.929 1329.62 815.381C1328.72 814.476 1327.44 814.128 1326.35 814.486Z" fill="white"/>
<path d="M1339.83 814.486C1338.73 814.855 1337.73 815.971 1337.49 817.098C1337.23 818.33 1337.83 819.667 1338.99 820.457C1340.12 821.236 1341.4 821.246 1342.54 820.488C1344.4 819.246 1344.66 816.929 1343.1 815.381C1342.2 814.476 1340.92 814.128 1339.83 814.486Z" fill="white"/>
<path d="M1353.31 814.486C1351.72 815.013 1350.65 816.761 1350.97 818.298C1351.24 819.551 1352.4 820.72 1353.66 820.983C1355.69 821.415 1357.81 819.488 1357.6 817.413C1357.48 816.308 1356.65 815.171 1355.6 814.655C1354.95 814.349 1353.96 814.276 1353.31 814.486Z" fill="white"/>
<path d="M1366.79 814.486C1365.2 815.013 1364.12 816.761 1364.45 818.298C1364.71 819.551 1365.88 820.72 1367.14 820.983C1369.17 821.415 1371.28 819.488 1371.07 817.413C1370.96 816.308 1370.13 815.171 1369.07 814.655C1368.43 814.349 1367.44 814.276 1366.79 814.486Z" fill="white"/>
<path d="M1380.27 814.486C1378.68 815.013 1377.6 816.761 1377.93 818.298C1378.19 819.551 1379.36 820.72 1380.61 820.983C1382.65 821.415 1384.76 819.488 1384.55 817.413C1384.44 816.308 1383.6 815.171 1382.55 814.655C1381.91 814.349 1380.92 814.276 1380.27 814.486Z" fill="white"/>
<path d="M1393.74 814.486C1392.15 815.013 1391.08 816.761 1391.41 818.298C1391.67 819.551 1392.84 820.72 1394.09 820.983C1396.12 821.415 1398.24 819.488 1398.03 817.413C1397.91 816.308 1397.08 815.171 1396.03 814.655C1395.39 814.349 1394.4 814.276 1393.74 814.486Z" fill="white"/>
<path d="M1407.22 814.486C1406.12 814.855 1405.12 815.971 1404.89 817.098C1404.43 819.267 1406.6 821.436 1408.77 820.983C1410.4 820.646 1411.67 818.983 1411.51 817.414C1411.39 816.308 1410.56 815.171 1409.51 814.655C1408.87 814.349 1407.88 814.276 1407.22 814.486Z" fill="white"/>
<path d="M1420.7 814.486C1419.6 814.855 1418.6 815.971 1418.36 817.098C1417.91 819.267 1420.08 821.436 1422.25 820.983C1423.88 820.646 1425.14 818.983 1424.99 817.414C1424.87 816.308 1424.04 815.171 1422.99 814.655C1422.34 814.349 1421.35 814.276 1420.7 814.486Z" fill="white"/>
<path d="M1299.4 827.964C1298.29 828.333 1297.29 829.449 1297.06 830.576C1296.61 832.745 1298.78 834.914 1300.95 834.461C1302.58 834.124 1303.84 832.461 1303.68 830.892C1303.57 829.786 1302.74 828.649 1301.68 828.133C1301.04 827.827 1300.05 827.754 1299.4 827.964Z" fill="white"/>
<path d="M1312.88 827.964C1311.77 828.333 1310.77 829.449 1310.54 830.576C1310.09 832.745 1312.25 834.914 1314.42 834.461C1316.06 834.124 1317.32 832.461 1317.16 830.892C1317.05 829.786 1316.21 828.649 1315.16 828.133C1314.52 827.827 1313.53 827.754 1312.88 827.964Z" fill="white"/>
<path d="M1326.35 827.965C1325.25 828.333 1324.25 829.449 1324.02 830.576C1323.75 831.808 1324.35 833.145 1325.51 833.935C1326.64 834.714 1327.92 834.725 1329.06 833.967C1330.92 832.724 1331.18 830.407 1329.62 828.86C1328.72 827.954 1327.44 827.606 1326.35 827.965Z" fill="white"/>
<path d="M1339.83 827.965C1338.73 828.333 1337.73 829.449 1337.49 830.576C1337.23 831.808 1337.83 833.145 1338.99 833.935C1340.12 834.714 1341.4 834.725 1342.54 833.967C1344.4 832.724 1344.66 830.407 1343.1 828.86C1342.2 827.954 1340.92 827.606 1339.83 827.965Z" fill="white"/>
<path d="M1353.31 827.964C1352.2 828.333 1351.2 829.449 1350.97 830.576C1350.52 832.745 1352.69 834.914 1354.86 834.461C1356.49 834.124 1357.75 832.461 1357.6 830.892C1357.48 829.786 1356.65 828.649 1355.6 828.133C1354.95 827.827 1353.96 827.754 1353.31 827.964Z" fill="white"/>
<path d="M1366.79 827.964C1365.68 828.333 1364.68 829.449 1364.45 830.576C1364 832.745 1366.17 834.914 1368.34 834.461C1369.97 834.124 1371.23 832.461 1371.07 830.892C1370.96 829.786 1370.13 828.649 1369.07 828.133C1368.43 827.827 1367.44 827.754 1366.79 827.964Z" fill="white"/>
<path d="M1380.27 827.964C1379.16 828.333 1378.16 829.449 1377.93 830.576C1377.48 832.745 1379.65 834.914 1381.81 834.461C1383.45 834.124 1384.71 832.461 1384.55 830.892C1384.44 829.786 1383.6 828.649 1382.55 828.133C1381.91 827.827 1380.92 827.754 1380.27 827.964Z" fill="white"/>
<path d="M1393.74 827.964C1392.64 828.333 1391.64 829.449 1391.41 830.576C1390.95 832.745 1393.12 834.914 1395.29 834.461C1396.92 834.124 1398.19 832.461 1398.03 830.892C1397.91 829.786 1397.08 828.649 1396.03 828.133C1395.39 827.827 1394.4 827.754 1393.74 827.964Z" fill="white"/>
<path d="M1407.22 827.964C1406.12 828.333 1405.12 829.449 1404.89 830.576C1404.43 832.745 1406.6 834.914 1408.77 834.461C1410.4 834.124 1411.67 832.461 1411.51 830.892C1411.39 829.786 1410.56 828.649 1409.51 828.133C1408.87 827.827 1407.88 827.754 1407.22 827.964Z" fill="white"/>
<path d="M1420.7 827.964C1419.6 828.333 1418.6 829.449 1418.36 830.576C1417.91 832.745 1420.08 834.914 1422.25 834.461C1423.88 834.124 1425.14 832.461 1424.99 830.892C1424.87 829.786 1424.04 828.649 1422.99 828.133C1422.34 827.827 1421.35 827.754 1420.7 827.964Z" fill="white"/>
<path d="M1299.4 841.443C1298.29 841.811 1297.29 842.927 1297.06 844.054C1296.61 846.223 1298.78 848.392 1300.95 847.94C1302.58 847.603 1303.84 845.939 1303.68 844.37C1303.57 843.264 1302.74 842.127 1301.68 841.611C1301.04 841.306 1300.05 841.232 1299.4 841.443Z" fill="white"/>
<path d="M1312.88 841.443C1311.77 841.811 1310.77 842.927 1310.54 844.054C1310.09 846.223 1312.25 848.392 1314.42 847.94C1316.06 847.603 1317.32 845.939 1317.16 844.37C1317.05 843.264 1316.21 842.127 1315.16 841.611C1314.52 841.306 1313.53 841.232 1312.88 841.443Z" fill="white"/>
<path d="M1326.35 841.443C1325.25 841.811 1324.25 842.927 1324.02 844.054C1323.56 846.223 1325.73 848.392 1327.9 847.94C1329.53 847.603 1330.8 845.939 1330.64 844.37C1330.52 843.264 1329.69 842.127 1328.64 841.611C1328 841.306 1327.01 841.232 1326.35 841.443Z" fill="white"/>
<path d="M1339.83 841.443C1338.73 841.811 1337.73 842.927 1337.49 844.054C1337.04 846.223 1339.21 848.392 1341.38 847.94C1343.01 847.603 1344.28 845.939 1344.12 844.37C1344 843.264 1343.17 842.127 1342.12 841.611C1341.48 841.306 1340.49 841.232 1339.83 841.443Z" fill="white"/>
<path d="M1353.31 841.443C1352.2 841.811 1351.2 842.927 1350.97 844.054C1350.52 846.223 1352.69 848.392 1354.86 847.94C1356.49 847.603 1357.75 845.939 1357.6 844.37C1357.48 843.264 1356.65 842.127 1355.6 841.611C1354.95 841.306 1353.96 841.232 1353.31 841.443Z" fill="white"/>
<path d="M1366.79 841.443C1365.68 841.811 1364.68 842.927 1364.45 844.054C1364 846.223 1366.17 848.392 1368.34 847.94C1369.97 847.603 1371.23 845.939 1371.07 844.37C1370.96 843.264 1370.13 842.127 1369.07 841.611C1368.43 841.306 1367.44 841.232 1366.79 841.443Z" fill="white"/>
<path d="M1380.27 841.443C1379.16 841.811 1378.16 842.927 1377.93 844.054C1377.48 846.223 1379.65 848.392 1381.81 847.94C1383.45 847.603 1384.71 845.939 1384.55 844.37C1384.44 843.264 1383.6 842.127 1382.55 841.611C1381.91 841.306 1380.92 841.232 1380.27 841.443Z" fill="white"/>
<path d="M1393.74 841.443C1392.64 841.811 1391.64 842.927 1391.41 844.054C1390.95 846.223 1393.12 848.392 1395.29 847.94C1396.92 847.603 1398.19 845.939 1398.03 844.37C1397.91 843.264 1397.08 842.127 1396.03 841.611C1395.39 841.306 1394.4 841.232 1393.74 841.443Z" fill="white"/>
<path d="M1407.22 841.443C1406.12 841.811 1405.12 842.927 1404.89 844.054C1404.43 846.223 1406.6 848.392 1408.77 847.94C1410.4 847.603 1411.67 845.939 1411.51 844.37C1411.39 843.264 1410.56 842.127 1409.51 841.611C1408.87 841.306 1407.88 841.232 1407.22 841.443Z" fill="white"/>
<path d="M1420.7 841.443C1419.6 841.811 1418.6 842.927 1418.36 844.054C1417.91 846.223 1420.08 848.392 1422.25 847.94C1423.88 847.603 1425.14 845.939 1424.99 844.37C1424.87 843.264 1424.04 842.127 1422.99 841.611C1422.34 841.306 1421.35 841.232 1420.7 841.443Z" fill="white"/>
</g>
<g clip-path="url(#clip0_121_357)">
<mask id="mask0_121_357" style="mask-type:luminance" maskUnits="userSpaceOnUse" x="1288" y="0" width="136" height="410">
<path d="M1424 0H1288V410H1424V0Z" fill="white"/>
</mask>
<g mask="url(#mask0_121_357)">
<mask id="mask1_121_357" style="mask-type:luminance" maskUnits="userSpaceOnUse" x="1288" y="26" width="136" height="410">
<path d="M1424 26H1288V436H1424V26Z" fill="#E1E6E5"/>
</mask>
<g mask="url(#mask1_121_357)">
<path fill-rule="evenodd" clip-rule="evenodd" d="M1403.86 420.2L1644.91 330.641C1648.62 329.264 1652.74 331.152 1654.12 334.862C1655.5 338.571 1653.61 342.695 1649.9 344.074L1408.85 433.632C1408.03 433.937 1407.18 434.082 1406.36 434.082C1403.45 434.082 1400.71 432.298 1399.64 429.411C1398.26 425.702 1400.15 421.577 1403.86 420.2Z" fill="#E1E6E5"/>
</g>
<mask id="mask2_121_357" style="mask-type:luminance" maskUnits="userSpaceOnUse" x="1288" y="26" width="136" height="410">
<path d="M1424 26H1288V436H1424V26Z" fill="#E1E6E5"/>
</mask>
<g mask="url(#mask2_121_357)">
<path fill-rule="evenodd" clip-rule="evenodd" d="M1369.73 392.061L1628.93 302.503C1632.67 301.211 1636.75 303.196 1638.04 306.934C1639.33 310.675 1637.35 314.754 1633.61 316.046L1374.4 405.605C1373.63 405.873 1372.84 406 1372.07 406C1369.1 406 1366.32 404.138 1365.29 401.173C1364 397.432 1365.98 393.353 1369.73 392.061Z" fill="#E1E6E5"/>
</g>
<mask id="mask3_121_357" style="mask-type:luminance" maskUnits="userSpaceOnUse" x="1288" y="26" width="136" height="410">
<path d="M1424 26H1288V436H1424V26Z" fill="#E1E6E5"/>
</mask>
<g mask="url(#mask3_121_357)">
<path fill-rule="evenodd" clip-rule="evenodd" d="M1342.71 366.511L1605.93 276.953C1608.27 276.157 1610.81 277.409 1611.61 279.749C1612.41 282.09 1611.15 284.635 1608.81 285.431L1345.6 374.99C1345.12 375.152 1344.63 375.23 1344.16 375.23C1342.29 375.23 1340.55 374.056 1339.92 372.192C1339.12 369.851 1340.37 367.308 1342.71 366.511Z" fill="#E1E6E5"/>
</g>
<mask id="mask4_121_357" style="mask-type:luminance" maskUnits="userSpaceOnUse" x="1288" y="26" width="136" height="410">
<path d="M1424 26H1288V436H1424V26Z" fill="#E1E6E5"/>
</mask>
<g mask="url(#mask4_121_357)">
<path fill-rule="evenodd" clip-rule="evenodd" d="M1321.13 338.447L1573.75 248.889C1576.08 248.06 1578.64 249.282 1579.47 251.613C1580.29 253.944 1579.07 256.503 1576.74 257.33L1324.12 346.888C1323.63 347.064 1323.12 347.147 1322.63 347.147C1320.78 347.147 1319.06 346 1318.41 344.164C1317.58 341.833 1318.8 339.273 1321.13 338.447Z" fill="#E1E6E5"/>
</g>
<mask id="mask5_121_357" style="mask-type:luminance" maskUnits="userSpaceOnUse" x="1288" y="26" width="136" height="410">
<path d="M1424 26H1288V436H1424V26Z" fill="#E1E6E5"/>
</mask>
<g mask="url(#mask5_121_357)">
<path fill-rule="evenodd" clip-rule="evenodd" d="M1305.28 312.089L1529.83 222.53C1531.21 221.98 1532.78 222.652 1533.32 224.031C1533.87 225.409 1533.2 226.972 1531.82 227.521L1307.27 317.08C1306.95 317.211 1306.61 317.272 1306.28 317.272C1305.21 317.272 1304.2 316.631 1303.78 315.579C1303.23 314.201 1303.91 312.638 1305.28 312.089Z" fill="#E1E6E5"/>
</g>
<mask id="mask6_121_357" style="mask-type:luminance" maskUnits="userSpaceOnUse" x="1288" y="26" width="136" height="410">
<path d="M1424 26H1288V436H1424V26Z" fill="#E1E6E5"/>
</mask>
<g mask="url(#mask6_121_357)">
<path fill-rule="evenodd" clip-rule="evenodd" d="M1294.29 284.094L1475.1 194.536C1476.43 193.878 1478.04 194.422 1478.7 195.751C1479.35 197.081 1478.81 198.692 1477.48 199.351L1296.67 288.909C1296.29 289.1 1295.88 289.189 1295.48 289.189C1294.49 289.189 1293.54 288.641 1293.07 287.695C1292.41 286.365 1292.96 284.753 1294.29 284.094Z" fill="#E1E6E5"/>
</g>
<mask id="mask7_121_357" style="mask-type:luminance" maskUnits="userSpaceOnUse" x="1288" y="26" width="136" height="410">
<path d="M1424 26H1288V436H1424V26Z" fill="#E1E6E5"/>
</mask>
<g mask="url(#mask7_121_357)">
<path fill-rule="evenodd" clip-rule="evenodd" d="M1289.31 256.111L1439.71 166.552C1440.99 165.793 1442.64 166.211 1443.4 167.486C1444.16 168.761 1443.74 170.41 1442.46 171.17L1292.06 260.728C1291.63 260.985 1291.16 261.106 1290.69 261.106C1289.77 261.106 1288.88 260.638 1288.38 259.794C1287.62 258.519 1288.04 256.87 1289.31 256.111Z" fill="#E1E6E5"/>
</g>
<mask id="mask8_121_357" style="mask-type:luminance" maskUnits="userSpaceOnUse" x="1288" y="26" width="136" height="410">
<path d="M1424 26H1288V436H1424V26Z" fill="#E1E6E5"/>
</mask>
<g mask="url(#mask8_121_357)">
<path fill-rule="evenodd" clip-rule="evenodd" d="M1291.24 231.806C1290.93 232.024 1290.57 232.129 1290.22 232.129C1289.65 232.129 1289.09 231.861 1288.74 231.362C1288.18 230.551 1288.38 229.434 1289.19 228.868L1417.51 139.31C1418.33 138.744 1419.44 138.943 1420.01 139.753C1420.57 140.564 1420.38 141.681 1419.57 142.247L1291.24 231.806Z" fill="#E1E6E5"/>
</g>
<mask id="mask9_121_357" style="mask-type:luminance" maskUnits="userSpaceOnUse" x="1288" y="26" width="136" height="410">
<path d="M1424 26H1288V436H1424V26Z" fill="#E1E6E5"/>
</mask>
<g mask="url(#mask9_121_357)">
<path fill-rule="evenodd" clip-rule="evenodd" d="M1296.08 203.634C1295.75 203.91 1295.34 204.045 1294.94 204.045C1294.42 204.045 1293.91 203.824 1293.56 203.396C1292.93 202.634 1293.03 201.505 1293.8 200.875L1401.99 111.316C1402.75 110.685 1403.88 110.792 1404.51 111.553C1405.14 112.315 1405.03 113.445 1404.27 114.075L1296.08 203.634Z" fill="#E1E6E5"/>
</g>
<mask id="mask10_121_357" style="mask-type:luminance" maskUnits="userSpaceOnUse" x="1288" y="26" width="136" height="410">
<path d="M1424 26H1288V436H1424V26Z" fill="#E1E6E5"/>
</mask>
<g mask="url(#mask10_121_357)">
<path fill-rule="evenodd" clip-rule="evenodd" d="M1394.94 83.9794C1395.29 84.3294 1395.29 84.8964 1394.94 85.2464L1305.34 174.806C1305.16 174.98 1304.93 175.067 1304.7 175.067C1304.47 175.067 1304.24 174.98 1304.07 174.805C1303.72 174.455 1303.72 173.888 1304.07 173.538L1393.68 83.9794C1394.03 83.6304 1394.59 83.6294 1394.94 83.9794Z" fill="#E1E6E5"/>
</g>
<mask id="mask11_121_357" style="mask-type:luminance" maskUnits="userSpaceOnUse" x="1288" y="26" width="136" height="410">
<path d="M1424 26H1288V436H1424V26Z" fill="#E1E6E5"/>
</mask>
<g mask="url(#mask11_121_357)">
<path fill-rule="evenodd" clip-rule="evenodd" d="M1392.13 55.8548C1392.5 56.1798 1392.54 56.7458 1392.22 57.1188L1317.3 143.094C1317.12 143.297 1316.87 143.401 1316.62 143.401C1316.41 143.401 1316.2 143.329 1316.03 143.181C1315.66 142.856 1315.62 142.29 1315.95 141.917L1390.87 55.9418C1391.19 55.5678 1391.76 55.5308 1392.13 55.8548Z" fill="#E1E6E5"/>
</g>
<mask id="mask12_121_357" style="mask-type:luminance" maskUnits="userSpaceOnUse" x="1288" y="26" width="136" height="410">
<path d="M1424 26H1288V436H1424V26Z" fill="#E1E6E5"/>
</mask>
<g mask="url(#mask12_121_357)">
<path fill-rule="evenodd" clip-rule="evenodd" d="M1329.73 109.497C1329.64 109.606 1329.51 109.663 1329.38 109.663C1329.28 109.663 1329.18 109.63 1329.1 109.563C1328.91 109.407 1328.88 109.125 1329.03 108.933L1394.49 28.1646C1394.65 27.9736 1394.93 27.9446 1395.12 28.0996C1395.32 28.2556 1395.35 28.5366 1395.19 28.7296L1329.73 109.497Z" fill="#E1E6E5"/>
</g>
<mask id="mask13_121_357" style="mask-type:luminance" maskUnits="userSpaceOnUse" x="1288" y="26" width="136" height="410">
<path d="M1424 26H1288V436H1424V26Z" fill="#E1E6E5"/>
</mask>
<g mask="url(#mask13_121_357)">
<path fill-rule="evenodd" clip-rule="evenodd" d="M1337.81 74.6729C1337.72 74.7829 1337.6 74.8389 1337.47 74.8389C1337.37 74.8389 1337.27 74.8069 1337.18 74.7399C1336.99 74.5849 1336.96 74.3029 1337.12 74.1099L1373.81 28.715C1373.96 28.523 1374.24 28.492 1374.44 28.649C1374.63 28.804 1374.66 29.086 1374.5 29.278L1337.81 74.6729Z" fill="#E1E6E5"/>
</g>
</g>
</g>
<g clip-path="url(#clip1_121_357)">
<mask id="mask14_121_357" style="mask-type:luminance" maskUnits="userSpaceOnUse" x="3" y="437" width="134" height="410">
<path d="M4.31506 846.882L136.702 846.943L135.994 437.119L3.60694 437.057L4.31506 846.882Z" fill="white"/>
</mask>
<g mask="url(#mask14_121_357)">
<mask id="mask15_121_357" style="mask-type:luminance" maskUnits="userSpaceOnUse" x="3" y="437" width="135" height="410">
<path d="M4.31192 846.728L137.065 846.936L135.997 437.272L3.24342 437.065L4.31192 846.728Z" fill="#E1E6E5"/>
</mask>
<g mask="url(#mask15_121_357)">
<path fill-rule="evenodd" clip-rule="evenodd" d="M23.6272 453.32L-210.218 542.01C-213.818 543.373 -217.827 541.49 -219.175 537.798C-220.523 534.108 -218.698 530.01 -215.1 528.644L18.7465 439.955C19.5449 439.653 20.3621 439.51 21.1672 439.511C23.9921 439.516 26.6536 441.294 27.7021 444.167C29.05 447.857 27.2254 451.956 23.6272 453.32Z" fill="#E1E6E5"/>
</g>
<mask id="mask16_121_357" style="mask-type:luminance" maskUnits="userSpaceOnUse" x="3" y="437" width="135" height="410">
<path d="M4.31192 846.728L137.065 846.936L135.997 437.272L3.24342 437.065L4.31192 846.728Z" fill="#E1E6E5"/>
</mask>
<g mask="url(#mask16_121_357)">
<path fill-rule="evenodd" clip-rule="evenodd" d="M56.7644 481.467L-194.697 570.099C-198.327 571.378 -202.292 569.398 -203.555 565.68C-204.82 561.96 -202.905 557.908 -199.275 556.629L52.1858 467.996C52.9366 467.73 53.7034 467.605 54.456 467.607C57.3399 467.611 60.0413 469.466 61.0443 472.415C62.3086 476.136 60.3937 480.188 56.7644 481.467Z" fill="#E1E6E5"/>
</g>
<mask id="mask17_121_357" style="mask-type:luminance" maskUnits="userSpaceOnUse" x="3" y="437" width="135" height="410">
<path d="M4.31192 846.728L137.065 846.936L135.997 437.272L3.24342 437.065L4.31192 846.728Z" fill="#E1E6E5"/>
</mask>
<g mask="url(#mask17_121_357)">
<path fill-rule="evenodd" clip-rule="evenodd" d="M82.9807 507.025L-172.368 595.63C-174.637 596.417 -177.111 595.169 -177.891 592.843C-178.671 590.515 -177.461 587.988 -175.19 587.2L80.1575 498.594C80.6222 498.433 81.0929 498.357 81.558 498.357C83.3679 498.36 85.0615 499.53 85.6819 501.383C86.4609 503.711 85.2518 506.236 82.9807 507.025Z" fill="#E1E6E5"/>
</g>
<mask id="mask18_121_357" style="mask-type:luminance" maskUnits="userSpaceOnUse" x="3" y="437" width="135" height="410">
<path d="M4.31192 846.728L137.065 846.936L135.997 437.272L3.24342 437.065L4.31192 846.728Z" fill="#E1E6E5"/>
</mask>
<g mask="url(#mask18_121_357)">
<path fill-rule="evenodd" clip-rule="evenodd" d="M103.94 535.054L-141.129 623.693C-143.39 624.514 -145.879 623.295 -146.687 620.977C-147.496 618.658 -146.318 616.116 -144.057 615.298L101.012 526.659C101.492 526.485 101.982 526.403 102.464 526.404C104.254 526.407 105.933 527.55 106.57 529.376C107.379 531.694 106.201 534.237 103.94 535.054Z" fill="#E1E6E5"/>
</g>
<mask id="mask19_121_357" style="mask-type:luminance" maskUnits="userSpaceOnUse" x="3" y="437" width="135" height="410">
<path d="M4.31192 846.728L137.065 846.936L135.997 437.272L3.24342 437.065L4.31192 846.728Z" fill="#E1E6E5"/>
</mask>
<g mask="url(#mask19_121_357)">
<path fill-rule="evenodd" clip-rule="evenodd" d="M119.325 561.361L-98.5035 650.083C-99.8402 650.628 -101.36 649.957 -101.897 648.585C-102.434 647.213 -101.786 645.66 -100.449 645.116L117.379 556.395C117.695 556.265 118.022 556.205 118.344 556.205C119.38 556.207 120.362 556.846 120.772 557.893C121.31 559.264 120.661 560.817 119.325 561.361Z" fill="#E1E6E5"/>
</g>
<mask id="mask20_121_357" style="mask-type:luminance" maskUnits="userSpaceOnUse" x="3" y="437" width="135" height="410">
<path d="M4.31192 846.728L137.065 846.936L135.997 437.272L3.24342 437.065L4.31192 846.728Z" fill="#E1E6E5"/>
</mask>
<g mask="url(#mask20_121_357)">
<path fill-rule="evenodd" clip-rule="evenodd" d="M130.01 589.262L-45.3739 678.131C-46.6649 678.784 -48.2302 678.24 -48.8737 676.916C-49.5173 675.591 -48.9932 673.988 -47.7031 673.334L127.68 584.466C128.052 584.276 128.447 584.188 128.836 584.189C129.798 584.19 130.723 584.737 131.181 585.68C131.823 587.005 131.299 588.609 130.01 589.262Z" fill="#E1E6E5"/>
</g>
<mask id="mask21_121_357" style="mask-type:luminance" maskUnits="userSpaceOnUse" x="3" y="437" width="135" height="410">
<path d="M4.31192 846.728L137.065 846.936L135.997 437.272L3.24342 437.065L4.31192 846.728Z" fill="#E1E6E5"/>
</mask>
<g mask="url(#mask21_121_357)">
<path fill-rule="evenodd" clip-rule="evenodd" d="M134.854 617.181L-11.023 706.157C-12.2587 706.911 -13.8637 706.492 -14.6035 705.221C-15.3453 703.95 -14.9426 702.308 -13.7069 701.553L132.17 612.577C132.588 612.322 133.048 612.202 133.502 612.203C134.392 612.204 135.261 612.672 135.751 613.513C136.492 614.785 136.09 616.427 134.854 617.181Z" fill="#E1E6E5"/>
</g>
<mask id="mask22_121_357" style="mask-type:luminance" maskUnits="userSpaceOnUse" x="3" y="437" width="135" height="410">
<path d="M4.31192 846.728L137.065 846.936L135.997 437.272L3.24342 437.065L4.31192 846.728Z" fill="#E1E6E5"/>
</mask>
<g mask="url(#mask22_121_357)">
<path fill-rule="evenodd" clip-rule="evenodd" d="M132.989 641.449C133.292 641.232 133.639 641.128 133.982 641.128C134.532 641.129 135.073 641.397 135.414 641.895C135.966 642.704 135.776 643.817 134.989 644.38L10.5321 733.434C9.74365 733.996 8.65968 733.796 8.10754 732.988C7.55442 732.179 7.7448 731.066 8.53135 730.503L132.989 641.449Z" fill="#E1E6E5"/>
</g>
<mask id="mask23_121_357" style="mask-type:luminance" maskUnits="userSpaceOnUse" x="3" y="437" width="135" height="410">
<path d="M4.31192 846.728L137.065 846.936L135.997 437.272L3.24342 437.065L4.31192 846.728Z" fill="#E1E6E5"/>
</mask>
<g mask="url(#mask23_121_357)">
<path fill-rule="evenodd" clip-rule="evenodd" d="M128.308 669.578C128.632 669.304 129.025 669.17 129.416 669.17C129.916 669.171 130.415 669.392 130.76 669.82C131.375 670.581 131.274 671.706 130.535 672.333L25.6171 761.463C24.8791 762.091 23.7805 761.982 23.1652 761.222C22.5498 760.461 22.6508 759.335 23.3898 758.708L128.308 669.578Z" fill="#E1E6E5"/>
</g>
<mask id="mask24_121_357" style="mask-type:luminance" maskUnits="userSpaceOnUse" x="3" y="437" width="135" height="410">
<path d="M4.31192 846.728L137.065 846.936L135.997 437.272L3.24342 437.065L4.31192 846.728Z" fill="#E1E6E5"/>
</mask>
<g mask="url(#mask24_121_357)">
<path fill-rule="evenodd" clip-rule="evenodd" d="M32.4673 788.834C32.126 788.484 32.1245 787.918 32.4639 787.57L119.348 698.37C119.518 698.197 119.74 698.11 119.963 698.111C120.185 698.111 120.409 698.198 120.58 698.373C120.92 698.723 120.922 699.288 120.583 699.637L33.6982 788.836C33.3598 789.183 32.8085 789.183 32.4673 788.834Z" fill="#E1E6E5"/>
</g>
<mask id="mask25_121_357" style="mask-type:luminance" maskUnits="userSpaceOnUse" x="3" y="437" width="135" height="410">
<path d="M4.31192 846.728L137.065 846.936L135.997 437.272L3.24342 437.065L4.31192 846.728Z" fill="#E1E6E5"/>
</mask>
<g mask="url(#mask25_121_357)">
<path fill-rule="evenodd" clip-rule="evenodd" d="M35.2154 816.991C34.8527 816.666 34.8123 816.101 35.1284 815.729L107.765 730.056C107.937 729.854 108.179 729.75 108.421 729.751C108.624 729.751 108.829 729.823 108.994 729.971C109.357 730.296 109.398 730.861 109.081 731.233L36.4445 816.906C36.1295 817.278 35.5781 817.314 35.2154 816.991Z" fill="#E1E6E5"/>
</g>
<mask id="mask26_121_357" style="mask-type:luminance" maskUnits="userSpaceOnUse" x="3" y="437" width="135" height="410">
<path d="M4.31192 846.728L137.065 846.936L135.997 437.272L3.24342 437.065L4.31192 846.728Z" fill="#E1E6E5"/>
</mask>
<g mask="url(#mask26_121_357)">
<path fill-rule="evenodd" clip-rule="evenodd" d="M95.725 763.64C95.8112 763.531 95.9366 763.475 96.063 763.475C96.1603 763.475 96.2577 763.508 96.3376 763.575C96.5248 763.731 96.5548 764.013 96.4035 764.204L32.9424 844.708C32.7912 844.898 32.514 844.927 32.3297 844.772C32.1416 844.616 32.1126 844.335 32.2629 844.143L95.725 763.64Z" fill="#E1E6E5"/>
</g>
<mask id="mask27_121_357" style="mask-type:luminance" maskUnits="userSpaceOnUse" x="3" y="437" width="135" height="410">
<path d="M4.31192 846.728L137.065 846.936L135.997 437.272L3.24342 437.065L4.31192 846.728Z" fill="#E1E6E5"/>
</mask>
<g mask="url(#mask27_121_357)">
<path fill-rule="evenodd" clip-rule="evenodd" d="M87.9041 798.401C87.9904 798.292 88.1157 798.236 88.2422 798.236C88.3385 798.236 88.4358 798.268 88.5167 798.335C88.7039 798.49 88.7339 798.772 88.5826 798.964L53.0142 844.211C52.863 844.402 52.5897 844.433 52.4015 844.276C52.2143 844.121 52.1844 843.839 52.3356 843.648L87.9041 798.401Z" fill="#E1E6E5"/>
</g>
</g>
</g>
<g opacity="0.427575">
<path d="M8.44728 1.13868C7.3746 1.50722 6.40407 2.62338 6.17932 3.75007C5.74003 5.91922 7.84453 8.08838 9.94904 7.63559C11.5325 7.29864 12.7585 5.63492 12.6052 4.06598C12.4928 2.96034 11.6858 1.82311 10.6642 1.30715C10.041 1.00178 9.08068 0.928079 8.44728 1.13868Z" fill="white"/>
<path d="M21.5239 1.13878C19.9812 1.66527 18.9392 3.41323 19.2559 4.95059C19.5113 6.20364 20.6453 7.37245 21.8508 7.6357C23.8327 8.06742 25.8861 6.14046 25.6818 4.06608C25.5694 2.96045 24.7624 1.82321 23.7407 1.30725C23.1176 1.00189 22.1573 0.928183 21.5239 1.13878Z" fill="white"/>
<path d="M34.6004 1.13892C33.5277 1.50746 32.5571 2.62362 32.3324 3.75032C31.8931 5.91947 33.9976 8.08862 36.1021 7.63584C37.6856 7.29888 38.9115 5.63517 38.7583 4.06622C38.6459 2.96059 37.8388 1.82336 36.8172 1.30739C36.1941 1.00203 35.2338 0.928323 34.6004 1.13892Z" fill="white"/>
<path d="M47.6769 1.13892C46.6042 1.50746 45.6337 2.62362 45.4089 3.75032C44.9696 5.91947 47.0741 8.08862 49.1787 7.63584C50.7621 7.29888 51.9881 5.63517 51.8348 4.06622C51.7225 2.96059 50.9154 1.82336 49.8938 1.30739C49.2706 1.00203 48.3103 0.928323 47.6769 1.13892Z" fill="white"/>
<path d="M60.7534 1.13892C59.6807 1.50746 58.7102 2.62362 58.4855 3.75032C58.0462 5.91947 60.1507 8.08862 62.2552 7.63584C63.8387 7.29888 65.0646 5.63517 64.9114 4.06622C64.799 2.96059 63.9919 1.82336 62.9703 1.30739C62.3471 1.00203 61.3868 0.928323 60.7534 1.13892Z" fill="white"/>
<path d="M73.83 1.13892C72.7573 1.50746 71.7868 2.62362 71.562 3.75032C71.1227 5.91947 73.2272 8.08862 75.3317 7.63584C76.9152 7.29888 78.1412 5.63517 77.9879 4.06622C77.8755 2.96059 77.0685 1.82336 76.0469 1.30739C75.4237 1.00203 74.4634 0.928323 73.83 1.13892Z" fill="white"/>
<path d="M86.9066 1.13892C85.8339 1.50746 84.8634 2.62362 84.6386 3.75032C84.1993 5.91947 86.3038 8.08862 88.4083 7.63584C89.9918 7.29888 91.2178 5.63517 91.0645 4.06622C90.9521 2.96059 90.1451 1.82336 89.1235 1.30739C88.5003 1.00203 87.54 0.928323 86.9066 1.13892Z" fill="white"/>
<path d="M99.9832 1.13892C98.9105 1.50746 97.94 2.62362 97.7152 3.75032C97.2759 5.91947 99.3804 8.08862 101.485 7.63584C103.068 7.29888 104.294 5.63517 104.141 4.06622C104.029 2.96059 103.222 1.82336 102.2 1.30739C101.577 1.00203 100.617 0.928323 99.9832 1.13892Z" fill="white"/>
<path d="M113.06 1.13882C111.987 1.50737 111.016 2.62353 110.792 3.75022C110.536 4.98221 111.119 6.31951 112.242 7.10925C113.335 7.88846 114.582 7.89899 115.685 7.14084C117.493 5.89832 117.739 3.58175 116.227 2.03386C115.358 1.12829 114.112 0.78081 113.06 1.13882Z" fill="white"/>
<path d="M126.136 1.13882C125.064 1.50737 124.093 2.62353 123.868 3.75022C123.613 4.98221 124.195 6.31951 125.319 7.10925C126.412 7.88846 127.658 7.89899 128.762 7.14084C130.57 5.89832 130.815 3.58175 129.303 2.03386C128.435 1.12829 127.188 0.78081 126.136 1.13882Z" fill="white"/>
<path d="M8.44728 14.6169C7.3746 14.9855 6.40407 16.1017 6.17932 17.2284C5.74003 19.3975 7.84453 21.5666 9.94904 21.1139C11.5325 20.7769 12.7585 19.1132 12.6052 17.5442C12.4928 16.4386 11.6858 15.3014 10.6642 14.7854C10.041 14.4801 9.08068 14.4064 8.44728 14.6169Z" fill="white"/>
<path d="M21.5239 14.6171C19.9812 15.1435 18.9392 16.8915 19.2559 18.4289C19.5113 19.6819 20.6453 20.8507 21.8508 21.114C23.8327 21.5457 25.8861 19.6187 25.6818 17.5444C25.5694 16.4387 24.7624 15.3015 23.7407 14.7855C23.1176 14.4802 22.1573 14.4065 21.5239 14.6171Z" fill="white"/>
<path d="M34.6004 14.6169C33.5277 14.9855 32.5571 16.1017 32.3324 17.2284C31.8931 19.3975 33.9976 21.5666 36.1021 21.1139C37.6856 20.7769 38.9115 19.1132 38.7583 17.5442C38.6459 16.4386 37.8388 15.3014 36.8172 14.7854C36.1941 14.4801 35.2338 14.4064 34.6004 14.6169Z" fill="white"/>
<path d="M47.6769 14.6169C46.6042 14.9855 45.6337 16.1017 45.4089 17.2284C44.9696 19.3975 47.0741 21.5666 49.1787 21.1139C50.7621 20.7769 51.9881 19.1132 51.8348 17.5442C51.7225 16.4386 50.9154 15.3014 49.8938 14.7854C49.2706 14.4801 48.3103 14.4064 47.6769 14.6169Z" fill="white"/>
<path d="M60.7534 14.6169C59.6807 14.9855 58.7102 16.1017 58.4855 17.2284C58.0462 19.3975 60.1507 21.5666 62.2552 21.1139C63.8387 20.7769 65.0646 19.1132 64.9114 17.5442C64.799 16.4386 63.9919 15.3014 62.9703 14.7854C62.3471 14.4801 61.3868 14.4064 60.7534 14.6169Z" fill="white"/>
<path d="M73.83 14.6169C72.7573 14.9855 71.7868 16.1017 71.562 17.2284C71.1227 19.3975 73.2272 21.5666 75.3317 21.1139C76.9152 20.7769 78.1412 19.1132 77.9879 17.5442C77.8755 16.4386 77.0685 15.3014 76.0469 14.7854C75.4237 14.4801 74.4634 14.4064 73.83 14.6169Z" fill="white"/>
<path d="M86.9066 14.6169C85.8339 14.9855 84.8634 16.1017 84.6386 17.2284C84.1993 19.3975 86.3038 21.5666 88.4083 21.1139C89.9918 20.7769 91.2178 19.1132 91.0645 17.5442C90.9521 16.4386 90.1451 15.3014 89.1235 14.7854C88.5003 14.4801 87.54 14.4064 86.9066 14.6169Z" fill="white"/>
<path d="M99.9832 14.6169C98.9105 14.9855 97.94 16.1017 97.7152 17.2284C97.2759 19.3975 99.3804 21.5666 101.485 21.1139C103.068 20.7769 104.294 19.1132 104.141 17.5442C104.029 16.4386 103.222 15.3014 102.2 14.7854C101.577 14.4801 100.617 14.4064 99.9832 14.6169Z" fill="white"/>
<path d="M113.06 14.6168C111.987 14.9854 111.016 16.1016 110.792 17.2283C110.536 18.4602 111.119 19.7975 112.242 20.5873C113.335 21.3665 114.582 21.377 115.685 20.6189C117.493 19.3763 117.739 17.0598 116.227 15.5119C115.358 14.6063 114.112 14.2588 113.06 14.6168Z" fill="white"/>
<path d="M126.136 14.6168C125.064 14.9854 124.093 16.1016 123.868 17.2283C123.613 18.4602 124.195 19.7975 125.319 20.5873C126.412 21.3665 127.658 21.377 128.762 20.6189C130.57 19.3763 130.815 17.0598 129.303 15.5119C128.435 14.6063 127.188 14.2588 126.136 14.6168Z" fill="white"/>
<path d="M8.44728 28.0952C7.3746 28.4638 6.40407 29.5799 6.17932 30.7066C5.74003 32.8758 7.84453 35.0449 9.94904 34.5921C11.5325 34.2552 12.7585 32.5915 12.6052 31.0225C12.4928 29.9169 11.6858 28.7797 10.6642 28.2637C10.041 27.9583 9.08068 27.8846 8.44728 28.0952Z" fill="white"/>
<path d="M21.5238 28.0952C20.4511 28.4638 19.4806 29.5799 19.2559 30.7066C18.8166 32.8758 20.9211 35.0449 23.0256 34.5921C24.6091 34.2552 25.835 32.5915 25.6818 31.0225C25.5694 29.9169 24.7623 28.7797 23.7407 28.2637C23.1175 27.9583 22.1572 27.8846 21.5238 28.0952Z" fill="white"/>
<path d="M34.6004 28.0952C33.5277 28.4638 32.5571 29.5799 32.3324 30.7066C31.8931 32.8758 33.9976 35.0449 36.1021 34.5921C37.6856 34.2552 38.9115 32.5915 38.7583 31.0225C38.6459 29.9169 37.8388 28.7797 36.8172 28.2637C36.1941 27.9583 35.2338 27.8846 34.6004 28.0952Z" fill="white"/>
<path d="M47.6769 28.0952C46.6042 28.4638 45.6337 29.5799 45.4089 30.7066C44.9696 32.8758 47.0741 35.0449 49.1787 34.5921C50.7621 34.2552 51.9881 32.5915 51.8348 31.0225C51.7225 29.9169 50.9154 28.7797 49.8938 28.2637C49.2706 27.9583 48.3103 27.8846 47.6769 28.0952Z" fill="white"/>
<path d="M60.7534 28.0952C59.6807 28.4638 58.7102 29.5799 58.4855 30.7066C58.0462 32.8758 60.1507 35.0449 62.2552 34.5921C63.8387 34.2552 65.0646 32.5915 64.9114 31.0225C64.799 29.9169 63.9919 28.7797 62.9703 28.2637C62.3471 27.9583 61.3868 27.8846 60.7534 28.0952Z" fill="white"/>
<path d="M73.83 28.0952C72.7573 28.4638 71.7868 29.5799 71.562 30.7066C71.1227 32.8758 73.2272 35.0449 75.3317 34.5921C76.9152 34.2552 78.1412 32.5915 77.9879 31.0225C77.8755 29.9169 77.0685 28.7797 76.0469 28.2637C75.4237 27.9583 74.4634 27.8846 73.83 28.0952Z" fill="white"/>
<path d="M86.9066 28.0952C85.8339 28.4638 84.8634 29.5799 84.6386 30.7066C84.1993 32.8758 86.3038 35.0449 88.4083 34.5921C89.9918 34.2552 91.2178 32.5915 91.0645 31.0225C90.9521 29.9169 90.1451 28.7797 89.1235 28.2637C88.5003 27.9583 87.54 27.8846 86.9066 28.0952Z" fill="white"/>
<path d="M99.9832 28.0952C98.9105 28.4638 97.94 29.5799 97.7152 30.7066C97.2759 32.8758 99.3804 35.0449 101.485 34.5921C103.068 34.2552 104.294 32.5915 104.141 31.0225C104.029 29.9169 103.222 28.7797 102.2 28.2637C101.577 27.9583 100.617 27.8846 99.9832 28.0952Z" fill="white"/>
<path d="M113.06 28.0952C111.987 28.4638 111.016 29.5799 110.792 30.7066C110.352 32.8758 112.457 35.0449 114.561 34.5921C116.145 34.2552 117.371 32.5915 117.218 31.0225C117.105 29.9169 116.298 28.7797 115.277 28.2637C114.653 27.9583 113.693 27.8846 113.06 28.0952Z" fill="white"/>
<path d="M126.136 28.0952C125.064 28.4638 124.093 29.5799 123.868 30.7066C123.429 32.8758 125.533 35.0449 127.638 34.5921C129.221 34.2552 130.447 32.5915 130.294 31.0225C130.182 29.9169 129.375 28.7797 128.353 28.2637C127.73 27.9583 126.77 27.8846 126.136 28.0952Z" fill="white"/>
<path d="M8.44728 41.5735C7.3746 41.942 6.40407 43.0582 6.17932 44.1849C5.74003 46.354 7.84453 48.5232 9.94904 48.0704C11.5325 47.7335 12.7585 46.0697 12.6052 44.5008C12.4928 43.3952 11.6858 42.2579 10.6642 41.742C10.041 41.4366 9.08068 41.3629 8.44728 41.5735Z" fill="white"/>
<path d="M21.5238 41.5735C20.4511 41.942 19.4806 43.0582 19.2559 44.1849C18.8166 46.354 20.9211 48.5232 23.0256 48.0704C24.6091 47.7335 25.835 46.0697 25.6818 44.5008C25.5694 43.3952 24.7623 42.2579 23.7407 41.742C23.1175 41.4366 22.1572 41.3629 21.5238 41.5735Z" fill="white"/>
<path d="M34.6004 41.5735C33.5277 41.942 32.5571 43.0582 32.3324 44.1849C31.8931 46.354 33.9976 48.5232 36.1021 48.0704C37.6856 47.7335 38.9115 46.0697 38.7583 44.5008C38.6459 43.3952 37.8388 42.2579 36.8172 41.742C36.1941 41.4366 35.2338 41.3629 34.6004 41.5735Z" fill="white"/>
<path d="M47.6769 41.5735C46.6042 41.942 45.6337 43.0582 45.4089 44.1849C44.9696 46.354 47.0741 48.5232 49.1787 48.0704C50.7621 47.7335 51.9881 46.0697 51.8348 44.5008C51.7225 43.3952 50.9154 42.2579 49.8938 41.742C49.2706 41.4366 48.3103 41.3629 47.6769 41.5735Z" fill="white"/>
<path d="M60.7534 41.5735C59.6807 41.942 58.7102 43.0582 58.4855 44.1849C58.0462 46.354 60.1507 48.5232 62.2552 48.0704C63.8387 47.7335 65.0646 46.0697 64.9114 44.5008C64.799 43.3952 63.9919 42.2579 62.9703 41.742C62.3471 41.4366 61.3868 41.3629 60.7534 41.5735Z" fill="white"/>
<path d="M73.83 41.5735C72.7573 41.942 71.7868 43.0582 71.562 44.1849C71.1227 46.354 73.2272 48.5232 75.3317 48.0704C76.9152 47.7335 78.1412 46.0697 77.9879 44.5008C77.8755 43.3952 77.0685 42.2579 76.0469 41.742C75.4237 41.4366 74.4634 41.3629 73.83 41.5735Z" fill="white"/>
<path d="M86.9066 41.5735C85.8339 41.942 84.8634 43.0582 84.6386 44.1849C84.1993 46.354 86.3038 48.5232 88.4083 48.0704C89.9918 47.7335 91.2178 46.0697 91.0645 44.5008C90.9521 43.3952 90.1451 42.2579 89.1235 41.742C88.5003 41.4366 87.54 41.3629 86.9066 41.5735Z" fill="white"/>
<path d="M99.9832 41.5735C98.9105 41.942 97.94 43.0582 97.7152 44.1849C97.2759 46.354 99.3804 48.5232 101.485 48.0704C103.068 47.7335 104.294 46.0697 104.141 44.5008C104.029 43.3952 103.222 42.2579 102.2 41.742C101.577 41.4366 100.617 41.3629 99.9832 41.5735Z" fill="white"/>
<path d="M113.06 41.5735C111.987 41.942 111.016 43.0582 110.792 44.1849C110.352 46.354 112.457 48.5232 114.561 48.0704C116.145 47.7335 117.371 46.0697 117.218 44.5008C117.105 43.3952 116.298 42.2579 115.277 41.742C114.653 41.4366 113.693 41.3629 113.06 41.5735Z" fill="white"/>
<path d="M126.136 41.5735C125.064 41.942 124.093 43.0582 123.868 44.1849C123.429 46.354 125.533 48.5232 127.638 48.0704C129.221 47.7335 130.447 46.0697 130.294 44.5008C130.182 43.3952 129.375 42.2579 128.353 41.742C127.73 41.4366 126.77 41.3629 126.136 41.5735Z" fill="white"/>
<path d="M8.44728 55.0515C7.3746 55.4201 6.40407 56.5362 6.17932 57.6629C5.74003 59.8321 7.84453 62.0012 9.94904 61.5484C11.5325 61.2115 12.7585 59.5478 12.6052 57.9788C12.4928 56.8732 11.6858 55.736 10.6642 55.22C10.041 54.9146 9.08068 54.8409 8.44728 55.0515Z" fill="white"/>
<path d="M21.5238 55.0515C20.4511 55.4201 19.4806 56.5362 19.2559 57.6629C18.8166 59.8321 20.9211 62.0012 23.0256 61.5484C24.6091 61.2115 25.835 59.5478 25.6818 57.9788C25.5694 56.8732 24.7623 55.736 23.7407 55.22C23.1175 54.9146 22.1572 54.8409 21.5238 55.0515Z" fill="white"/>
<path d="M34.6004 55.0515C33.5277 55.4201 32.5571 56.5362 32.3324 57.6629C31.8931 59.8321 33.9976 62.0012 36.1021 61.5484C37.6856 61.2115 38.9115 59.5478 38.7583 57.9788C38.6459 56.8732 37.8388 55.736 36.8172 55.22C36.1941 54.9146 35.2338 54.8409 34.6004 55.0515Z" fill="white"/>
<path d="M47.6769 55.0515C46.6042 55.4201 45.6337 56.5362 45.4089 57.6629C44.9696 59.8321 47.0741 62.0012 49.1787 61.5484C50.7621 61.2115 51.9881 59.5478 51.8348 57.9788C51.7225 56.8732 50.9154 55.736 49.8938 55.22C49.2706 54.9146 48.3103 54.8409 47.6769 55.0515Z" fill="white"/>
<path d="M60.7534 55.0515C59.6807 55.4201 58.7102 56.5362 58.4855 57.6629C58.0462 59.8321 60.1507 62.0012 62.2552 61.5484C63.8387 61.2115 65.0646 59.5478 64.9114 57.9788C64.799 56.8732 63.9919 55.736 62.9703 55.22C62.3471 54.9146 61.3868 54.8409 60.7534 55.0515Z" fill="white"/>
<path d="M73.83 55.0515C72.7573 55.4201 71.7868 56.5362 71.562 57.6629C71.1227 59.8321 73.2272 62.0012 75.3317 61.5484C76.9152 61.2115 78.1412 59.5478 77.9879 57.9788C77.8755 56.8732 77.0685 55.736 76.0469 55.22C75.4237 54.9146 74.4634 54.8409 73.83 55.0515Z" fill="white"/>
<path d="M86.9066 55.0515C85.8339 55.4201 84.8634 56.5362 84.6386 57.6629C84.1993 59.8321 86.3038 62.0012 88.4083 61.5484C89.9918 61.2115 91.2178 59.5478 91.0645 57.9788C90.9521 56.8732 90.1451 55.736 89.1235 55.22C88.5003 54.9146 87.54 54.8409 86.9066 55.0515Z" fill="white"/>
<path d="M99.9832 55.0515C98.9105 55.4201 97.94 56.5362 97.7152 57.6629C97.2759 59.8321 99.3804 62.0012 101.485 61.5484C103.068 61.2115 104.294 59.5478 104.141 57.9788C104.029 56.8732 103.222 55.736 102.2 55.22C101.577 54.9146 100.617 54.8409 99.9832 55.0515Z" fill="white"/>
<path d="M113.06 55.0515C111.987 55.4201 111.016 56.5362 110.792 57.6629C110.352 59.8321 112.457 62.0012 114.561 61.5484C116.145 61.2115 117.371 59.5478 117.218 57.9788C117.105 56.8732 116.298 55.736 115.277 55.22C114.653 54.9146 113.693 54.8409 113.06 55.0515Z" fill="white"/>
<path d="M126.136 55.0515C125.064 55.4201 124.093 56.5362 123.868 57.6629C123.429 59.8321 125.533 62.0012 127.638 61.5484C129.221 61.2115 130.447 59.5478 130.294 57.9788C130.182 56.8732 129.375 55.736 128.353 55.22C127.73 54.9146 126.77 54.8409 126.136 55.0515Z" fill="white"/>
<path d="M8.44728 68.5298C7.3746 68.8983 6.40407 70.0145 6.17932 71.1412C5.74003 73.3103 7.84453 75.4795 9.94904 75.0267C11.5325 74.6898 12.7585 73.026 12.6052 71.4571C12.4928 70.3515 11.6858 69.2142 10.6642 68.6983C10.041 68.3929 9.08068 68.3192 8.44728 68.5298Z" fill="white"/>
<path d="M21.5238 68.5298C20.4511 68.8983 19.4806 70.0145 19.2559 71.1412C18.8166 73.3103 20.9211 75.4795 23.0256 75.0267C24.6091 74.6898 25.835 73.026 25.6818 71.4571C25.5694 70.3515 24.7623 69.2142 23.7407 68.6983C23.1175 68.3929 22.1572 68.3192 21.5238 68.5298Z" fill="white"/>
<path d="M34.6004 68.5298C33.5277 68.8983 32.5571 70.0145 32.3324 71.1412C31.8931 73.3103 33.9976 75.4795 36.1021 75.0267C37.6856 74.6898 38.9115 73.026 38.7583 71.4571C38.6459 70.3515 37.8388 69.2142 36.8172 68.6983C36.1941 68.3929 35.2338 68.3192 34.6004 68.5298Z" fill="white"/>
<path d="M47.6769 68.5298C46.6042 68.8983 45.6337 70.0145 45.4089 71.1412C44.9696 73.3103 47.0741 75.4795 49.1787 75.0267C50.7621 74.6898 51.9881 73.026 51.8348 71.4571C51.7225 70.3515 50.9154 69.2142 49.8938 68.6983C49.2706 68.3929 48.3103 68.3192 47.6769 68.5298Z" fill="white"/>
<path d="M60.7534 68.5298C59.6807 68.8983 58.7102 70.0145 58.4855 71.1412C58.0462 73.3103 60.1507 75.4795 62.2552 75.0267C63.8387 74.6898 65.0646 73.026 64.9114 71.4571C64.799 70.3515 63.9919 69.2142 62.9703 68.6983C62.3471 68.3929 61.3868 68.3192 60.7534 68.5298Z" fill="white"/>
<path d="M73.83 68.5298C72.7573 68.8983 71.7868 70.0145 71.562 71.1412C71.1227 73.3103 73.2272 75.4795 75.3317 75.0267C76.9152 74.6898 78.1412 73.026 77.9879 71.4571C77.8755 70.3515 77.0685 69.2142 76.0469 68.6983C75.4237 68.3929 74.4634 68.3192 73.83 68.5298Z" fill="white"/>
<path d="M86.9066 68.5298C85.8339 68.8983 84.8634 70.0145 84.6386 71.1412C84.1993 73.3103 86.3038 75.4795 88.4083 75.0267C89.9918 74.6898 91.2178 73.026 91.0645 71.4571C90.9521 70.3515 90.1451 69.2142 89.1235 68.6983C88.5003 68.3929 87.54 68.3192 86.9066 68.5298Z" fill="white"/>
<path d="M99.9832 68.5298C98.9105 68.8983 97.94 70.0145 97.7152 71.1412C97.2759 73.3103 99.3804 75.4795 101.485 75.0267C103.068 74.6898 104.294 73.026 104.141 71.4571C104.029 70.3515 103.222 69.2142 102.2 68.6983C101.577 68.3929 100.617 68.3192 99.9832 68.5298Z" fill="white"/>
<path d="M113.06 68.5298C111.987 68.8983 111.016 70.0145 110.792 71.1412C110.352 73.3103 112.457 75.4795 114.561 75.0267C116.145 74.6898 117.371 73.026 117.218 71.4571C117.105 70.3515 116.298 69.2142 115.277 68.6983C114.653 68.3929 113.693 68.3192 113.06 68.5298Z" fill="white"/>
<path d="M126.136 68.5298C125.064 68.8983 124.093 70.0145 123.868 71.1412C123.429 73.3103 125.533 75.4795 127.638 75.0267C129.221 74.6898 130.447 73.026 130.294 71.4571C130.182 70.3515 129.375 69.2142 128.353 68.6983C127.73 68.3929 126.77 68.3192 126.136 68.5298Z" fill="white"/>
<path d="M8.44728 82.0081C7.3746 82.3766 6.40407 83.4928 6.17932 84.6195C5.74003 86.7886 7.84453 88.9578 9.94904 88.505C11.5325 88.168 12.7585 86.5043 12.6052 84.9354C12.4928 83.8297 11.6858 82.6925 10.6642 82.1765C10.041 81.8712 9.08068 81.7975 8.44728 82.0081Z" fill="white"/>
<path d="M21.5238 82.0081C20.4511 82.3766 19.4806 83.4928 19.2559 84.6195C18.8166 86.7886 20.9211 88.9578 23.0256 88.505C24.6091 88.168 25.835 86.5043 25.6818 84.9354C25.5694 83.8297 24.7623 82.6925 23.7407 82.1765C23.1175 81.8712 22.1572 81.7975 21.5238 82.0081Z" fill="white"/>
<path d="M34.6003 82.008C33.5277 82.3765 32.5571 83.4927 32.3324 84.6194C32.077 85.8514 32.6593 87.1886 33.7831 87.9784C34.8762 88.7576 36.1225 88.7681 37.2259 88.01C39.0341 86.7675 39.2793 84.4509 37.7673 82.903C36.899 81.9974 35.6526 81.6499 34.6003 82.008Z" fill="white"/>
<path d="M47.6769 82.008C46.6043 82.3765 45.6337 83.4927 45.409 84.6194C45.1536 85.8514 45.7359 87.1886 46.8597 87.9784C47.9528 88.7576 49.1991 88.7681 50.3025 88.01C52.1107 86.7675 52.3559 84.4509 50.8439 82.903C49.9756 81.9974 48.7292 81.6499 47.6769 82.008Z" fill="white"/>
<path d="M60.7534 82.0079C59.2108 82.5344 58.1688 84.2824 58.4855 85.8197C58.7409 87.0728 59.8748 88.2416 61.0905 88.5048C63.0622 88.9366 65.1157 87.0096 64.9114 84.9352C64.799 83.8296 63.9919 82.6924 62.9703 82.1764C62.3471 81.871 61.3868 81.7973 60.7534 82.0079Z" fill="white"/>
<path d="M73.83 82.0079C72.2874 82.5344 71.2454 84.2824 71.5621 85.8197C71.8175 87.0728 72.9514 88.2416 74.1672 88.5048C76.1388 88.9366 78.1923 87.0096 77.988 84.9352C77.8756 83.8296 77.0685 82.6924 76.0469 82.1764C75.4237 81.871 74.4634 81.7973 73.83 82.0079Z" fill="white"/>
<path d="M86.9066 82.0079C85.364 82.5344 84.322 84.2824 84.6387 85.8197C84.8941 87.0728 86.028 88.2416 87.2437 88.5048C89.2154 88.9366 91.2689 87.0096 91.0646 84.9352C90.9522 83.8296 90.1451 82.6924 89.1235 82.1764C88.5003 81.871 87.54 81.7973 86.9066 82.0079Z" fill="white"/>
<path d="M99.9831 82.0079C98.4405 82.5344 97.3984 84.2824 97.7151 85.8197C97.9705 87.0728 99.1045 88.2416 100.32 88.5048C102.292 88.9366 104.345 87.0096 104.141 84.9352C104.029 83.8296 103.222 82.6924 102.2 82.1764C101.577 81.871 100.616 81.7973 99.9831 82.0079Z" fill="white"/>
<path d="M113.06 82.0081C111.987 82.3766 111.016 83.4928 110.792 84.6195C110.352 86.7886 112.457 88.9578 114.561 88.505C116.145 88.168 117.371 86.5043 117.218 84.9354C117.105 83.8297 116.298 82.6925 115.277 82.1765C114.653 81.8712 113.693 81.7975 113.06 82.0081Z" fill="white"/>
<path d="M126.136 82.0081C125.064 82.3766 124.093 83.4928 123.868 84.6195C123.429 86.7886 125.533 88.9578 127.638 88.505C129.221 88.168 130.447 86.5043 130.294 84.9354C130.182 83.8297 129.375 82.6925 128.353 82.1765C127.73 81.8712 126.77 81.7975 126.136 82.0081Z" fill="white"/>
<path d="M8.44728 95.4863C7.3746 95.8549 6.40407 96.971 6.17932 98.0977C5.74003 100.267 7.84453 102.436 9.94904 101.983C11.5325 101.646 12.7585 99.9826 12.6052 98.4136C12.4928 97.308 11.6858 96.1708 10.6642 95.6548C10.041 95.3494 9.08068 95.2757 8.44728 95.4863Z" fill="white"/>
<path d="M21.5238 95.4861C20.4511 95.8546 19.4806 96.9708 19.2559 98.0975C18.8166 100.267 20.9211 102.436 23.0256 101.983C24.6091 101.646 25.835 99.9823 25.6818 98.4134C25.5694 97.3078 24.7623 96.1705 23.7407 95.6546C23.1175 95.3492 22.1572 95.2755 21.5238 95.4861Z" fill="white"/>
<path d="M34.6003 95.4862C33.5277 95.8548 32.5571 96.9709 32.3324 98.0976C32.077 99.3296 32.6593 100.667 33.7831 101.457C34.8762 102.236 36.1225 102.246 37.2259 101.488C39.0341 100.246 39.2793 97.9292 37.7673 96.3813C36.899 95.4757 35.6526 95.1282 34.6003 95.4862Z" fill="white"/>
<path d="M47.6769 95.4862C46.6043 95.8548 45.6337 96.9709 45.409 98.0976C45.1536 99.3296 45.7359 100.667 46.8597 101.457C47.9528 102.236 49.1991 102.246 50.3025 101.488C52.1107 100.246 52.3559 97.9292 50.8439 96.3813C49.9756 95.4757 48.7292 95.1282 47.6769 95.4862Z" fill="white"/>
<path d="M60.7534 95.4862C59.2108 96.0127 58.1688 97.7606 58.4855 99.298C58.7409 100.551 59.8748 101.72 61.0905 101.983C63.0622 102.415 65.1157 100.488 64.9114 98.4135C64.799 97.3079 63.9919 96.1706 62.9703 95.6547C62.3471 95.3493 61.3868 95.2756 60.7534 95.4862Z" fill="white"/>
<path d="M73.83 95.4862C72.2874 96.0127 71.2454 97.7606 71.5621 99.298C71.8175 100.551 72.9514 101.72 74.1672 101.983C76.1388 102.415 78.1923 100.488 77.988 98.4135C77.8756 97.3079 77.0685 96.1706 76.0469 95.6547C75.4237 95.3493 74.4634 95.2756 73.83 95.4862Z" fill="white"/>
<path d="M86.9066 95.4862C85.364 96.0127 84.322 97.7606 84.6387 99.298C84.8941 100.551 86.028 101.72 87.2437 101.983C89.2154 102.415 91.2689 100.488 91.0646 98.4135C90.9522 97.3079 90.1451 96.1706 89.1235 95.6547C88.5003 95.3493 87.54 95.2756 86.9066 95.4862Z" fill="white"/>
<path d="M99.9831 95.4862C98.4405 96.0127 97.3984 97.7606 97.7151 99.298C97.9705 100.551 99.1045 101.72 100.32 101.983C102.292 102.415 104.345 100.488 104.141 98.4135C104.029 97.3079 103.222 96.1706 102.2 95.6547C101.577 95.3493 100.616 95.2756 99.9831 95.4862Z" fill="white"/>
<path d="M113.06 95.4861C111.987 95.8546 111.016 96.9708 110.792 98.0975C110.352 100.267 112.457 102.436 114.561 101.983C116.145 101.646 117.371 99.9823 117.218 98.4134C117.105 97.3078 116.298 96.1705 115.277 95.6546C114.653 95.3492 113.693 95.2755 113.06 95.4861Z" fill="white"/>
<path d="M126.136 95.4861C125.064 95.8546 124.093 96.9708 123.868 98.0975C123.429 100.267 125.533 102.436 127.638 101.983C129.221 101.646 130.447 99.9823 130.294 98.4134C130.182 97.3078 129.375 96.1705 128.353 95.6546C127.73 95.3492 126.77 95.2755 126.136 95.4861Z" fill="white"/>
<path d="M8.44728 108.964C7.3746 109.333 6.40407 110.449 6.17932 111.576C5.74003 113.745 7.84453 115.914 9.94904 115.461C11.5325 115.124 12.7585 113.461 12.6052 111.892C12.4928 110.786 11.6858 109.649 10.6642 109.133C10.041 108.827 9.08068 108.754 8.44728 108.964Z" fill="white"/>
<path d="M21.5238 108.965C20.4511 109.333 19.4806 110.449 19.2559 111.576C18.8166 113.745 20.9211 115.914 23.0256 115.462C24.6091 115.125 25.835 113.461 25.6818 111.892C25.5694 110.786 24.7623 109.649 23.7407 109.133C23.1175 108.828 22.1572 108.754 21.5238 108.965Z" fill="white"/>
<path d="M34.6003 108.965C33.5277 109.333 32.5571 110.449 32.3324 111.576C32.077 112.808 32.6593 114.145 33.7831 114.935C34.8762 115.714 36.1225 115.725 37.2259 114.967C39.0341 113.724 39.2793 111.407 37.7673 109.86C36.899 108.954 35.6526 108.606 34.6003 108.965Z" fill="white"/>
<path d="M47.6769 108.965C46.6043 109.333 45.6337 110.449 45.409 111.576C45.1536 112.808 45.7359 114.145 46.8597 114.935C47.9528 115.714 49.1991 115.725 50.3025 114.967C52.1107 113.724 52.3559 111.407 50.8439 109.86C49.9756 108.954 48.7292 108.606 47.6769 108.965Z" fill="white"/>
<path d="M60.7534 108.965C59.6807 109.333 58.7102 110.449 58.4855 111.576C58.0462 113.745 60.1507 115.914 62.2552 115.462C63.8387 115.125 65.0646 113.461 64.9114 111.892C64.799 110.786 63.9919 109.649 62.9703 109.133C62.3471 108.828 61.3868 108.754 60.7534 108.965Z" fill="white"/>
<path d="M73.83 108.965C72.7573 109.333 71.7868 110.449 71.562 111.576C71.1227 113.745 73.2272 115.914 75.3317 115.462C76.9152 115.125 78.1412 113.461 77.9879 111.892C77.8755 110.786 77.0685 109.649 76.0469 109.133C75.4237 108.828 74.4634 108.754 73.83 108.965Z" fill="white"/>
<path d="M86.9066 108.965C85.8339 109.333 84.8634 110.449 84.6386 111.576C84.1993 113.745 86.3038 115.914 88.4083 115.462C89.9918 115.125 91.2178 113.461 91.0645 111.892C90.9521 110.786 90.1451 109.649 89.1235 109.133C88.5003 108.828 87.54 108.754 86.9066 108.965Z" fill="white"/>
<path d="M99.9832 108.965C98.9105 109.333 97.94 110.449 97.7152 111.576C97.2759 113.745 99.3804 115.914 101.485 115.462C103.068 115.125 104.294 113.461 104.141 111.892C104.029 110.786 103.222 109.649 102.2 109.133C101.577 108.828 100.617 108.754 99.9832 108.965Z" fill="white"/>
<path d="M113.06 108.965C111.987 109.333 111.016 110.449 110.792 111.576C110.352 113.745 112.457 115.914 114.561 115.462C116.145 115.125 117.371 113.461 117.218 111.892C117.105 110.786 116.298 109.649 115.277 109.133C114.653 108.828 113.693 108.754 113.06 108.965Z" fill="white"/>
<path d="M126.136 108.965C125.064 109.333 124.093 110.449 123.868 111.576C123.429 113.745 125.533 115.914 127.638 115.462C129.221 115.125 130.447 113.461 130.294 111.892C130.182 110.786 129.375 109.649 128.353 109.133C127.73 108.828 126.77 108.754 126.136 108.965Z" fill="white"/>
<path d="M8.44728 122.443C7.3746 122.811 6.40407 123.927 6.17932 125.054C5.74003 127.223 7.84453 129.392 9.94904 128.94C11.5325 128.603 12.7585 126.939 12.6052 125.37C12.4928 124.264 11.6858 123.127 10.6642 122.611C10.041 122.306 9.08068 122.232 8.44728 122.443Z" fill="white"/>
<path d="M21.5238 122.443C20.4511 122.811 19.4806 123.927 19.2559 125.054C18.8166 127.223 20.9211 129.392 23.0256 128.94C24.6091 128.603 25.835 126.939 25.6818 125.37C25.5694 124.264 24.7623 123.127 23.7407 122.611C23.1175 122.306 22.1572 122.232 21.5238 122.443Z" fill="white"/>
<path d="M34.6004 122.443C33.5277 122.811 32.5571 123.927 32.3324 125.054C31.8931 127.223 33.9976 129.392 36.1021 128.94C37.6856 128.603 38.9115 126.939 38.7583 125.37C38.6459 124.264 37.8388 123.127 36.8172 122.611C36.1941 122.306 35.2338 122.232 34.6004 122.443Z" fill="white"/>
<path d="M47.6769 122.443C46.6042 122.811 45.6337 123.927 45.4089 125.054C44.9696 127.223 47.0741 129.392 49.1787 128.94C50.7621 128.603 51.9881 126.939 51.8348 125.37C51.7225 124.264 50.9154 123.127 49.8938 122.611C49.2706 122.306 48.3103 122.232 47.6769 122.443Z" fill="white"/>
<path d="M60.7534 122.443C59.6807 122.811 58.7102 123.927 58.4855 125.054C58.0462 127.223 60.1507 129.392 62.2552 128.94C63.8387 128.603 65.0646 126.939 64.9114 125.37C64.799 124.264 63.9919 123.127 62.9703 122.611C62.3471 122.306 61.3868 122.232 60.7534 122.443Z" fill="white"/>
<path d="M73.83 122.443C72.7573 122.811 71.7868 123.927 71.562 125.054C71.1227 127.223 73.2272 129.392 75.3317 128.94C76.9152 128.603 78.1412 126.939 77.9879 125.37C77.8755 124.264 77.0685 123.127 76.0469 122.611C75.4237 122.306 74.4634 122.232 73.83 122.443Z" fill="white"/>
<path d="M86.9066 122.443C85.8339 122.811 84.8634 123.927 84.6386 125.054C84.1993 127.223 86.3038 129.392 88.4083 128.94C89.9918 128.603 91.2178 126.939 91.0645 125.37C90.9521 124.264 90.1451 123.127 89.1235 122.611C88.5003 122.306 87.54 122.232 86.9066 122.443Z" fill="white"/>
<path d="M99.9832 122.443C98.9105 122.811 97.94 123.927 97.7152 125.054C97.2759 127.223 99.3804 129.392 101.485 128.94C103.068 128.603 104.294 126.939 104.141 125.37C104.029 124.264 103.222 123.127 102.2 122.611C101.577 122.306 100.617 122.232 99.9832 122.443Z" fill="white"/>
<path d="M113.06 122.443C111.987 122.811 111.016 123.927 110.792 125.054C110.352 127.223 112.457 129.392 114.561 128.94C116.145 128.603 117.371 126.939 117.218 125.37C117.105 124.264 116.298 123.127 115.277 122.611C114.653 122.306 113.693 122.232 113.06 122.443Z" fill="white"/>
<path d="M126.136 122.443C125.064 122.811 124.093 123.927 123.868 125.054C123.429 127.223 125.533 129.392 127.638 128.94C129.221 128.603 130.447 126.939 130.294 125.37C130.182 124.264 129.375 123.127 128.353 122.611C127.73 122.306 126.77 122.232 126.136 122.443Z" fill="white"/>
</g>
<defs>
<clipPath id="clip0_121_357">
<rect width="136" height="410" fill="white" transform="translate(1288)"/>
</clipPath>
<clipPath id="clip1_121_357">
<rect width="131.95" height="409.995" fill="white" transform="matrix(-0.999764 0.0217387 -0.0204632 -0.999791 140.309 845.52)"/>
</clipPath>
</defs>
</svg>
