<svg width="697" height="622" viewBox="0 0 697 622" fill="none" xmlns="http://www.w3.org/2000/svg">
<g clip-path="url(#clip0_1_3)">
<g opacity="0.427575">
<path d="M13.0582 0.674345C7.03771 2.46524 1.59061 7.88911 0.329174 13.3641C-2.13636 23.9048 9.67525 34.4456 21.4869 32.2453C30.3742 30.6079 37.2548 22.5233 36.3947 14.8992C35.764 9.5265 31.2343 4.0003 25.5005 1.49305C22.0029 0.00916212 16.6131 -0.349024 13.0582 0.674345Z" fill="#E1E6E5"/>
<path d="M86.4507 0.67434C77.7927 3.23276 71.9442 11.7267 73.7217 19.1973C75.1551 25.2864 81.5196 30.9661 88.2855 32.2453C99.4091 34.3432 110.934 24.9794 109.787 14.8992C109.157 9.5265 104.627 4.0003 98.893 1.49304C95.3954 0.00915673 90.0057 -0.34903 86.4507 0.67434Z" fill="#E1E6E5"/>
<path d="M159.843 0.674345C153.823 2.46524 148.376 7.88911 147.114 13.3641C144.649 23.9048 156.46 34.4456 168.272 32.2453C177.159 30.6079 184.04 22.5233 183.18 14.8992C182.549 9.5265 178.019 4.0003 172.286 1.49305C168.788 0.00916212 163.398 -0.349024 159.843 0.674345Z" fill="#E1E6E5"/>
<path d="M233.236 0.674345C227.215 2.46524 221.768 7.88911 220.507 13.3641C218.041 23.9048 229.853 34.4456 241.664 32.2453C250.552 30.6079 257.432 22.5233 256.572 14.8992C255.942 9.5265 251.412 4.0003 245.678 1.49305C242.18 0.00916212 236.791 -0.349024 233.236 0.674345Z" fill="#E1E6E5"/>
<path d="M306.628 0.674345C300.608 2.46524 295.161 7.88911 293.899 13.3641C291.434 23.9048 303.245 34.4456 315.057 32.2453C323.944 30.6079 330.825 22.5233 329.965 14.8992C329.334 9.5265 324.804 4.0003 319.071 1.49305C315.573 0.00916212 310.183 -0.349024 306.628 0.674345Z" fill="#E1E6E5"/>
<path d="M380.021 0.674345C374 2.46524 368.553 7.88911 367.292 13.3641C364.826 23.9048 376.638 34.4456 388.449 32.2453C397.337 30.6079 404.217 22.5233 403.357 14.8992C402.727 9.5265 398.197 4.0003 392.463 1.49305C388.965 0.00916212 383.576 -0.349024 380.021 0.674345Z" fill="#E1E6E5"/>
<path d="M453.413 0.674345C447.393 2.46524 441.946 7.88911 440.684 13.3641C438.219 23.9048 450.03 34.4456 461.842 32.2453C470.729 30.6079 477.61 22.5233 476.75 14.8992C476.119 9.5265 471.589 4.0003 465.856 1.49305C462.358 0.00916212 456.968 -0.349024 453.413 0.674345Z" fill="#E1E6E5"/>
<path d="M526.806 0.674345C520.785 2.46524 515.338 7.88911 514.077 13.3641C511.611 23.9048 523.423 34.4456 535.234 32.2453C544.122 30.6079 551.002 22.5233 550.142 14.8992C549.512 9.5265 544.982 4.0003 539.248 1.49305C535.75 0.00916212 530.361 -0.349024 526.806 0.674345Z" fill="#E1E6E5"/>
<path d="M600.198 0.674328C594.178 2.46522 588.731 7.88909 587.469 13.3641C586.036 19.3508 589.304 25.8492 595.611 29.6868C601.746 33.4733 608.742 33.5245 614.934 29.8404C625.083 23.8025 626.459 12.5454 617.973 5.02367C613.099 0.623181 606.104 -1.0654 600.198 0.674328Z" fill="#E1E6E5"/>
<path d="M673.591 0.674328C667.57 2.46522 662.123 7.88909 660.862 13.3641C659.428 19.3508 662.697 25.8492 669.004 29.6868C675.139 33.4733 682.134 33.5245 688.327 29.8404C698.475 23.8025 699.852 12.5454 691.366 5.02367C686.492 0.623181 679.497 -1.0654 673.591 0.674328Z" fill="#E1E6E5"/>
<path d="M13.0582 66.17C7.03771 67.9608 1.59061 73.3847 0.329174 78.8597C-2.13636 89.4005 9.67525 99.9412 21.4869 97.7409C30.3742 96.1035 37.2548 88.0189 36.3947 80.3948C35.764 75.0221 31.2343 69.4959 25.5005 66.9887C22.0029 65.5048 16.6131 65.1466 13.0582 66.17Z" fill="#E1E6E5"/>
<path d="M86.4507 66.1699C77.7927 68.7284 71.9442 77.2223 73.7217 84.6929C75.1551 90.782 81.5196 96.4617 88.2855 97.7409C99.4091 99.8388 110.934 90.475 109.787 80.3948C109.157 75.0221 104.627 69.4959 98.893 66.9886C95.3954 65.5048 90.0057 65.1466 86.4507 66.1699Z" fill="#E1E6E5"/>
<path d="M159.843 66.17C153.823 67.9608 148.376 73.3847 147.114 78.8597C144.649 89.4005 156.46 99.9412 168.272 97.7409C177.159 96.1035 184.04 88.0189 183.18 80.3948C182.549 75.0221 178.019 69.4959 172.286 66.9887C168.788 65.5048 163.398 65.1466 159.843 66.17Z" fill="#E1E6E5"/>
<path d="M233.236 66.17C227.215 67.9608 221.768 73.3847 220.507 78.8597C218.041 89.4005 229.853 99.9412 241.664 97.7409C250.552 96.1035 257.432 88.0189 256.572 80.3948C255.942 75.0221 251.412 69.4959 245.678 66.9887C242.18 65.5048 236.791 65.1466 233.236 66.17Z" fill="#E1E6E5"/>
<path d="M306.628 66.17C300.608 67.9608 295.161 73.3847 293.899 78.8597C291.434 89.4005 303.245 99.9412 315.057 97.7409C323.944 96.1035 330.825 88.0189 329.965 80.3948C329.334 75.0221 324.804 69.4959 319.071 66.9887C315.573 65.5048 310.183 65.1466 306.628 66.17Z" fill="#E1E6E5"/>
<path d="M380.021 66.17C374 67.9608 368.553 73.3847 367.292 78.8597C364.826 89.4005 376.638 99.9412 388.449 97.7409C397.337 96.1035 404.217 88.0189 403.357 80.3948C402.727 75.0221 398.197 69.4959 392.463 66.9887C388.965 65.5048 383.576 65.1466 380.021 66.17Z" fill="#E1E6E5"/>
<path d="M453.413 66.17C447.393 67.9608 441.946 73.3847 440.684 78.8597C438.219 89.4005 450.03 99.9412 461.842 97.7409C470.729 96.1035 477.61 88.0189 476.75 80.3948C476.119 75.0221 471.589 69.4959 465.856 66.9887C462.358 65.5048 456.968 65.1466 453.413 66.17Z" fill="#E1E6E5"/>
<path d="M526.806 66.17C520.785 67.9608 515.338 73.3847 514.077 78.8597C511.611 89.4005 523.423 99.9412 535.234 97.7409C544.122 96.1035 551.002 88.0189 550.142 80.3948C549.512 75.0221 544.982 69.4959 539.248 66.9887C535.75 65.5048 530.361 65.1466 526.806 66.17Z" fill="#E1E6E5"/>
<path d="M600.198 66.17C594.178 67.9609 588.731 73.3847 587.469 78.8598C586.036 84.8465 589.304 91.3449 595.611 95.1825C601.746 98.969 608.742 99.0202 614.934 95.336C625.083 89.2981 626.459 78.0411 617.973 70.5193C613.099 66.1188 606.104 64.4302 600.198 66.17Z" fill="#E1E6E5"/>
<path d="M673.591 66.17C667.57 67.9609 662.123 73.3847 660.862 78.8598C659.428 84.8465 662.697 91.3449 669.004 95.1825C675.139 98.969 682.134 99.0202 688.327 95.336C698.475 89.2981 699.852 78.0411 691.366 70.5193C686.492 66.1188 679.497 64.4302 673.591 66.17Z" fill="#E1E6E5"/>
<path d="M13.0582 131.666C7.03771 133.457 1.59061 138.88 0.329174 144.355C-2.13636 154.896 9.67525 165.437 21.4869 163.237C30.3742 161.599 37.2548 153.515 36.3947 145.89C35.764 140.518 31.2343 134.992 25.5005 132.484C22.0029 131 16.6131 130.642 13.0582 131.666Z" fill="#E1E6E5"/>
<path d="M86.4507 131.666C80.4302 133.457 74.9831 138.88 73.7217 144.355C71.2562 154.896 83.0678 165.437 94.8794 163.237C103.767 161.599 110.647 153.515 109.787 145.89C109.157 140.518 104.627 134.992 98.893 132.484C95.3954 131 90.0056 130.642 86.4507 131.666Z" fill="#E1E6E5"/>
<path d="M159.843 131.666C153.823 133.457 148.376 138.88 147.114 144.355C144.649 154.896 156.46 165.437 168.272 163.237C177.159 161.599 184.04 153.515 183.18 145.89C182.549 140.518 178.019 134.992 172.286 132.484C168.788 131 163.398 130.642 159.843 131.666Z" fill="#E1E6E5"/>
<path d="M233.236 131.666C227.215 133.457 221.768 138.88 220.507 144.355C218.041 154.896 229.853 165.437 241.664 163.237C250.552 161.599 257.432 153.515 256.572 145.89C255.942 140.518 251.412 134.992 245.678 132.484C242.18 131 236.791 130.642 233.236 131.666Z" fill="#E1E6E5"/>
<path d="M306.628 131.666C300.608 133.457 295.161 138.88 293.899 144.355C291.434 154.896 303.245 165.437 315.057 163.237C323.944 161.599 330.825 153.515 329.965 145.89C329.334 140.518 324.804 134.992 319.071 132.484C315.573 131 310.183 130.642 306.628 131.666Z" fill="#E1E6E5"/>
<path d="M380.021 131.666C374 133.457 368.553 138.88 367.292 144.355C364.826 154.896 376.638 165.437 388.449 163.237C397.337 161.599 404.217 153.515 403.357 145.89C402.727 140.518 398.197 134.992 392.463 132.484C388.965 131 383.576 130.642 380.021 131.666Z" fill="#E1E6E5"/>
<path d="M453.413 131.666C447.393 133.457 441.946 138.88 440.684 144.355C438.219 154.896 450.03 165.437 461.842 163.237C470.729 161.599 477.61 153.515 476.75 145.89C476.119 140.518 471.589 134.992 465.856 132.484C462.358 131 456.968 130.642 453.413 131.666Z" fill="#E1E6E5"/>
<path d="M526.806 131.666C520.785 133.457 515.338 138.88 514.077 144.355C511.611 154.896 523.423 165.437 535.234 163.237C544.122 161.599 551.002 153.515 550.142 145.89C549.512 140.518 544.982 134.992 539.248 132.484C535.75 131 530.361 130.642 526.806 131.666Z" fill="#E1E6E5"/>
<path d="M600.198 131.666C594.178 133.457 588.731 138.88 587.469 144.355C585.004 154.896 596.815 165.437 608.627 163.237C617.514 161.599 624.395 153.515 623.535 145.89C622.904 140.518 618.374 134.992 612.641 132.484C609.143 131 603.753 130.642 600.198 131.666Z" fill="#E1E6E5"/>
<path d="M673.591 131.666C667.57 133.457 662.123 138.88 660.862 144.355C658.396 154.896 670.208 165.437 682.019 163.237C690.907 161.599 697.787 153.515 696.927 145.89C696.297 140.518 691.767 134.992 686.033 132.484C682.535 131 677.146 130.642 673.591 131.666Z" fill="#E1E6E5"/>
<path d="M13.0582 197.161C7.03771 198.952 1.59061 204.376 0.329174 209.851C-2.13636 220.392 9.67525 230.933 21.4869 228.732C30.3742 227.095 37.2548 219.01 36.3947 211.386C35.764 206.013 31.2343 200.487 25.5005 197.98C22.0029 196.496 16.6131 196.138 13.0582 197.161Z" fill="#E1E6E5"/>
<path d="M86.4507 197.161C80.4302 198.952 74.9831 204.376 73.7217 209.851C71.2562 220.392 83.0678 230.933 94.8794 228.732C103.767 227.095 110.647 219.01 109.787 211.386C109.157 206.013 104.627 200.487 98.893 197.98C95.3954 196.496 90.0056 196.138 86.4507 197.161Z" fill="#E1E6E5"/>
<path d="M159.843 197.161C153.823 198.952 148.376 204.376 147.114 209.851C144.649 220.392 156.46 230.933 168.272 228.732C177.159 227.095 184.04 219.01 183.18 211.386C182.549 206.013 178.019 200.487 172.286 197.98C168.788 196.496 163.398 196.138 159.843 197.161Z" fill="#E1E6E5"/>
<path d="M233.236 197.161C227.215 198.952 221.768 204.376 220.507 209.851C218.041 220.392 229.853 230.933 241.664 228.732C250.552 227.095 257.432 219.01 256.572 211.386C255.942 206.013 251.412 200.487 245.678 197.98C242.18 196.496 236.791 196.138 233.236 197.161Z" fill="#E1E6E5"/>
<path d="M306.628 197.161C300.608 198.952 295.161 204.376 293.899 209.851C291.434 220.392 303.245 230.933 315.057 228.732C323.944 227.095 330.825 219.01 329.965 211.386C329.334 206.013 324.804 200.487 319.071 197.98C315.573 196.496 310.183 196.138 306.628 197.161Z" fill="#E1E6E5"/>
<path d="M380.021 197.161C374 198.952 368.553 204.376 367.292 209.851C364.826 220.392 376.638 230.933 388.449 228.732C397.337 227.095 404.217 219.01 403.357 211.386C402.727 206.013 398.197 200.487 392.463 197.98C388.965 196.496 383.576 196.138 380.021 197.161Z" fill="#E1E6E5"/>
<path d="M453.413 197.161C447.393 198.952 441.946 204.376 440.684 209.851C438.219 220.392 450.03 230.933 461.842 228.732C470.729 227.095 477.61 219.01 476.75 211.386C476.119 206.013 471.589 200.487 465.856 197.98C462.358 196.496 456.968 196.138 453.413 197.161Z" fill="#E1E6E5"/>
<path d="M526.806 197.161C520.785 198.952 515.338 204.376 514.077 209.851C511.611 220.392 523.423 230.933 535.234 228.732C544.122 227.095 551.002 219.01 550.142 211.386C549.512 206.013 544.982 200.487 539.248 197.98C535.75 196.496 530.361 196.138 526.806 197.161Z" fill="#E1E6E5"/>
<path d="M600.198 197.161C594.178 198.952 588.731 204.376 587.469 209.851C585.004 220.392 596.815 230.933 608.627 228.732C617.514 227.095 624.395 219.01 623.535 211.386C622.904 206.013 618.374 200.487 612.641 197.98C609.143 196.496 603.753 196.138 600.198 197.161Z" fill="#E1E6E5"/>
<path d="M673.591 197.161C667.57 198.952 662.123 204.376 660.862 209.851C658.396 220.392 670.208 230.933 682.019 228.732C690.907 227.095 697.787 219.01 696.927 211.386C696.297 206.013 691.767 200.487 686.033 197.98C682.535 196.496 677.146 196.138 673.591 197.161Z" fill="#E1E6E5"/>
<path d="M13.0582 262.657C7.03771 264.448 1.59061 269.872 0.329174 275.347C-2.13636 285.887 9.67525 296.428 21.4869 294.228C30.3742 292.591 37.2548 284.506 36.3947 276.882C35.764 271.509 31.2343 265.983 25.5005 263.476C22.0029 261.992 16.6131 261.634 13.0582 262.657Z" fill="#E1E6E5"/>
<path d="M86.4507 262.657C80.4302 264.448 74.9831 269.872 73.7217 275.347C71.2562 285.887 83.0678 296.428 94.8794 294.228C103.767 292.591 110.647 284.506 109.787 276.882C109.157 271.509 104.627 265.983 98.893 263.476C95.3954 261.992 90.0056 261.634 86.4507 262.657Z" fill="#E1E6E5"/>
<path d="M159.843 262.657C153.823 264.448 148.376 269.872 147.114 275.347C144.649 285.887 156.46 296.428 168.272 294.228C177.159 292.591 184.04 284.506 183.18 276.882C182.549 271.509 178.019 265.983 172.286 263.476C168.788 261.992 163.398 261.634 159.843 262.657Z" fill="#E1E6E5"/>
<path d="M233.236 262.657C227.215 264.448 221.768 269.872 220.507 275.347C218.041 285.887 229.853 296.428 241.664 294.228C250.552 292.591 257.432 284.506 256.572 276.882C255.942 271.509 251.412 265.983 245.678 263.476C242.18 261.992 236.791 261.634 233.236 262.657Z" fill="#E1E6E5"/>
<path d="M306.628 262.657C300.608 264.448 295.161 269.872 293.899 275.347C291.434 285.887 303.245 296.428 315.057 294.228C323.944 292.591 330.825 284.506 329.965 276.882C329.334 271.509 324.804 265.983 319.071 263.476C315.573 261.992 310.183 261.634 306.628 262.657Z" fill="#E1E6E5"/>
<path d="M380.021 262.657C374 264.448 368.553 269.872 367.292 275.347C364.826 285.887 376.638 296.428 388.449 294.228C397.337 292.591 404.217 284.506 403.357 276.882C402.727 271.509 398.197 265.983 392.463 263.476C388.965 261.992 383.576 261.634 380.021 262.657Z" fill="#E1E6E5"/>
<path d="M453.413 262.657C447.393 264.448 441.946 269.872 440.684 275.347C438.219 285.887 450.03 296.428 461.842 294.228C470.729 292.591 477.61 284.506 476.75 276.882C476.119 271.509 471.589 265.983 465.856 263.476C462.358 261.992 456.968 261.634 453.413 262.657Z" fill="#E1E6E5"/>
<path d="M526.806 262.657C520.785 264.448 515.338 269.872 514.077 275.347C511.611 285.887 523.423 296.428 535.234 294.228C544.122 292.591 551.002 284.506 550.142 276.882C549.512 271.509 544.982 265.983 539.248 263.476C535.75 261.992 530.361 261.634 526.806 262.657Z" fill="#E1E6E5"/>
<path d="M600.198 262.657C594.178 264.448 588.731 269.872 587.469 275.347C585.004 285.887 596.815 296.428 608.627 294.228C617.514 292.591 624.395 284.506 623.535 276.882C622.904 271.509 618.374 265.983 612.641 263.476C609.143 261.992 603.753 261.634 600.198 262.657Z" fill="#E1E6E5"/>
<path d="M673.591 262.657C667.57 264.448 662.123 269.872 660.862 275.347C658.396 285.887 670.208 296.428 682.019 294.228C690.907 292.591 697.787 284.506 696.927 276.882C696.297 271.509 691.767 265.983 686.033 263.476C682.535 261.992 677.146 261.634 673.591 262.657Z" fill="#E1E6E5"/>
<path d="M13.0582 328.153C7.03771 329.944 1.59061 335.367 0.329174 340.842C-2.13636 351.383 9.67525 361.924 21.4869 359.724C30.3742 358.086 37.2548 350.002 36.3947 342.377C35.764 337.005 31.2343 331.479 25.5005 328.971C22.0029 327.487 16.6131 327.129 13.0582 328.153Z" fill="#E1E6E5"/>
<path d="M86.4507 328.153C80.4302 329.944 74.9831 335.367 73.7217 340.842C71.2562 351.383 83.0678 361.924 94.8794 359.724C103.767 358.086 110.647 350.002 109.787 342.377C109.157 337.005 104.627 331.479 98.893 328.971C95.3954 327.487 90.0056 327.129 86.4507 328.153Z" fill="#E1E6E5"/>
<path d="M159.843 328.153C153.823 329.944 148.376 335.367 147.114 340.842C144.649 351.383 156.46 361.924 168.272 359.724C177.159 358.086 184.04 350.002 183.18 342.377C182.549 337.005 178.019 331.479 172.286 328.971C168.788 327.487 163.398 327.129 159.843 328.153Z" fill="#E1E6E5"/>
<path d="M233.236 328.153C227.215 329.944 221.768 335.367 220.507 340.842C218.041 351.383 229.853 361.924 241.664 359.724C250.552 358.086 257.432 350.002 256.572 342.377C255.942 337.005 251.412 331.479 245.678 328.971C242.18 327.487 236.791 327.129 233.236 328.153Z" fill="#E1E6E5"/>
<path d="M306.628 328.153C300.608 329.944 295.161 335.367 293.899 340.842C291.434 351.383 303.245 361.924 315.057 359.724C323.944 358.086 330.825 350.002 329.965 342.377C329.334 337.005 324.804 331.479 319.071 328.971C315.573 327.487 310.183 327.129 306.628 328.153Z" fill="#E1E6E5"/>
<path d="M380.021 328.153C374 329.944 368.553 335.367 367.292 340.842C364.826 351.383 376.638 361.924 388.449 359.724C397.337 358.086 404.217 350.002 403.357 342.377C402.727 337.005 398.197 331.479 392.463 328.971C388.965 327.487 383.576 327.129 380.021 328.153Z" fill="#E1E6E5"/>
<path d="M453.413 328.153C447.393 329.944 441.946 335.367 440.684 340.842C438.219 351.383 450.03 361.924 461.842 359.724C470.729 358.086 477.61 350.002 476.75 342.377C476.119 337.005 471.589 331.479 465.856 328.971C462.358 327.487 456.968 327.129 453.413 328.153Z" fill="#E1E6E5"/>
<path d="M526.806 328.153C520.785 329.944 515.338 335.367 514.077 340.842C511.611 351.383 523.423 361.924 535.234 359.724C544.122 358.086 551.002 350.002 550.142 342.377C549.512 337.005 544.982 331.479 539.248 328.971C535.75 327.487 530.361 327.129 526.806 328.153Z" fill="#E1E6E5"/>
<path d="M600.198 328.153C594.178 329.944 588.731 335.367 587.469 340.842C585.004 351.383 596.815 361.924 608.627 359.724C617.514 358.086 624.395 350.002 623.535 342.377C622.904 337.005 618.374 331.479 612.641 328.971C609.143 327.487 603.753 327.129 600.198 328.153Z" fill="#E1E6E5"/>
<path d="M673.591 328.153C667.57 329.944 662.123 335.367 660.862 340.842C658.396 351.383 670.208 361.924 682.019 359.724C690.907 358.086 697.787 350.002 696.927 342.377C696.297 337.005 691.767 331.479 686.033 328.971C682.535 327.487 677.146 327.129 673.591 328.153Z" fill="#E1E6E5"/>
<path d="M13.0582 393.648C7.03771 395.439 1.59061 400.863 0.329174 406.338C-2.13636 416.879 9.67525 427.42 21.4869 425.219C30.3742 423.582 37.2548 415.497 36.3947 407.873C35.764 402.5 31.2343 396.974 25.5005 394.467C22.0029 392.983 16.6131 392.625 13.0582 393.648Z" fill="#E1E6E5"/>
<path d="M86.4507 393.648C80.4302 395.439 74.9831 400.863 73.7217 406.338C71.2562 416.879 83.0678 427.42 94.8794 425.219C103.767 423.582 110.647 415.497 109.787 407.873C109.157 402.5 104.627 396.974 98.893 394.467C95.3954 392.983 90.0056 392.625 86.4507 393.648Z" fill="#E1E6E5"/>
<path d="M159.843 393.648C153.823 395.439 148.376 400.863 147.114 406.338C145.681 412.325 148.949 418.823 155.256 422.661C161.391 426.447 168.387 426.498 174.579 422.814C184.728 416.776 186.104 405.519 177.618 397.998C172.744 393.597 165.749 391.909 159.843 393.648Z" fill="#E1E6E5"/>
<path d="M233.236 393.648C227.215 395.439 221.768 400.863 220.507 406.338C219.073 412.325 222.342 418.823 228.649 422.661C234.784 426.447 241.779 426.498 247.972 422.814C258.12 416.776 259.496 405.519 251.01 397.998C246.137 393.597 239.142 391.909 233.236 393.648Z" fill="#E1E6E5"/>
<path d="M306.628 393.648C297.97 396.207 292.122 404.701 293.899 412.171C295.333 418.26 301.697 423.94 308.52 425.219C319.587 427.317 331.112 417.953 329.965 407.873C329.334 402.5 324.804 396.974 319.071 394.467C315.573 392.983 310.183 392.625 306.628 393.648Z" fill="#E1E6E5"/>
<path d="M380.021 393.648C371.363 396.207 365.514 404.701 367.292 412.171C368.725 418.26 375.09 423.94 381.913 425.219C392.979 427.317 404.504 417.953 403.357 407.873C402.727 402.5 398.197 396.974 392.463 394.467C388.965 392.983 383.576 392.625 380.021 393.648Z" fill="#E1E6E5"/>
<path d="M453.413 393.648C444.755 396.207 438.907 404.701 440.684 412.171C442.118 418.26 448.482 423.94 455.305 425.219C466.372 427.317 477.897 417.953 476.75 407.873C476.119 402.5 471.589 396.974 465.856 394.467C462.358 392.983 456.968 392.625 453.413 393.648Z" fill="#E1E6E5"/>
<path d="M526.806 393.648C518.148 396.207 512.299 404.701 514.077 412.171C515.51 418.26 521.875 423.94 528.698 425.219C539.764 427.317 551.289 417.953 550.142 407.873C549.512 402.5 544.982 396.974 539.248 394.467C535.75 392.983 530.361 392.625 526.806 393.648Z" fill="#E1E6E5"/>
<path d="M600.198 393.648C594.178 395.439 588.731 400.863 587.469 406.338C585.004 416.879 596.815 427.42 608.627 425.219C617.514 423.582 624.395 415.497 623.535 407.873C622.904 402.5 618.374 396.974 612.641 394.467C609.143 392.983 603.753 392.625 600.198 393.648Z" fill="#E1E6E5"/>
<path d="M673.591 393.648C667.57 395.439 662.123 400.863 660.862 406.338C658.396 416.879 670.208 427.42 682.019 425.219C690.907 423.582 697.787 415.497 696.927 407.873C696.297 402.5 691.767 396.974 686.033 394.467C682.535 392.983 677.146 392.625 673.591 393.648Z" fill="#E1E6E5"/>
<path d="M13.0582 459.144C7.03771 460.935 1.59061 466.359 0.329174 471.834C-2.13636 482.374 9.67525 492.915 21.4869 490.715C30.3742 489.078 37.2548 480.993 36.3947 473.369C35.764 467.996 31.2343 462.47 25.5005 459.963C22.0029 458.479 16.6131 458.121 13.0582 459.144Z" fill="#E1E6E5"/>
<path d="M86.4507 459.144C80.4302 460.935 74.9831 466.359 73.7217 471.834C71.2562 482.374 83.0678 492.915 94.8794 490.715C103.767 489.078 110.647 480.993 109.787 473.369C109.157 467.996 104.627 462.47 98.893 459.963C95.3954 458.479 90.0056 458.121 86.4507 459.144Z" fill="#E1E6E5"/>
<path d="M159.843 459.144C153.823 460.935 148.376 466.359 147.114 471.834C145.681 477.82 148.949 484.319 155.256 488.156C161.391 491.943 168.387 491.994 174.579 488.31C184.728 482.272 186.104 471.015 177.618 463.493C172.744 459.093 165.749 457.404 159.843 459.144Z" fill="#E1E6E5"/>
<path d="M233.236 459.144C227.215 460.935 221.768 466.359 220.507 471.834C219.073 477.82 222.342 484.319 228.649 488.156C234.784 491.943 241.779 491.994 247.972 488.31C258.12 482.272 259.496 471.015 251.01 463.493C246.137 459.093 239.142 457.404 233.236 459.144Z" fill="#E1E6E5"/>
<path d="M306.628 459.144C297.97 461.702 292.122 470.196 293.899 477.667C295.333 483.756 301.697 489.436 308.52 490.715C319.587 492.813 331.112 483.449 329.965 473.369C329.334 467.996 324.804 462.47 319.071 459.963C315.573 458.479 310.183 458.121 306.628 459.144Z" fill="#E1E6E5"/>
<path d="M380.021 459.144C371.363 461.702 365.514 470.196 367.292 477.667C368.725 483.756 375.09 489.436 381.913 490.715C392.979 492.813 404.504 483.449 403.357 473.369C402.727 467.996 398.197 462.47 392.463 459.963C388.965 458.479 383.576 458.121 380.021 459.144Z" fill="#E1E6E5"/>
<path d="M453.413 459.144C444.755 461.702 438.907 470.196 440.684 477.667C442.118 483.756 448.482 489.436 455.305 490.715C466.372 492.813 477.897 483.449 476.75 473.369C476.119 467.996 471.589 462.47 465.856 459.963C462.358 458.479 456.968 458.121 453.413 459.144Z" fill="#E1E6E5"/>
<path d="M526.806 459.144C518.148 461.702 512.299 470.196 514.077 477.667C515.51 483.756 521.875 489.436 528.698 490.715C539.764 492.813 551.289 483.449 550.142 473.369C549.512 467.996 544.982 462.47 539.248 459.963C535.75 458.479 530.361 458.121 526.806 459.144Z" fill="#E1E6E5"/>
<path d="M600.198 459.144C594.178 460.935 588.731 466.359 587.469 471.834C585.004 482.374 596.815 492.915 608.627 490.715C617.514 489.078 624.395 480.993 623.535 473.369C622.904 467.996 618.374 462.47 612.641 459.963C609.143 458.479 603.753 458.121 600.198 459.144Z" fill="#E1E6E5"/>
<path d="M673.591 459.144C667.57 460.935 662.123 466.359 660.862 471.834C658.396 482.374 670.208 492.915 682.019 490.715C690.907 489.078 697.787 480.993 696.927 473.369C696.297 467.996 691.767 462.47 686.033 459.963C682.535 458.479 677.146 458.121 673.591 459.144Z" fill="#E1E6E5"/>
<path d="M13.0582 524.64C7.03771 526.431 1.59061 531.854 0.329174 537.329C-2.13636 547.87 9.67525 558.411 21.4869 556.211C30.3742 554.573 37.2548 546.489 36.3947 538.864C35.764 533.492 31.2343 527.966 25.5005 525.458C22.0029 523.974 16.6131 523.616 13.0582 524.64Z" fill="#E1E6E5"/>
<path d="M86.4507 524.64C80.4302 526.431 74.9831 531.854 73.7217 537.329C71.2562 547.87 83.0678 558.411 94.8794 556.211C103.767 554.573 110.647 546.489 109.787 538.864C109.157 533.492 104.627 527.966 98.893 525.458C95.3954 523.974 90.0056 523.616 86.4507 524.64Z" fill="#E1E6E5"/>
<path d="M159.843 524.64C153.823 526.431 148.376 531.854 147.114 537.329C145.681 543.316 148.949 549.815 155.256 553.652C161.391 557.439 168.387 557.49 174.579 553.806C184.728 547.768 186.104 536.511 177.618 528.989C172.744 524.588 165.749 522.9 159.843 524.64Z" fill="#E1E6E5"/>
<path d="M233.236 524.64C227.215 526.431 221.768 531.854 220.507 537.329C219.073 543.316 222.342 549.815 228.649 553.652C234.784 557.439 241.779 557.49 247.972 553.806C258.12 547.768 259.496 536.511 251.01 528.989C246.137 524.588 239.142 522.9 233.236 524.64Z" fill="#E1E6E5"/>
<path d="M306.628 524.64C300.608 526.431 295.161 531.854 293.899 537.329C291.434 547.87 303.245 558.411 315.057 556.211C323.944 554.573 330.825 546.489 329.965 538.864C329.334 533.492 324.804 527.966 319.071 525.458C315.573 523.974 310.183 523.616 306.628 524.64Z" fill="#E1E6E5"/>
<path d="M380.021 524.64C374 526.431 368.553 531.854 367.292 537.329C364.826 547.87 376.638 558.411 388.449 556.211C397.337 554.573 404.217 546.489 403.357 538.864C402.727 533.492 398.197 527.966 392.463 525.458C388.965 523.974 383.576 523.616 380.021 524.64Z" fill="#E1E6E5"/>
<path d="M453.413 524.64C447.393 526.431 441.946 531.854 440.684 537.329C438.219 547.87 450.03 558.411 461.842 556.211C470.729 554.573 477.61 546.489 476.75 538.864C476.119 533.492 471.589 527.966 465.856 525.458C462.358 523.974 456.968 523.616 453.413 524.64Z" fill="#E1E6E5"/>
<path d="M526.806 524.64C520.785 526.431 515.338 531.854 514.077 537.329C511.611 547.87 523.423 558.411 535.234 556.211C544.122 554.573 551.002 546.489 550.142 538.864C549.512 533.492 544.982 527.966 539.248 525.458C535.75 523.974 530.361 523.616 526.806 524.64Z" fill="#E1E6E5"/>
<path d="M600.198 524.64C594.178 526.431 588.731 531.854 587.469 537.329C585.004 547.87 596.815 558.411 608.627 556.211C617.514 554.573 624.395 546.489 623.535 538.864C622.904 533.492 618.374 527.966 612.641 525.458C609.143 523.974 603.753 523.616 600.198 524.64Z" fill="#E1E6E5"/>
<path d="M673.591 524.64C667.57 526.431 662.123 531.854 660.862 537.329C658.396 547.87 670.208 558.411 682.019 556.211C690.907 554.573 697.787 546.489 696.927 538.864C696.297 533.492 691.767 527.966 686.033 525.458C682.535 523.974 677.146 523.616 673.591 524.64Z" fill="#E1E6E5"/>
<path d="M13.0582 590.135C7.03771 591.926 1.59061 597.35 0.329174 602.825C-2.13636 613.366 9.67525 623.906 21.4869 621.706C30.3742 620.069 37.2548 611.984 36.3947 604.36C35.764 598.987 31.2343 593.461 25.5005 590.954C22.0029 589.47 16.6131 589.112 13.0582 590.135Z" fill="#E1E6E5"/>
<path d="M86.4507 590.135C80.4302 591.926 74.9831 597.35 73.7217 602.825C71.2562 613.366 83.0678 623.906 94.8794 621.706C103.767 620.069 110.647 611.984 109.787 604.36C109.157 598.987 104.627 593.461 98.893 590.954C95.3954 589.47 90.0056 589.112 86.4507 590.135Z" fill="#E1E6E5"/>
<path d="M159.843 590.135C153.823 591.926 148.376 597.35 147.114 602.825C144.649 613.366 156.46 623.906 168.272 621.706C177.159 620.069 184.04 611.984 183.18 604.36C182.549 598.987 178.019 593.461 172.286 590.954C168.788 589.47 163.398 589.112 159.843 590.135Z" fill="#E1E6E5"/>
<path d="M233.236 590.135C227.215 591.926 221.768 597.35 220.507 602.825C218.041 613.366 229.853 623.906 241.664 621.706C250.552 620.069 257.432 611.984 256.572 604.36C255.942 598.987 251.412 593.461 245.678 590.954C242.18 589.47 236.791 589.112 233.236 590.135Z" fill="#E1E6E5"/>
<path d="M306.628 590.135C300.608 591.926 295.161 597.35 293.899 602.825C291.434 613.366 303.245 623.906 315.057 621.706C323.944 620.069 330.825 611.984 329.965 604.36C329.334 598.987 324.804 593.461 319.071 590.954C315.573 589.47 310.183 589.112 306.628 590.135Z" fill="#E1E6E5"/>
<path d="M380.021 590.135C374 591.926 368.553 597.35 367.292 602.825C364.826 613.366 376.638 623.906 388.449 621.706C397.337 620.069 404.217 611.984 403.357 604.36C402.727 598.987 398.197 593.461 392.463 590.954C388.965 589.47 383.576 589.112 380.021 590.135Z" fill="#E1E6E5"/>
<path d="M453.413 590.135C447.393 591.926 441.946 597.35 440.684 602.825C438.219 613.366 450.03 623.906 461.842 621.706C470.729 620.069 477.61 611.984 476.75 604.36C476.119 598.987 471.589 593.461 465.856 590.954C462.358 589.47 456.968 589.112 453.413 590.135Z" fill="#E1E6E5"/>
<path d="M526.806 590.135C520.785 591.926 515.338 597.35 514.077 602.825C511.611 613.366 523.423 623.906 535.234 621.706C544.122 620.069 551.002 611.984 550.142 604.36C549.512 598.987 544.982 593.461 539.248 590.954C535.75 589.47 530.361 589.112 526.806 590.135Z" fill="#E1E6E5"/>
<path d="M600.198 590.135C594.178 591.926 588.731 597.35 587.469 602.825C585.004 613.366 596.815 623.906 608.627 621.706C617.514 620.069 624.395 611.984 623.535 604.36C622.904 598.987 618.374 593.461 612.641 590.954C609.143 589.47 603.753 589.112 600.198 590.135Z" fill="#E1E6E5"/>
<path d="M673.591 590.135C667.57 591.926 662.123 597.35 660.862 602.825C658.396 613.366 670.208 623.906 682.019 621.706C690.907 620.069 697.787 611.984 696.927 604.36C696.297 598.987 691.767 593.461 686.033 590.954C682.535 589.47 677.146 589.112 673.591 590.135Z" fill="#E1E6E5"/>
</g>
</g>
<defs>
<clipPath id="clip0_1_3">
<rect width="697" height="622" fill="white"/>
</clipPath>
</defs>
</svg>
