<svg width="323" height="375" viewBox="0 0 323 375" fill="none" xmlns="http://www.w3.org/2000/svg">
<rect x="27" width="273" height="337" rx="15" fill="white"/>
<rect x="47" y="238" width="106.371" height="69" rx="10" fill="#FFEBEA"/>
<rect x="80.0283" y="256.729" width="39.3429" height="32.0357" rx="5" fill="#FFC5C2"/>
<ellipse cx="113.057" cy="265.6" rx="2.42857" ry="2.46429" fill="#FEA4A1"/>
<path d="M105.528 278.414L112.89 288.764H98.1671L105.528 278.414Z" fill="#FF645F"/>
<path d="M94.1144 272.5L103.369 288.764H84.8603L94.1144 272.5Z" fill="#FEA4A1"/>
<g filter="url(#filter0_d_4_1220)">
<rect x="2" y="288" width="78" height="81" rx="12" fill="white"/>
<path d="M19.9691 325.419C19.5938 321.831 18.9763 318.695 19.0007 315.564C19.0126 314.038 20.2224 312.521 20.89 311C22.0976 312.296 24.1688 313.471 24.372 314.909C25.648 323.944 26.6527 333.025 27.4326 342.118C27.7294 345.579 28.6906 346.64 32.3572 346.078C40.8796 344.77 49.4721 343.857 58.065 343.121C59.8323 342.969 62.9748 343.891 63.3276 345.002C64.4075 348.404 61.1957 348.483 58.992 348.749C48.457 350.021 37.9082 351.179 27.3616 352.354C24.5795 352.664 23.1091 351.665 22.7979 348.575C22.0338 340.99 20.9477 333.437 19.9691 325.419Z" fill="#FE7A76"/>
<path d="M59.1704 321.853C57.4302 324.536 55.9147 326.918 54.3533 329.27C50.7693 334.668 49.856 334.86 44.4668 331.414C43.6365 330.883 42.8273 330.319 41.4417 329.39C39.6451 331.515 38.0562 333.8 36.0401 335.608C35.0404 336.504 33.2554 336.525 31.8256 336.942C31.8325 335.306 31.3193 333.416 31.9669 332.094C32.9632 330.061 34.7928 328.447 36.2039 326.605C39.0465 322.895 42.0837 321.411 45.9719 325.326C47.7944 327.16 49.4447 326.816 50.803 324.537C51.9923 322.542 53.1727 320.468 54.7499 318.801C55.9384 317.544 57.7482 316.876 59.2815 315.945C59.3125 317.809 59.3434 319.674 59.1704 321.853Z" fill="#FFDAD9"/>
</g>
<path d="M147.067 185.026C167.547 185.026 187.529 184.913 207.507 185.16C210.212 185.193 213.457 186.4 215.465 188.178C219.21 191.494 217.428 197.728 212.688 199.216C211.135 199.703 209.446 199.97 207.819 199.971C159.366 200.01 110.913 200.011 62.4598 199.994C56.7615 199.992 53.4983 196.593 54.0631 191.419C54.4871 187.535 57.7917 185.034 62.6478 185.032C90.6207 185.019 118.594 185.026 147.067 185.026Z" fill="#E6E8EC"/>
<path d="M111.358 207.01C123.761 207.01 135.862 206.965 147.959 207.064C149.597 207.077 151.563 207.56 152.779 208.271C155.046 209.597 153.967 212.09 151.097 212.685C150.157 212.88 149.134 212.986 148.148 212.987C118.807 213.002 89.4648 213.003 60.123 212.996C56.6723 212.995 54.6962 211.636 55.0382 209.567C55.295 208.014 57.2961 207.014 60.2368 207.013C77.1765 207.007 94.1161 207.01 111.358 207.01Z" fill="#E6E8EC"/>
<path d="M220.358 247.009C232.761 247.009 244.862 246.971 256.959 247.053C258.597 247.064 260.563 247.466 261.779 248.059C264.046 249.164 262.967 251.241 260.097 251.737C259.157 251.9 258.134 251.988 257.148 251.989C227.807 252.002 198.465 252.002 169.123 251.996C165.672 251.996 163.696 250.863 164.038 249.139C164.295 247.845 166.296 247.011 169.237 247.011C186.176 247.006 203.116 247.009 220.358 247.009Z" fill="#E6E8EC"/>
<path d="M187.34 283.009C192.477 283.009 197.488 282.971 202.498 283.053C203.177 283.064 203.991 283.466 204.494 284.059C205.433 285.164 204.986 287.241 203.798 287.737C203.408 287.9 202.985 287.988 202.577 287.989C190.425 288.002 178.273 288.002 166.122 287.996C164.693 287.996 163.874 286.863 164.016 285.139C164.122 283.845 164.951 283.011 166.169 283.011C173.184 283.006 180.2 283.009 187.34 283.009Z" fill="#E6E8EC"/>
<path d="M220.358 274.009C232.761 274.009 244.862 273.971 256.959 274.053C258.597 274.064 260.563 274.466 261.779 275.059C264.046 276.164 262.967 278.241 260.097 278.737C259.157 278.9 258.134 278.988 257.148 278.989C227.807 279.002 198.465 279.002 169.123 278.996C165.672 278.996 163.696 277.863 164.038 276.139C164.295 274.845 166.296 274.011 169.237 274.011C186.176 274.006 203.116 274.009 220.358 274.009Z" fill="#E6E8EC"/>
<path d="M220.358 265.009C232.761 265.009 244.862 264.971 256.959 265.053C258.597 265.064 260.563 265.466 261.779 266.059C264.046 267.164 262.967 269.241 260.097 269.737C259.157 269.9 258.134 269.988 257.148 269.989C227.807 270.002 198.465 270.002 169.123 269.996C165.672 269.996 163.696 268.863 164.038 267.139C164.295 265.845 166.296 265.011 169.237 265.011C186.176 265.006 203.116 265.009 220.358 265.009Z" fill="#E6E8EC"/>
<path d="M220.358 256.009C232.761 256.009 244.862 255.971 256.959 256.053C258.597 256.064 260.563 256.466 261.779 257.059C264.046 258.164 262.967 260.241 260.097 260.737C259.157 260.9 258.134 260.988 257.148 260.989C227.807 261.002 198.465 261.002 169.123 260.996C165.672 260.996 163.696 259.863 164.038 258.139C164.295 256.845 166.296 256.011 169.237 256.011C186.176 256.006 203.116 256.009 220.358 256.009Z" fill="#E6E8EC"/>
<path d="M278.785 276.334C272.685 272.648 270.404 267.31 269.943 259.594C275.34 261.193 280.168 262.461 284.88 264.066C289.49 265.636 290.625 265.02 290.889 260.384C291.143 255.926 291.656 251.481 291.855 247.021C292.009 243.588 293.753 243.66 296.18 244.69C306.874 249.227 310.756 264.867 300.732 274.024C294.161 280.027 286.835 280.258 278.785 276.334Z" fill="#EDEEEF"/>
<path d="M286.88 253.981C287.165 258.74 286.216 260.881 281.301 258.418C278.387 256.959 275.045 256.293 271.841 255.491C268.618 254.684 268.463 252.958 269.766 250.357C272.57 244.761 277.197 241.584 283.14 240.237C286.232 239.537 288.439 240.254 287.913 244.198C287.498 247.304 287.23 250.429 286.88 253.981Z" fill="#C1C6CD"/>
<g filter="url(#filter1_d_4_1220)">
<rect x="253.124" y="224" width="67" height="67" rx="15" transform="rotate(6.10374 253.124 224)" fill="white"/>
<path d="M273.785 278.334C267.685 274.648 265.404 269.31 264.943 261.594C270.34 263.193 275.168 264.461 279.88 266.066C284.49 267.636 285.625 267.02 285.889 262.384C286.143 257.926 286.656 253.481 286.855 249.021C287.009 245.588 288.753 245.66 291.18 246.69C301.874 251.227 305.756 266.867 295.732 276.024C289.161 282.027 281.835 282.258 273.785 278.334Z" fill="#EDEEEF"/>
<path d="M281.88 255.981C282.165 260.74 281.216 262.881 276.301 260.418C273.387 258.959 270.045 258.293 266.841 257.491C263.618 256.684 263.463 254.958 264.766 252.357C267.57 246.761 272.197 243.584 278.14 242.237C281.232 241.537 283.439 242.254 282.913 246.198C282.498 249.304 282.23 252.429 281.88 255.981Z" fill="#C1C6CD"/>
</g>
<path d="M192.728 127.248C192.118 127.094 191.498 126.607 190.846 125.8C191.449 125.958 192.083 126.437 192.728 127.248Z" fill="#FED7A1"/>
<path d="M189.711 123.28C189.109 123.105 188.506 122.598 187.888 121.77C188.485 121.948 189.097 122.448 189.711 123.28Z" fill="#FED7A1"/>
<rect x="55" y="30" width="219" height="140" rx="20" fill="#FFEBEA"/>
<rect x="123" y="68" width="81" height="65" rx="10" fill="#FFC5C2"/>
<circle cx="191" cy="86" r="5" fill="#FEA4A1"/>
<path d="M175.5 112L190.655 133H160.345L175.5 112Z" fill="#FF645F"/>
<path d="M152 100L171.053 133H132.947L152 100Z" fill="#FEA4A1"/>
<defs>
<filter id="filter0_d_4_1220" x="0" y="288" width="82" height="87" filterUnits="userSpaceOnUse" color-interpolation-filters="sRGB">
<feFlood flood-opacity="0" result="BackgroundImageFix"/>
<feColorMatrix in="SourceAlpha" type="matrix" values="0 0 0 0 0 0 0 0 0 0 0 0 0 0 0 0 0 0 127 0" result="hardAlpha"/>
<feOffset dy="4"/>
<feGaussianBlur stdDeviation="1"/>
<feComposite in2="hardAlpha" operator="out"/>
<feColorMatrix type="matrix" values="0 0 0 0 0 0 0 0 0 0 0 0 0 0 0 0 0 0 0.02 0"/>
<feBlend mode="normal" in2="BackgroundImageFix" result="effect1_dropShadow_4_1220"/>
<feBlend mode="normal" in="SourceGraphic" in2="effect1_dropShadow_4_1220" result="shape"/>
</filter>
<filter id="filter1_d_4_1220" x="243.509" y="225.509" width="78.7266" height="78.7271" filterUnits="userSpaceOnUse" color-interpolation-filters="sRGB">
<feFlood flood-opacity="0" result="BackgroundImageFix"/>
<feColorMatrix in="SourceAlpha" type="matrix" values="0 0 0 0 0 0 0 0 0 0 0 0 0 0 0 0 0 0 127 0" result="hardAlpha"/>
<feOffset dy="4"/>
<feGaussianBlur stdDeviation="2"/>
<feComposite in2="hardAlpha" operator="out"/>
<feColorMatrix type="matrix" values="0 0 0 0 0 0 0 0 0 0 0 0 0 0 0 0 0 0 0.02 0"/>
<feBlend mode="normal" in2="BackgroundImageFix" result="effect1_dropShadow_4_1220"/>
<feBlend mode="normal" in="SourceGraphic" in2="effect1_dropShadow_4_1220" result="shape"/>
</filter>
</defs>
</svg>
