<svg width="1427" height="852" viewBox="0 0 1427 852" fill="none" xmlns="http://www.w3.org/2000/svg">
<path d="M0 0H1427V852H0V0Z" fill="white"/>
<g opacity="0.427575">
<path d="M2.39806 724.139C1.29243 724.507 0.292106 725.623 0.0604509 726.75C-0.392329 728.919 1.7768 731.088 3.94594 730.636C5.57805 730.299 6.84162 728.635 6.68368 727.066C6.56785 725.96 5.736 724.823 4.68302 724.307C4.0407 724.002 3.05091 723.928 2.39806 724.139Z" fill="#D0D7D6"/>
<path d="M15.8761 724.139C14.2861 724.665 13.2121 726.413 13.5385 727.951C13.8018 729.204 14.9706 730.372 16.2131 730.636C18.2559 731.067 20.3723 729.14 20.1618 727.066C20.0459 725.96 19.2141 724.823 18.1611 724.307C17.5188 724.002 16.529 723.928 15.8761 724.139Z" fill="#D0D7D6"/>
<path d="M29.3544 724.139C28.2487 724.507 27.2484 725.623 27.0167 726.75C26.564 728.919 28.7331 731.088 30.9022 730.636C32.5344 730.299 33.7979 728.635 33.64 727.066C33.5241 725.96 32.6923 724.823 31.6393 724.307C30.997 724.002 30.0072 723.928 29.3544 724.139Z" fill="#D0D7D6"/>
<path d="M42.8324 724.139C41.7268 724.507 40.7264 725.623 40.4948 726.75C40.042 728.919 42.2111 731.088 44.3803 730.636C46.0124 730.299 47.276 728.635 47.118 727.066C47.0022 725.96 46.1703 724.823 45.1173 724.307C44.475 724.002 43.4852 723.928 42.8324 724.139Z" fill="#D0D7D6"/>
<path d="M56.3104 724.139C55.2048 724.507 54.2045 725.623 53.9728 726.75C53.52 728.919 55.6892 731.088 57.8583 730.636C59.4904 730.299 60.754 728.635 60.596 727.066C60.4802 725.96 59.6484 724.823 58.5954 724.307C57.9531 724.002 56.9633 723.928 56.3104 724.139Z" fill="#D0D7D6"/>
<path d="M69.7887 724.139C68.6831 724.507 67.6827 725.623 67.4511 726.75C66.9983 728.919 69.1674 731.088 71.3366 730.636C72.9687 730.299 74.2323 728.635 74.0743 727.066C73.9585 725.96 73.1266 724.823 72.0736 724.307C71.4313 724.002 70.4415 723.928 69.7887 724.139Z" fill="#D0D7D6"/>
<path d="M83.2667 724.139C82.1611 724.507 81.1608 725.623 80.9291 726.75C80.4763 728.919 82.6455 731.088 84.8146 730.636C86.4467 730.299 87.7103 728.635 87.5523 727.066C87.4365 725.96 86.6047 724.823 85.5517 724.307C84.9094 724.002 83.9196 723.928 83.2667 724.139Z" fill="#D0D7D6"/>
<path d="M96.7447 724.139C95.6391 724.507 94.6388 725.623 94.4071 726.75C93.9544 728.919 96.1235 731.088 98.2926 730.636C99.9247 730.299 101.188 728.635 101.03 727.066C100.915 725.96 100.083 724.823 99.0297 724.307C98.3874 724.002 97.3976 723.928 96.7447 724.139Z" fill="#D0D7D6"/>
<path d="M110.223 724.139C109.117 724.507 108.117 725.624 107.885 726.75C107.622 727.982 108.222 729.32 109.381 730.109C110.507 730.888 111.792 730.899 112.929 730.141C114.793 728.898 115.046 726.582 113.487 725.034C112.592 724.128 111.307 723.781 110.223 724.139Z" fill="#D0D7D6"/>
<path d="M123.701 724.139C122.595 724.507 121.595 725.624 121.363 726.75C121.1 727.982 121.7 729.32 122.859 730.109C123.985 730.888 125.27 730.899 126.407 730.141C128.271 728.898 128.524 726.582 126.965 725.034C126.07 724.128 124.785 723.781 123.701 724.139Z" fill="#D0D7D6"/>
<path d="M2.39806 737.617C1.29243 737.985 0.292106 739.102 0.0604509 740.228C-0.392329 742.398 1.7768 744.567 3.94594 744.114C5.57805 743.777 6.84162 742.113 6.68368 740.544C6.56785 739.439 5.736 738.301 4.68302 737.785C4.0407 737.48 3.05091 737.406 2.39806 737.617Z" fill="#D0D7D6"/>
<path d="M15.8761 737.617C14.2861 738.144 13.2121 739.891 13.5385 741.429C13.8018 742.682 14.9706 743.851 16.2131 744.114C18.2559 744.546 20.3723 742.619 20.1618 740.544C20.0459 739.439 19.2141 738.301 18.1611 737.786C17.5188 737.48 16.529 737.406 15.8761 737.617Z" fill="#D0D7D6"/>
<path d="M29.3544 737.617C28.2487 737.985 27.2484 739.102 27.0167 740.228C26.564 742.398 28.7331 744.567 30.9022 744.114C32.5344 743.777 33.7979 742.113 33.64 740.544C33.5241 739.439 32.6923 738.301 31.6393 737.785C30.997 737.48 30.0072 737.406 29.3544 737.617Z" fill="#D0D7D6"/>
<path d="M42.8324 737.617C41.7268 737.985 40.7264 739.102 40.4948 740.228C40.042 742.398 42.2111 744.567 44.3803 744.114C46.0124 743.777 47.276 742.113 47.118 740.544C47.0022 739.439 46.1703 738.301 45.1173 737.785C44.475 737.48 43.4852 737.406 42.8324 737.617Z" fill="#D0D7D6"/>
<path d="M56.3104 737.617C55.2048 737.985 54.2045 739.102 53.9728 740.228C53.52 742.398 55.6892 744.567 57.8583 744.114C59.4904 743.777 60.754 742.113 60.596 740.544C60.4802 739.439 59.6484 738.301 58.5954 737.785C57.9531 737.48 56.9633 737.406 56.3104 737.617Z" fill="#D0D7D6"/>
<path d="M69.7887 737.617C68.6831 737.985 67.6827 739.102 67.4511 740.228C66.9983 742.398 69.1674 744.567 71.3366 744.114C72.9687 743.777 74.2323 742.113 74.0743 740.544C73.9585 739.439 73.1266 738.301 72.0736 737.785C71.4313 737.48 70.4415 737.406 69.7887 737.617Z" fill="#D0D7D6"/>
<path d="M83.2667 737.617C82.1611 737.985 81.1608 739.102 80.9291 740.228C80.4763 742.398 82.6455 744.567 84.8146 744.114C86.4467 743.777 87.7103 742.113 87.5523 740.544C87.4365 739.439 86.6047 738.301 85.5517 737.785C84.9094 737.48 83.9196 737.406 83.2667 737.617Z" fill="#D0D7D6"/>
<path d="M96.7447 737.617C95.6391 737.985 94.6388 739.102 94.4071 740.228C93.9544 742.398 96.1235 744.567 98.2926 744.114C99.9247 743.777 101.188 742.113 101.03 740.544C100.915 739.439 100.083 738.301 99.0297 737.785C98.3874 737.48 97.3976 737.406 96.7447 737.617Z" fill="#D0D7D6"/>
<path d="M110.223 737.617C109.117 737.985 108.117 739.102 107.885 740.228C107.622 741.46 108.222 742.798 109.381 743.587C110.507 744.366 111.792 744.377 112.929 743.619C114.793 742.376 115.046 740.06 113.487 738.512C112.592 737.606 111.307 737.259 110.223 737.617Z" fill="#D0D7D6"/>
<path d="M123.701 737.617C122.595 737.985 121.595 739.102 121.363 740.228C121.1 741.46 121.7 742.798 122.859 743.587C123.985 744.366 125.27 744.377 126.407 743.619C128.271 742.376 128.524 740.06 126.965 738.512C126.07 737.606 124.785 737.259 123.701 737.617Z" fill="#D0D7D6"/>
<path d="M2.39806 751.095C1.29243 751.464 0.292106 752.58 0.0604509 753.707C-0.392329 755.876 1.7768 758.045 3.94594 757.592C5.57805 757.255 6.84162 755.591 6.68368 754.023C6.56785 752.917 5.736 751.78 4.68302 751.264C4.0407 750.958 3.05091 750.885 2.39806 751.095Z" fill="#D0D7D6"/>
<path d="M15.8761 751.095C14.7705 751.464 13.7701 752.58 13.5385 753.707C13.0857 755.876 15.2548 758.045 17.424 757.592C19.0561 757.255 20.3197 755.591 20.1617 754.023C20.0459 752.917 19.214 751.78 18.161 751.264C17.5187 750.958 16.5289 750.885 15.8761 751.095Z" fill="#D0D7D6"/>
<path d="M29.3544 751.095C28.2487 751.464 27.2484 752.58 27.0167 753.707C26.564 755.876 28.7331 758.045 30.9022 757.592C32.5344 757.255 33.7979 755.591 33.64 754.023C33.5241 752.917 32.6923 751.78 31.6393 751.264C30.997 750.958 30.0072 750.885 29.3544 751.095Z" fill="#D0D7D6"/>
<path d="M42.8324 751.095C41.7268 751.464 40.7264 752.58 40.4948 753.707C40.042 755.876 42.2111 758.045 44.3803 757.592C46.0124 757.255 47.276 755.591 47.118 754.023C47.0022 752.917 46.1703 751.78 45.1173 751.264C44.475 750.958 43.4852 750.885 42.8324 751.095Z" fill="#D0D7D6"/>
<path d="M56.3104 751.095C55.2048 751.464 54.2045 752.58 53.9728 753.707C53.52 755.876 55.6892 758.045 57.8583 757.592C59.4904 757.255 60.754 755.591 60.596 754.023C60.4802 752.917 59.6484 751.78 58.5954 751.264C57.9531 750.958 56.9633 750.885 56.3104 751.095Z" fill="#D0D7D6"/>
<path d="M69.7887 751.095C68.6831 751.464 67.6827 752.58 67.4511 753.707C66.9983 755.876 69.1674 758.045 71.3366 757.592C72.9687 757.255 74.2323 755.591 74.0743 754.023C73.9585 752.917 73.1266 751.78 72.0736 751.264C71.4313 750.958 70.4415 750.885 69.7887 751.095Z" fill="#D0D7D6"/>
<path d="M83.2667 751.095C82.1611 751.464 81.1608 752.58 80.9291 753.707C80.4763 755.876 82.6455 758.045 84.8146 757.592C86.4467 757.255 87.7103 755.591 87.5523 754.023C87.4365 752.917 86.6047 751.78 85.5517 751.264C84.9094 750.958 83.9196 750.885 83.2667 751.095Z" fill="#D0D7D6"/>
<path d="M96.7447 751.095C95.6391 751.464 94.6388 752.58 94.4071 753.707C93.9544 755.876 96.1235 758.045 98.2926 757.592C99.9247 757.255 101.188 755.591 101.03 754.023C100.915 752.917 100.083 751.78 99.0297 751.264C98.3874 750.958 97.3976 750.885 96.7447 751.095Z" fill="#D0D7D6"/>
<path d="M110.223 751.095C109.117 751.464 108.117 752.58 107.885 753.707C107.433 755.876 109.602 758.045 111.771 757.592C113.403 757.255 114.667 755.591 114.509 754.023C114.393 752.917 113.561 751.78 112.508 751.264C111.866 750.958 110.876 750.885 110.223 751.095Z" fill="#D0D7D6"/>
<path d="M123.701 751.095C122.595 751.464 121.595 752.58 121.363 753.707C120.911 755.876 123.08 758.045 125.249 757.592C126.881 757.255 128.145 755.591 127.987 754.023C127.871 752.917 127.039 751.78 125.986 751.264C125.344 750.958 124.354 750.885 123.701 751.095Z" fill="#D0D7D6"/>
<path d="M2.39806 764.573C1.29243 764.942 0.292106 766.058 0.0604509 767.185C-0.392329 769.354 1.7768 771.523 3.94594 771.07C5.57805 770.733 6.84162 769.07 6.68368 767.501C6.56785 766.395 5.736 765.258 4.68302 764.742C4.0407 764.437 3.05091 764.363 2.39806 764.573Z" fill="#D0D7D6"/>
<path d="M15.8761 764.573C14.7705 764.942 13.7701 766.058 13.5385 767.185C13.0857 769.354 15.2548 771.523 17.424 771.07C19.0561 770.733 20.3197 769.07 20.1617 767.501C20.0459 766.395 19.214 765.258 18.161 764.742C17.5187 764.437 16.5289 764.363 15.8761 764.573Z" fill="#D0D7D6"/>
<path d="M29.3544 764.573C28.2487 764.942 27.2484 766.058 27.0167 767.185C26.564 769.354 28.7331 771.523 30.9022 771.07C32.5344 770.733 33.7979 769.07 33.64 767.501C33.5241 766.395 32.6923 765.258 31.6393 764.742C30.997 764.437 30.0072 764.363 29.3544 764.573Z" fill="#D0D7D6"/>
<path d="M42.8324 764.573C41.7268 764.942 40.7264 766.058 40.4948 767.185C40.042 769.354 42.2111 771.523 44.3803 771.07C46.0124 770.733 47.276 769.07 47.118 767.501C47.0022 766.395 46.1703 765.258 45.1173 764.742C44.475 764.437 43.4852 764.363 42.8324 764.573Z" fill="#D0D7D6"/>
<path d="M56.3104 764.573C55.2048 764.942 54.2045 766.058 53.9728 767.185C53.52 769.354 55.6892 771.523 57.8583 771.07C59.4904 770.733 60.754 769.07 60.596 767.501C60.4802 766.395 59.6484 765.258 58.5954 764.742C57.9531 764.437 56.9633 764.363 56.3104 764.573Z" fill="#D0D7D6"/>
<path d="M69.7887 764.573C68.6831 764.942 67.6827 766.058 67.4511 767.185C66.9983 769.354 69.1674 771.523 71.3366 771.07C72.9687 770.733 74.2323 769.07 74.0743 767.501C73.9585 766.395 73.1266 765.258 72.0736 764.742C71.4313 764.437 70.4415 764.363 69.7887 764.573Z" fill="#D0D7D6"/>
<path d="M83.2667 764.573C82.1611 764.942 81.1608 766.058 80.9291 767.185C80.4763 769.354 82.6455 771.523 84.8146 771.07C86.4467 770.733 87.7103 769.07 87.5523 767.501C87.4365 766.395 86.6047 765.258 85.5517 764.742C84.9094 764.437 83.9196 764.363 83.2667 764.573Z" fill="#D0D7D6"/>
<path d="M96.7447 764.573C95.6391 764.942 94.6388 766.058 94.4071 767.185C93.9544 769.354 96.1235 771.523 98.2926 771.07C99.9247 770.733 101.188 769.07 101.03 767.501C100.915 766.395 100.083 765.258 99.0297 764.742C98.3874 764.437 97.3976 764.363 96.7447 764.573Z" fill="#D0D7D6"/>
<path d="M110.223 764.573C109.117 764.942 108.117 766.058 107.885 767.185C107.433 769.354 109.602 771.523 111.771 771.07C113.403 770.733 114.667 769.07 114.509 767.501C114.393 766.395 113.561 765.258 112.508 764.742C111.866 764.437 110.876 764.363 110.223 764.573Z" fill="#D0D7D6"/>
<path d="M123.701 764.573C122.595 764.942 121.595 766.058 121.363 767.185C120.911 769.354 123.08 771.523 125.249 771.07C126.881 770.733 128.145 769.07 127.987 767.501C127.871 766.395 127.039 765.258 125.986 764.742C125.344 764.437 124.354 764.363 123.701 764.573Z" fill="#D0D7D6"/>
<path d="M2.39806 778.052C1.29243 778.42 0.292106 779.536 0.0604509 780.663C-0.392329 782.832 1.7768 785.001 3.94594 784.548C5.57805 784.211 6.84162 782.548 6.68368 780.979C6.56785 779.873 5.736 778.736 4.68302 778.22C4.0407 777.915 3.05091 777.841 2.39806 778.052Z" fill="#D0D7D6"/>
<path d="M15.8761 778.052C14.7705 778.42 13.7701 779.536 13.5385 780.663C13.0857 782.832 15.2548 785.001 17.424 784.548C19.0561 784.211 20.3197 782.548 20.1617 780.979C20.0459 779.873 19.214 778.736 18.161 778.22C17.5187 777.915 16.5289 777.841 15.8761 778.052Z" fill="#D0D7D6"/>
<path d="M29.3544 778.052C28.2487 778.42 27.2484 779.536 27.0167 780.663C26.564 782.832 28.7331 785.001 30.9022 784.548C32.5344 784.211 33.7979 782.548 33.64 780.979C33.5241 779.873 32.6923 778.736 31.6393 778.22C30.997 777.915 30.0072 777.841 29.3544 778.052Z" fill="#D0D7D6"/>
<path d="M42.8324 778.052C41.7268 778.42 40.7264 779.536 40.4948 780.663C40.042 782.832 42.2111 785.001 44.3803 784.548C46.0124 784.211 47.276 782.548 47.118 780.979C47.0022 779.873 46.1703 778.736 45.1173 778.22C44.475 777.915 43.4852 777.841 42.8324 778.052Z" fill="#D0D7D6"/>
<path d="M56.3104 778.052C55.2048 778.42 54.2045 779.536 53.9728 780.663C53.52 782.832 55.6892 785.001 57.8583 784.548C59.4904 784.211 60.754 782.548 60.596 780.979C60.4802 779.873 59.6484 778.736 58.5954 778.22C57.9531 777.915 56.9633 777.841 56.3104 778.052Z" fill="#D0D7D6"/>
<path d="M69.7887 778.052C68.6831 778.42 67.6827 779.536 67.4511 780.663C66.9983 782.832 69.1674 785.001 71.3366 784.548C72.9687 784.211 74.2323 782.548 74.0743 780.979C73.9585 779.873 73.1266 778.736 72.0736 778.22C71.4313 777.915 70.4415 777.841 69.7887 778.052Z" fill="#D0D7D6"/>
<path d="M83.2667 778.052C82.1611 778.42 81.1608 779.536 80.9291 780.663C80.4763 782.832 82.6455 785.001 84.8146 784.548C86.4467 784.211 87.7103 782.548 87.5523 780.979C87.4365 779.873 86.6047 778.736 85.5517 778.22C84.9094 777.915 83.9196 777.841 83.2667 778.052Z" fill="#D0D7D6"/>
<path d="M96.7447 778.052C95.6391 778.42 94.6388 779.536 94.4071 780.663C93.9544 782.832 96.1235 785.001 98.2926 784.548C99.9247 784.211 101.188 782.548 101.03 780.979C100.915 779.873 100.083 778.736 99.0297 778.22C98.3874 777.915 97.3976 777.841 96.7447 778.052Z" fill="#D0D7D6"/>
<path d="M110.223 778.052C109.117 778.42 108.117 779.536 107.885 780.663C107.433 782.832 109.602 785.001 111.771 784.548C113.403 784.211 114.667 782.548 114.509 780.979C114.393 779.873 113.561 778.736 112.508 778.22C111.866 777.915 110.876 777.841 110.223 778.052Z" fill="#D0D7D6"/>
<path d="M123.701 778.052C122.595 778.42 121.595 779.536 121.363 780.663C120.911 782.832 123.08 785.001 125.249 784.548C126.881 784.211 128.145 782.548 127.987 780.979C127.871 779.873 127.039 778.736 125.986 778.22C125.344 777.915 124.354 777.841 123.701 778.052Z" fill="#D0D7D6"/>
<path d="M2.39806 791.53C1.29243 791.898 0.292106 793.014 0.0604509 794.141C-0.392329 796.31 1.7768 798.479 3.94594 798.027C5.57805 797.69 6.84162 796.026 6.68368 794.457C6.56785 793.351 5.736 792.214 4.68302 791.698C4.0407 791.393 3.05091 791.319 2.39806 791.53Z" fill="#D0D7D6"/>
<path d="M15.8761 791.53C14.7705 791.898 13.7701 793.014 13.5385 794.141C13.0857 796.31 15.2548 798.479 17.424 798.027C19.0561 797.69 20.3197 796.026 20.1617 794.457C20.0459 793.351 19.214 792.214 18.161 791.698C17.5187 791.393 16.5289 791.319 15.8761 791.53Z" fill="#D0D7D6"/>
<path d="M29.3544 791.53C28.2487 791.898 27.2484 793.014 27.0167 794.141C26.564 796.31 28.7331 798.479 30.9022 798.027C32.5344 797.69 33.7979 796.026 33.64 794.457C33.5241 793.351 32.6923 792.214 31.6393 791.698C30.997 791.393 30.0072 791.319 29.3544 791.53Z" fill="#D0D7D6"/>
<path d="M42.8324 791.53C41.7268 791.898 40.7264 793.014 40.4948 794.141C40.042 796.31 42.2111 798.479 44.3803 798.027C46.0124 797.69 47.276 796.026 47.118 794.457C47.0022 793.351 46.1703 792.214 45.1173 791.698C44.475 791.393 43.4852 791.319 42.8324 791.53Z" fill="#D0D7D6"/>
<path d="M56.3104 791.53C55.2048 791.898 54.2045 793.014 53.9728 794.141C53.52 796.31 55.6892 798.479 57.8583 798.027C59.4904 797.69 60.754 796.026 60.596 794.457C60.4802 793.351 59.6484 792.214 58.5954 791.698C57.9531 791.393 56.9633 791.319 56.3104 791.53Z" fill="#D0D7D6"/>
<path d="M69.7887 791.53C68.6831 791.898 67.6827 793.014 67.4511 794.141C66.9983 796.31 69.1674 798.479 71.3366 798.027C72.9687 797.69 74.2323 796.026 74.0743 794.457C73.9585 793.351 73.1266 792.214 72.0736 791.698C71.4313 791.393 70.4415 791.319 69.7887 791.53Z" fill="#D0D7D6"/>
<path d="M83.2667 791.53C82.1611 791.898 81.1608 793.014 80.9291 794.141C80.4763 796.31 82.6455 798.479 84.8146 798.027C86.4467 797.69 87.7103 796.026 87.5523 794.457C87.4365 793.351 86.6047 792.214 85.5517 791.698C84.9094 791.393 83.9196 791.319 83.2667 791.53Z" fill="#D0D7D6"/>
<path d="M96.7447 791.53C95.6391 791.898 94.6388 793.014 94.4071 794.141C93.9544 796.31 96.1235 798.479 98.2926 798.027C99.9247 797.69 101.188 796.026 101.03 794.457C100.915 793.351 100.083 792.214 99.0297 791.698C98.3874 791.393 97.3976 791.319 96.7447 791.53Z" fill="#D0D7D6"/>
<path d="M110.223 791.53C109.117 791.898 108.117 793.014 107.885 794.141C107.433 796.31 109.602 798.479 111.771 798.027C113.403 797.69 114.667 796.026 114.509 794.457C114.393 793.351 113.561 792.214 112.508 791.698C111.866 791.393 110.876 791.319 110.223 791.53Z" fill="#D0D7D6"/>
<path d="M123.701 791.53C122.595 791.898 121.595 793.014 121.363 794.141C120.911 796.31 123.08 798.479 125.249 798.027C126.881 797.69 128.145 796.026 127.987 794.457C127.871 793.351 127.039 792.214 125.986 791.698C125.344 791.393 124.354 791.319 123.701 791.53Z" fill="#D0D7D6"/>
<path d="M2.39806 805.008C1.29243 805.377 0.292106 806.493 0.0604509 807.619C-0.392329 809.789 1.7768 811.958 3.94594 811.505C5.57805 811.168 6.84162 809.504 6.68368 807.935C6.56785 806.83 5.736 805.692 4.68302 805.177C4.0407 804.871 3.05091 804.797 2.39806 805.008Z" fill="#D0D7D6"/>
<path d="M15.8761 805.008C14.7705 805.377 13.7701 806.493 13.5385 807.619C13.0857 809.789 15.2548 811.958 17.424 811.505C19.0561 811.168 20.3197 809.504 20.1617 807.935C20.0459 806.83 19.214 805.692 18.161 805.177C17.5187 804.871 16.5289 804.797 15.8761 805.008Z" fill="#D0D7D6"/>
<path d="M29.3543 805.008C28.2486 805.377 27.2483 806.493 27.0166 807.619C26.7534 808.851 27.3536 810.189 28.5119 810.978C29.6386 811.758 30.9232 811.768 32.0604 811.01C33.9242 809.767 34.1769 807.451 32.6185 805.903C31.7235 804.997 30.4388 804.65 29.3543 805.008Z" fill="#D0D7D6"/>
<path d="M42.8323 805.008C41.7267 805.377 40.7263 806.493 40.4947 807.619C40.2314 808.851 40.8316 810.189 41.9899 810.978C43.1166 811.758 44.4012 811.768 45.5384 811.01C47.4022 809.767 47.6549 807.451 46.0965 805.903C45.2015 804.997 43.9168 804.65 42.8323 805.008Z" fill="#D0D7D6"/>
<path d="M56.3105 805.008C54.7205 805.534 53.6464 807.282 53.9729 808.82C54.2361 810.073 55.4049 811.242 56.6579 811.505C58.6902 811.937 60.8067 810.01 60.5961 807.935C60.4803 806.83 59.6484 805.692 58.5954 805.176C57.9531 804.871 56.9633 804.797 56.3105 805.008Z" fill="#D0D7D6"/>
<path d="M69.7885 805.008C68.1985 805.534 67.1245 807.282 67.4509 808.82C67.7141 810.073 68.8829 811.242 70.136 811.505C72.1682 811.937 74.2847 810.01 74.0741 807.935C73.9583 806.83 73.1264 805.692 72.0735 805.176C71.4311 804.871 70.4413 804.797 69.7885 805.008Z" fill="#D0D7D6"/>
<path d="M83.2668 805.008C81.6768 805.534 80.6027 807.282 80.9292 808.82C81.1924 810.073 82.3612 811.242 83.6142 811.505C85.6465 811.937 87.763 810.01 87.5524 807.935C87.4366 806.83 86.6047 805.692 85.5517 805.176C84.9094 804.871 83.9196 804.797 83.2668 805.008Z" fill="#D0D7D6"/>
<path d="M96.7448 805.008C95.1548 805.534 94.0808 807.282 94.4072 808.82C94.6704 810.073 95.8392 811.242 97.0923 811.505C99.1245 811.937 101.241 810.01 101.03 807.935C100.915 806.83 100.083 805.692 99.0297 805.176C98.3874 804.871 97.3976 804.797 96.7448 805.008Z" fill="#D0D7D6"/>
<path d="M110.223 805.008C109.117 805.377 108.117 806.493 107.885 807.619C107.433 809.789 109.602 811.958 111.771 811.505C113.403 811.168 114.667 809.504 114.509 807.935C114.393 806.83 113.561 805.692 112.508 805.177C111.866 804.871 110.876 804.797 110.223 805.008Z" fill="#D0D7D6"/>
<path d="M123.701 805.008C122.595 805.377 121.595 806.493 121.363 807.619C120.911 809.789 123.08 811.958 125.249 811.505C126.881 811.168 128.145 809.504 127.987 807.935C127.871 806.83 127.039 805.692 125.986 805.177C125.344 804.871 124.354 804.797 123.701 805.008Z" fill="#D0D7D6"/>
<path d="M2.39806 818.486C1.29243 818.855 0.292106 819.971 0.0604509 821.098C-0.392329 823.267 1.7768 825.436 3.94594 824.983C5.57805 824.646 6.84162 822.983 6.68368 821.414C6.56785 820.308 5.736 819.171 4.68302 818.655C4.0407 818.349 3.05091 818.276 2.39806 818.486Z" fill="#D0D7D6"/>
<path d="M15.8761 818.486C14.7705 818.855 13.7701 819.971 13.5385 821.098C13.0857 823.267 15.2548 825.436 17.424 824.983C19.0561 824.646 20.3197 822.983 20.1617 821.414C20.0459 820.308 19.214 819.171 18.161 818.655C17.5187 818.349 16.5289 818.276 15.8761 818.486Z" fill="#D0D7D6"/>
<path d="M29.3543 818.486C28.2486 818.855 27.2483 819.971 27.0166 821.098C26.7534 822.33 27.3536 823.667 28.5119 824.457C29.6386 825.236 30.9232 825.246 32.0604 824.488C33.9242 823.246 34.1769 820.929 32.6185 819.381C31.7235 818.476 30.4388 818.128 29.3543 818.486Z" fill="#D0D7D6"/>
<path d="M42.8323 818.486C41.7267 818.855 40.7263 819.971 40.4947 821.098C40.2314 822.33 40.8316 823.667 41.9899 824.457C43.1166 825.236 44.4012 825.246 45.5384 824.488C47.4022 823.246 47.6549 820.929 46.0965 819.381C45.2015 818.476 43.9168 818.128 42.8323 818.486Z" fill="#D0D7D6"/>
<path d="M56.3105 818.486C54.7205 819.013 53.6464 820.761 53.9729 822.298C54.2361 823.551 55.4049 824.72 56.6579 824.983C58.6902 825.415 60.8067 823.488 60.5961 821.413C60.4803 820.308 59.6484 819.171 58.5954 818.655C57.9531 818.349 56.9633 818.276 56.3105 818.486Z" fill="#D0D7D6"/>
<path d="M69.7885 818.486C68.1985 819.013 67.1245 820.761 67.4509 822.298C67.7141 823.551 68.8829 824.72 70.136 824.983C72.1682 825.415 74.2847 823.488 74.0741 821.413C73.9583 820.308 73.1264 819.171 72.0735 818.655C71.4311 818.349 70.4413 818.276 69.7885 818.486Z" fill="#D0D7D6"/>
<path d="M83.2668 818.486C81.6768 819.013 80.6027 820.761 80.9292 822.298C81.1924 823.551 82.3612 824.72 83.6142 824.983C85.6465 825.415 87.763 823.488 87.5524 821.413C87.4366 820.308 86.6047 819.171 85.5517 818.655C84.9094 818.349 83.9196 818.276 83.2668 818.486Z" fill="#D0D7D6"/>
<path d="M96.7448 818.486C95.1548 819.013 94.0808 820.761 94.4072 822.298C94.6704 823.551 95.8392 824.72 97.0923 824.983C99.1245 825.415 101.241 823.488 101.03 821.413C100.915 820.308 100.083 819.171 99.0297 818.655C98.3874 818.349 97.3976 818.276 96.7448 818.486Z" fill="#D0D7D6"/>
<path d="M110.223 818.486C109.117 818.855 108.117 819.971 107.885 821.098C107.433 823.267 109.602 825.436 111.771 824.983C113.403 824.646 114.667 822.983 114.509 821.414C114.393 820.308 113.561 819.171 112.508 818.655C111.866 818.349 110.876 818.276 110.223 818.486Z" fill="#D0D7D6"/>
<path d="M123.701 818.486C122.595 818.855 121.595 819.971 121.363 821.098C120.911 823.267 123.08 825.436 125.249 824.983C126.881 824.646 128.145 822.983 127.987 821.414C127.871 820.308 127.039 819.171 125.986 818.655C125.344 818.349 124.354 818.276 123.701 818.486Z" fill="#D0D7D6"/>
<path d="M2.39806 831.964C1.29243 832.333 0.292106 833.449 0.0604509 834.576C-0.392329 836.745 1.7768 838.914 3.94594 838.461C5.57805 838.124 6.84162 836.461 6.68368 834.892C6.56785 833.786 5.736 832.649 4.68302 832.133C4.0407 831.827 3.05091 831.754 2.39806 831.964Z" fill="#D0D7D6"/>
<path d="M15.8761 831.964C14.7705 832.333 13.7701 833.449 13.5385 834.576C13.0857 836.745 15.2548 838.914 17.424 838.461C19.0561 838.124 20.3197 836.461 20.1617 834.892C20.0459 833.786 19.214 832.649 18.161 832.133C17.5187 831.827 16.5289 831.754 15.8761 831.964Z" fill="#D0D7D6"/>
<path d="M29.3543 831.965C28.2486 832.333 27.2483 833.449 27.0166 834.576C26.7534 835.808 27.3536 837.145 28.5119 837.935C29.6386 838.714 30.9232 838.725 32.0604 837.967C33.9242 836.724 34.1769 834.407 32.6185 832.86C31.7235 831.954 30.4388 831.606 29.3543 831.965Z" fill="#D0D7D6"/>
<path d="M42.8323 831.965C41.7267 832.333 40.7263 833.449 40.4947 834.576C40.2314 835.808 40.8316 837.145 41.9899 837.935C43.1166 838.714 44.4012 838.725 45.5384 837.967C47.4022 836.724 47.6549 834.407 46.0965 832.86C45.2015 831.954 43.9168 831.606 42.8323 831.965Z" fill="#D0D7D6"/>
<path d="M56.3104 831.964C55.2048 832.333 54.2045 833.449 53.9728 834.576C53.52 836.745 55.6892 838.914 57.8583 838.461C59.4904 838.124 60.754 836.461 60.596 834.892C60.4802 833.786 59.6484 832.649 58.5954 832.133C57.9531 831.827 56.9633 831.754 56.3104 831.964Z" fill="#D0D7D6"/>
<path d="M69.7887 831.964C68.6831 832.333 67.6827 833.449 67.4511 834.576C66.9983 836.745 69.1674 838.914 71.3366 838.461C72.9687 838.124 74.2323 836.461 74.0743 834.892C73.9585 833.786 73.1266 832.649 72.0736 832.133C71.4313 831.827 70.4415 831.754 69.7887 831.964Z" fill="#D0D7D6"/>
<path d="M83.2667 831.964C82.1611 832.333 81.1608 833.449 80.9291 834.576C80.4763 836.745 82.6455 838.914 84.8146 838.461C86.4467 838.124 87.7103 836.461 87.5523 834.892C87.4365 833.786 86.6047 832.649 85.5517 832.133C84.9094 831.827 83.9196 831.754 83.2667 831.964Z" fill="#D0D7D6"/>
<path d="M96.7447 831.964C95.6391 832.333 94.6388 833.449 94.4071 834.576C93.9544 836.745 96.1235 838.914 98.2926 838.461C99.9247 838.124 101.188 836.461 101.03 834.892C100.915 833.786 100.083 832.649 99.0297 832.133C98.3874 831.827 97.3976 831.754 96.7447 831.964Z" fill="#D0D7D6"/>
<path d="M110.223 831.964C109.117 832.333 108.117 833.449 107.885 834.576C107.433 836.745 109.602 838.914 111.771 838.461C113.403 838.124 114.667 836.461 114.509 834.892C114.393 833.786 113.561 832.649 112.508 832.133C111.866 831.827 110.876 831.754 110.223 831.964Z" fill="#D0D7D6"/>
<path d="M123.701 831.964C122.595 832.333 121.595 833.449 121.363 834.576C120.911 836.745 123.08 838.914 125.249 838.461C126.881 838.124 128.145 836.461 127.987 834.892C127.871 833.786 127.039 832.649 125.986 832.133C125.344 831.827 124.354 831.754 123.701 831.964Z" fill="#D0D7D6"/>
<path d="M2.39806 845.443C1.29243 845.811 0.292106 846.927 0.0604509 848.054C-0.392329 850.223 1.7768 852.392 3.94594 851.94C5.57805 851.603 6.84162 849.939 6.68368 848.37C6.56785 847.264 5.736 846.127 4.68302 845.611C4.0407 845.306 3.05091 845.232 2.39806 845.443Z" fill="#D0D7D6"/>
<path d="M15.8761 845.443C14.7705 845.811 13.7701 846.927 13.5385 848.054C13.0857 850.223 15.2548 852.392 17.424 851.94C19.0561 851.603 20.3197 849.939 20.1617 848.37C20.0459 847.264 19.214 846.127 18.161 845.611C17.5187 845.306 16.5289 845.232 15.8761 845.443Z" fill="#D0D7D6"/>
<path d="M29.3544 845.443C28.2487 845.811 27.2484 846.927 27.0167 848.054C26.564 850.223 28.7331 852.392 30.9022 851.94C32.5344 851.603 33.7979 849.939 33.64 848.37C33.5241 847.264 32.6923 846.127 31.6393 845.611C30.997 845.306 30.0072 845.232 29.3544 845.443Z" fill="#D0D7D6"/>
<path d="M42.8324 845.443C41.7268 845.811 40.7264 846.927 40.4948 848.054C40.042 850.223 42.2111 852.392 44.3803 851.94C46.0124 851.603 47.276 849.939 47.118 848.37C47.0022 847.264 46.1703 846.127 45.1173 845.611C44.475 845.306 43.4852 845.232 42.8324 845.443Z" fill="#D0D7D6"/>
<path d="M56.3104 845.443C55.2048 845.811 54.2045 846.927 53.9728 848.054C53.52 850.223 55.6892 852.392 57.8583 851.94C59.4904 851.603 60.754 849.939 60.596 848.37C60.4802 847.264 59.6484 846.127 58.5954 845.611C57.9531 845.306 56.9633 845.232 56.3104 845.443Z" fill="#D0D7D6"/>
<path d="M69.7887 845.443C68.6831 845.811 67.6827 846.927 67.4511 848.054C66.9983 850.223 69.1674 852.392 71.3366 851.94C72.9687 851.603 74.2323 849.939 74.0743 848.37C73.9585 847.264 73.1266 846.127 72.0736 845.611C71.4313 845.306 70.4415 845.232 69.7887 845.443Z" fill="#D0D7D6"/>
<path d="M83.2667 845.443C82.1611 845.811 81.1608 846.927 80.9291 848.054C80.4763 850.223 82.6455 852.392 84.8146 851.94C86.4467 851.603 87.7103 849.939 87.5523 848.37C87.4365 847.264 86.6047 846.127 85.5517 845.611C84.9094 845.306 83.9196 845.232 83.2667 845.443Z" fill="#D0D7D6"/>
<path d="M96.7447 845.443C95.6391 845.811 94.6388 846.927 94.4071 848.054C93.9544 850.223 96.1235 852.392 98.2926 851.94C99.9247 851.603 101.188 849.939 101.03 848.37C100.915 847.264 100.083 846.127 99.0297 845.611C98.3874 845.306 97.3976 845.232 96.7447 845.443Z" fill="#D0D7D6"/>
<path d="M110.223 845.443C109.117 845.811 108.117 846.927 107.885 848.054C107.433 850.223 109.602 852.392 111.771 851.94C113.403 851.603 114.667 849.939 114.509 848.37C114.393 847.264 113.561 846.127 112.508 845.611C111.866 845.306 110.876 845.232 110.223 845.443Z" fill="#D0D7D6"/>
<path d="M123.701 845.443C122.595 845.811 121.595 846.927 121.363 848.054C120.911 850.223 123.08 852.392 125.249 851.94C126.881 851.603 128.145 849.939 127.987 848.37C127.871 847.264 127.039 846.127 125.986 845.611C125.344 845.306 124.354 845.232 123.701 845.443Z" fill="#D0D7D6"/>
</g>
<g clip-path="url(#clip0_111_530)">
<g opacity="0.427575">
<path d="M1091.29 0.325256C1088.39 1.18903 1085.77 3.80505 1085.16 6.44573C1083.97 11.5297 1089.66 16.6136 1095.36 15.5524C1099.64 14.7627 1102.96 10.8633 1102.54 7.18612C1102.24 4.59479 1100.06 1.92941 1097.29 0.720128C1095.61 0.00442796 1093.01 -0.168331 1091.29 0.325256Z" fill="#B0B0B0"/>
<path d="M1126.67 0.325248C1122.5 1.55922 1119.68 5.65598 1120.54 9.25917C1121.23 12.196 1124.3 14.9354 1127.56 15.5524C1132.92 16.5643 1138.48 12.0479 1137.92 7.18611C1137.62 4.59478 1135.44 1.92941 1132.67 0.72012C1130.99 0.0044205 1128.39 -0.168338 1126.67 0.325248Z" fill="#B0B0B0"/>
<path d="M1162.05 0.325256C1159.15 1.18903 1156.53 3.80505 1155.92 6.44573C1154.73 11.5297 1160.42 16.6136 1166.12 15.5524C1170.4 14.7627 1173.72 10.8633 1173.3 7.18612C1173 4.59479 1170.82 1.92941 1168.05 0.720128C1166.37 0.00442796 1163.77 -0.168331 1162.05 0.325256Z" fill="#B0B0B0"/>
<path d="M1197.44 0.325256C1194.53 1.18903 1191.91 3.80505 1191.3 6.44573C1190.11 11.5297 1195.8 16.6136 1201.5 15.5524C1205.78 14.7627 1209.1 10.8633 1208.68 7.18612C1208.38 4.59479 1206.2 1.92941 1203.43 0.720128C1201.75 0.00442796 1199.15 -0.168331 1197.44 0.325256Z" fill="#B0B0B0"/>
<path d="M1232.81 0.325256C1229.91 1.18903 1227.29 3.80505 1226.68 6.44573C1225.49 11.5297 1231.18 16.6136 1236.88 15.5524C1241.16 14.7627 1244.48 10.8633 1244.06 7.18612C1243.76 4.59479 1241.58 1.92941 1238.81 0.720128C1237.13 0.00442796 1234.53 -0.168331 1232.81 0.325256Z" fill="#B0B0B0"/>
<path d="M1268.2 0.325256C1265.29 1.18903 1262.67 3.80505 1262.06 6.44573C1260.87 11.5297 1266.56 16.6136 1272.26 15.5524C1276.54 14.7627 1279.86 10.8633 1279.44 7.18612C1279.14 4.59479 1276.96 1.92941 1274.19 0.720128C1272.51 0.00442796 1269.91 -0.168331 1268.2 0.325256Z" fill="#B0B0B0"/>
<path d="M1303.58 0.325256C1300.67 1.18903 1298.05 3.80505 1297.44 6.44573C1296.25 11.5297 1301.94 16.6136 1307.64 15.5524C1311.92 14.7627 1315.24 10.8633 1314.82 7.18612C1314.52 4.59479 1312.34 1.92941 1309.57 0.720128C1307.89 0.00442796 1305.29 -0.168331 1303.58 0.325256Z" fill="#B0B0B0"/>
<path d="M1338.96 0.325256C1336.05 1.18903 1333.43 3.80505 1332.82 6.44573C1331.63 11.5297 1337.32 16.6136 1343.02 15.5524C1347.3 14.7627 1350.62 10.8633 1350.2 7.18612C1349.9 4.59479 1347.72 1.92941 1344.95 0.720128C1343.27 0.00442796 1340.67 -0.168331 1338.96 0.325256Z" fill="#B0B0B0"/>
<path d="M1374.34 0.325137C1371.43 1.18891 1368.81 3.80493 1368.2 6.44562C1367.51 9.3331 1369.08 12.4674 1372.12 14.3183C1375.08 16.1446 1378.45 16.1693 1381.44 14.3924C1386.33 11.4802 1386.99 6.05075 1382.9 2.42289C1380.55 0.300468 1377.18 -0.51396 1374.34 0.325137Z" fill="#B0B0B0"/>
<path d="M1409.72 0.325137C1406.81 1.18891 1404.19 3.80493 1403.58 6.44562C1402.89 9.3331 1404.46 12.4674 1407.5 14.3183C1410.46 16.1446 1413.83 16.1693 1416.82 14.3924C1421.71 11.4802 1422.37 6.05075 1418.28 2.42289C1415.93 0.300468 1412.56 -0.51396 1409.72 0.325137Z" fill="#B0B0B0"/>
<path d="M1091.29 31.9149C1088.39 32.7786 1085.77 35.3946 1085.16 38.0353C1083.97 43.1193 1089.66 48.2032 1095.36 47.142C1099.64 46.3523 1102.96 42.4529 1102.54 38.7757C1102.24 36.1844 1100.06 33.519 1097.29 32.3097C1095.61 31.594 1093.01 31.4213 1091.29 31.9149Z" fill="#B0B0B0"/>
<path d="M1126.67 31.9148C1122.5 33.1488 1119.68 37.2456 1120.54 40.8488C1121.23 43.7856 1124.3 46.525 1127.56 47.142C1132.92 48.1539 1138.48 43.6375 1137.92 38.7757C1137.62 36.1844 1135.44 33.519 1132.67 32.3097C1130.99 31.594 1128.39 31.4213 1126.67 31.9148Z" fill="#B0B0B0"/>
<path d="M1162.05 31.9149C1159.15 32.7786 1156.53 35.3946 1155.92 38.0353C1154.73 43.1193 1160.42 48.2032 1166.12 47.142C1170.4 46.3523 1173.72 42.4529 1173.3 38.7757C1173 36.1844 1170.82 33.519 1168.05 32.3097C1166.37 31.594 1163.77 31.4213 1162.05 31.9149Z" fill="#B0B0B0"/>
<path d="M1197.44 31.9149C1194.53 32.7786 1191.91 35.3946 1191.3 38.0353C1190.11 43.1193 1195.8 48.2032 1201.5 47.142C1205.78 46.3523 1209.1 42.4529 1208.68 38.7757C1208.38 36.1844 1206.2 33.519 1203.43 32.3097C1201.75 31.594 1199.15 31.4213 1197.44 31.9149Z" fill="#B0B0B0"/>
<path d="M1232.81 31.9149C1229.91 32.7786 1227.29 35.3946 1226.68 38.0353C1225.49 43.1193 1231.18 48.2032 1236.88 47.142C1241.16 46.3523 1244.48 42.4529 1244.06 38.7757C1243.76 36.1844 1241.58 33.519 1238.81 32.3097C1237.13 31.594 1234.53 31.4213 1232.81 31.9149Z" fill="#B0B0B0"/>
<path d="M1268.2 31.9149C1265.29 32.7786 1262.67 35.3946 1262.06 38.0353C1260.87 43.1193 1266.56 48.2032 1272.26 47.142C1276.54 46.3523 1279.86 42.4529 1279.44 38.7757C1279.14 36.1844 1276.96 33.519 1274.19 32.3097C1272.51 31.594 1269.91 31.4213 1268.2 31.9149Z" fill="#B0B0B0"/>
<path d="M1303.58 31.9149C1300.67 32.7786 1298.05 35.3946 1297.44 38.0353C1296.25 43.1193 1301.94 48.2032 1307.64 47.142C1311.92 46.3523 1315.24 42.4529 1314.82 38.7757C1314.52 36.1844 1312.34 33.519 1309.57 32.3097C1307.89 31.594 1305.29 31.4213 1303.58 31.9149Z" fill="#B0B0B0"/>
<path d="M1338.96 31.9149C1336.05 32.7786 1333.43 35.3946 1332.82 38.0353C1331.63 43.1193 1337.32 48.2032 1343.02 47.142C1347.3 46.3523 1350.62 42.4529 1350.2 38.7757C1349.9 36.1844 1347.72 33.519 1344.95 32.3097C1343.27 31.594 1340.67 31.4213 1338.96 31.9149Z" fill="#B0B0B0"/>
<path d="M1374.34 31.9147C1371.43 32.7785 1368.81 35.3945 1368.2 38.0352C1367.51 40.9227 1369.08 44.057 1372.12 45.9079C1375.08 47.7342 1378.45 47.7589 1381.44 45.982C1386.33 43.0698 1386.99 37.6403 1382.9 34.0125C1380.55 31.8901 1377.18 31.0756 1374.34 31.9147Z" fill="#B0B0B0"/>
<path d="M1409.72 31.9147C1406.81 32.7785 1404.19 35.3945 1403.58 38.0352C1402.89 40.9227 1404.46 44.057 1407.5 45.9079C1410.46 47.7342 1413.83 47.7589 1416.82 45.982C1421.71 43.0698 1422.37 37.6403 1418.28 34.0125C1415.93 31.8901 1412.56 31.0756 1409.72 31.9147Z" fill="#B0B0B0"/>
<path d="M1091.29 63.5042C1088.39 64.368 1085.77 66.984 1085.16 69.6247C1083.97 74.7086 1089.66 79.7926 1095.36 78.7314C1099.64 77.9416 1102.96 74.0423 1102.54 70.3651C1102.24 67.7737 1100.06 65.1084 1097.29 63.8991C1095.61 63.1834 1093.01 63.0106 1091.29 63.5042Z" fill="#B0B0B0"/>
<path d="M1126.68 63.5042C1123.77 64.368 1121.15 66.984 1120.54 69.6247C1119.35 74.7086 1125.04 79.7926 1130.74 78.7314C1135.02 77.9416 1138.34 74.0423 1137.92 70.3651C1137.62 67.7737 1135.44 65.1084 1132.67 63.8991C1130.99 63.1834 1128.39 63.0106 1126.68 63.5042Z" fill="#B0B0B0"/>
<path d="M1162.05 63.5042C1159.15 64.368 1156.53 66.984 1155.92 69.6247C1154.73 74.7086 1160.42 79.7926 1166.12 78.7314C1170.4 77.9416 1173.72 74.0423 1173.3 70.3651C1173 67.7737 1170.82 65.1084 1168.05 63.8991C1166.37 63.1834 1163.77 63.0106 1162.05 63.5042Z" fill="#B0B0B0"/>
<path d="M1197.44 63.5042C1194.53 64.368 1191.91 66.984 1191.3 69.6247C1190.11 74.7086 1195.8 79.7926 1201.5 78.7314C1205.78 77.9416 1209.1 74.0423 1208.68 70.3651C1208.38 67.7737 1206.2 65.1084 1203.43 63.8991C1201.75 63.1834 1199.15 63.0106 1197.44 63.5042Z" fill="#B0B0B0"/>
<path d="M1232.81 63.5042C1229.91 64.368 1227.29 66.984 1226.68 69.6247C1225.49 74.7086 1231.18 79.7926 1236.88 78.7314C1241.16 77.9416 1244.48 74.0423 1244.06 70.3651C1243.76 67.7737 1241.58 65.1084 1238.81 63.8991C1237.13 63.1834 1234.53 63.0106 1232.81 63.5042Z" fill="#B0B0B0"/>
<path d="M1268.2 63.5042C1265.29 64.368 1262.67 66.984 1262.06 69.6247C1260.87 74.7086 1266.56 79.7926 1272.26 78.7314C1276.54 77.9416 1279.86 74.0423 1279.44 70.3651C1279.14 67.7737 1276.96 65.1084 1274.19 63.8991C1272.51 63.1834 1269.91 63.0106 1268.2 63.5042Z" fill="#B0B0B0"/>
<path d="M1303.58 63.5042C1300.67 64.368 1298.05 66.984 1297.44 69.6247C1296.25 74.7086 1301.94 79.7926 1307.64 78.7314C1311.92 77.9416 1315.24 74.0423 1314.82 70.3651C1314.52 67.7737 1312.34 65.1084 1309.57 63.8991C1307.89 63.1834 1305.29 63.0106 1303.58 63.5042Z" fill="#B0B0B0"/>
<path d="M1338.96 63.5042C1336.05 64.368 1333.43 66.984 1332.82 69.6247C1331.63 74.7086 1337.32 79.7926 1343.02 78.7314C1347.3 77.9416 1350.62 74.0423 1350.2 70.3651C1349.9 67.7737 1347.72 65.1084 1344.95 63.8991C1343.27 63.1834 1340.67 63.0106 1338.96 63.5042Z" fill="#B0B0B0"/>
<path d="M1374.34 63.5042C1371.43 64.368 1368.81 66.984 1368.2 69.6247C1367.01 74.7086 1372.7 79.7926 1378.4 78.7314C1382.68 77.9416 1386 74.0423 1385.58 70.3651C1385.28 67.7737 1383.1 65.1084 1380.33 63.8991C1378.65 63.1834 1376.05 63.0106 1374.34 63.5042Z" fill="#B0B0B0"/>
<path d="M1409.72 63.5042C1406.81 64.368 1404.19 66.984 1403.58 69.6247C1402.39 74.7086 1408.08 79.7926 1413.78 78.7314C1418.06 77.9416 1421.38 74.0423 1420.96 70.3651C1420.66 67.7737 1418.48 65.1084 1415.71 63.8991C1414.03 63.1834 1411.43 63.0106 1409.72 63.5042Z" fill="#B0B0B0"/>
<path d="M1091.29 95.0938C1088.39 95.9576 1085.77 98.5736 1085.16 101.214C1083.97 106.298 1089.66 111.382 1095.36 110.321C1099.64 109.531 1102.96 105.632 1102.54 101.955C1102.24 99.3633 1100.06 96.698 1097.29 95.4887C1095.61 94.773 1093.01 94.6002 1091.29 95.0938Z" fill="#B0B0B0"/>
<path d="M1126.68 95.0938C1123.77 95.9576 1121.15 98.5736 1120.54 101.214C1119.35 106.298 1125.04 111.382 1130.74 110.321C1135.02 109.531 1138.34 105.632 1137.92 101.955C1137.62 99.3633 1135.44 96.698 1132.67 95.4887C1130.99 94.773 1128.39 94.6002 1126.68 95.0938Z" fill="#B0B0B0"/>
<path d="M1162.05 95.0938C1159.15 95.9576 1156.53 98.5736 1155.92 101.214C1154.73 106.298 1160.42 111.382 1166.12 110.321C1170.4 109.531 1173.72 105.632 1173.3 101.955C1173 99.3633 1170.82 96.698 1168.05 95.4887C1166.37 94.773 1163.77 94.6002 1162.05 95.0938Z" fill="#B0B0B0"/>
<path d="M1197.44 95.0938C1194.53 95.9576 1191.91 98.5736 1191.3 101.214C1190.11 106.298 1195.8 111.382 1201.5 110.321C1205.78 109.531 1209.1 105.632 1208.68 101.955C1208.38 99.3633 1206.2 96.698 1203.43 95.4887C1201.75 94.773 1199.15 94.6002 1197.44 95.0938Z" fill="#B0B0B0"/>
<path d="M1232.81 95.0938C1229.91 95.9576 1227.29 98.5736 1226.68 101.214C1225.49 106.298 1231.18 111.382 1236.88 110.321C1241.16 109.531 1244.48 105.632 1244.06 101.955C1243.76 99.3633 1241.58 96.698 1238.81 95.4887C1237.13 94.773 1234.53 94.6002 1232.81 95.0938Z" fill="#B0B0B0"/>
<path d="M1268.2 95.0938C1265.29 95.9576 1262.67 98.5736 1262.06 101.214C1260.87 106.298 1266.56 111.382 1272.26 110.321C1276.54 109.531 1279.86 105.632 1279.44 101.955C1279.14 99.3633 1276.96 96.698 1274.19 95.4887C1272.51 94.773 1269.91 94.6002 1268.2 95.0938Z" fill="#B0B0B0"/>
<path d="M1303.58 95.0938C1300.67 95.9576 1298.05 98.5736 1297.44 101.214C1296.25 106.298 1301.94 111.382 1307.64 110.321C1311.92 109.531 1315.24 105.632 1314.82 101.955C1314.52 99.3633 1312.34 96.698 1309.57 95.4887C1307.89 94.773 1305.29 94.6002 1303.58 95.0938Z" fill="#B0B0B0"/>
<path d="M1338.96 95.0938C1336.05 95.9576 1333.43 98.5736 1332.82 101.214C1331.63 106.298 1337.32 111.382 1343.02 110.321C1347.3 109.531 1350.62 105.632 1350.2 101.955C1349.9 99.3633 1347.72 96.698 1344.95 95.4887C1343.27 94.773 1340.67 94.6002 1338.96 95.0938Z" fill="#B0B0B0"/>
<path d="M1374.34 95.0938C1371.43 95.9576 1368.81 98.5736 1368.2 101.214C1367.01 106.298 1372.7 111.382 1378.4 110.321C1382.68 109.531 1386 105.632 1385.58 101.955C1385.28 99.3633 1383.1 96.698 1380.33 95.4887C1378.65 94.773 1376.05 94.6002 1374.34 95.0938Z" fill="#B0B0B0"/>
<path d="M1409.72 95.0938C1406.81 95.9576 1404.19 98.5736 1403.58 101.214C1402.39 106.298 1408.08 111.382 1413.78 110.321C1418.06 109.531 1421.38 105.632 1420.96 101.955C1420.66 99.3633 1418.48 96.698 1415.71 95.4887C1414.03 94.773 1411.43 94.6002 1409.72 95.0938Z" fill="#B0B0B0"/>
<path d="M1091.29 126.683C1088.39 127.547 1085.77 130.163 1085.16 132.804C1083.97 137.888 1089.66 142.972 1095.36 141.911C1099.64 141.121 1102.96 137.221 1102.54 133.544C1102.24 130.953 1100.06 128.288 1097.29 127.078C1095.61 126.363 1093.01 126.19 1091.29 126.683Z" fill="#B0B0B0"/>
<path d="M1126.68 126.683C1123.77 127.547 1121.15 130.163 1120.54 132.804C1119.35 137.888 1125.04 142.972 1130.74 141.911C1135.02 141.121 1138.34 137.221 1137.92 133.544C1137.62 130.953 1135.44 128.288 1132.67 127.078C1130.99 126.363 1128.39 126.19 1126.68 126.683Z" fill="#B0B0B0"/>
<path d="M1162.05 126.683C1159.15 127.547 1156.53 130.163 1155.92 132.804C1154.73 137.888 1160.42 142.972 1166.12 141.911C1170.4 141.121 1173.72 137.221 1173.3 133.544C1173 130.953 1170.82 128.288 1168.05 127.078C1166.37 126.363 1163.77 126.19 1162.05 126.683Z" fill="#B0B0B0"/>
<path d="M1197.44 126.683C1194.53 127.547 1191.91 130.163 1191.3 132.804C1190.11 137.888 1195.8 142.972 1201.5 141.911C1205.78 141.121 1209.1 137.221 1208.68 133.544C1208.38 130.953 1206.2 128.288 1203.43 127.078C1201.75 126.363 1199.15 126.19 1197.44 126.683Z" fill="#B0B0B0"/>
<path d="M1232.81 126.683C1229.91 127.547 1227.29 130.163 1226.68 132.804C1225.49 137.888 1231.18 142.972 1236.88 141.911C1241.16 141.121 1244.48 137.221 1244.06 133.544C1243.76 130.953 1241.58 128.288 1238.81 127.078C1237.13 126.363 1234.53 126.19 1232.81 126.683Z" fill="#B0B0B0"/>
<path d="M1268.2 126.683C1265.29 127.547 1262.67 130.163 1262.06 132.804C1260.87 137.888 1266.56 142.972 1272.26 141.911C1276.54 141.121 1279.86 137.221 1279.44 133.544C1279.14 130.953 1276.96 128.288 1274.19 127.078C1272.51 126.363 1269.91 126.19 1268.2 126.683Z" fill="#B0B0B0"/>
<path d="M1303.58 126.683C1300.67 127.547 1298.05 130.163 1297.44 132.804C1296.25 137.888 1301.94 142.972 1307.64 141.911C1311.92 141.121 1315.24 137.221 1314.82 133.544C1314.52 130.953 1312.34 128.288 1309.57 127.078C1307.89 126.363 1305.29 126.19 1303.58 126.683Z" fill="#B0B0B0"/>
<path d="M1338.96 126.683C1336.05 127.547 1333.43 130.163 1332.82 132.804C1331.63 137.888 1337.32 142.972 1343.02 141.911C1347.3 141.121 1350.62 137.221 1350.2 133.544C1349.9 130.953 1347.72 128.288 1344.95 127.078C1343.27 126.363 1340.67 126.19 1338.96 126.683Z" fill="#B0B0B0"/>
<path d="M1374.34 126.683C1371.43 127.547 1368.81 130.163 1368.2 132.804C1367.01 137.888 1372.7 142.972 1378.4 141.911C1382.68 141.121 1386 137.221 1385.58 133.544C1385.28 130.953 1383.1 128.288 1380.33 127.078C1378.65 126.363 1376.05 126.19 1374.34 126.683Z" fill="#B0B0B0"/>
<path d="M1409.72 126.683C1406.81 127.547 1404.19 130.163 1403.58 132.804C1402.39 137.888 1408.08 142.972 1413.78 141.911C1418.06 141.121 1421.38 137.221 1420.96 133.544C1420.66 130.953 1418.48 128.288 1415.71 127.078C1414.03 126.363 1411.43 126.19 1409.72 126.683Z" fill="#B0B0B0"/>
<path d="M1091.29 158.273C1088.39 159.137 1085.77 161.753 1085.16 164.393C1083.97 169.477 1089.66 174.561 1095.36 173.5C1099.64 172.71 1102.96 168.811 1102.54 165.134C1102.24 162.543 1100.06 159.877 1097.29 158.668C1095.61 157.952 1093.01 157.779 1091.29 158.273Z" fill="#B0B0B0"/>
<path d="M1126.68 158.273C1123.77 159.137 1121.15 161.753 1120.54 164.393C1119.35 169.477 1125.04 174.561 1130.74 173.5C1135.02 172.71 1138.34 168.811 1137.92 165.134C1137.62 162.543 1135.44 159.877 1132.67 158.668C1130.99 157.952 1128.39 157.779 1126.68 158.273Z" fill="#B0B0B0"/>
<path d="M1162.05 158.273C1159.15 159.137 1156.53 161.753 1155.92 164.393C1154.73 169.477 1160.42 174.561 1166.12 173.5C1170.4 172.71 1173.72 168.811 1173.3 165.134C1173 162.543 1170.82 159.877 1168.05 158.668C1166.37 157.952 1163.77 157.779 1162.05 158.273Z" fill="#B0B0B0"/>
<path d="M1197.44 158.273C1194.53 159.137 1191.91 161.753 1191.3 164.393C1190.11 169.477 1195.8 174.561 1201.5 173.5C1205.78 172.71 1209.1 168.811 1208.68 165.134C1208.38 162.543 1206.2 159.877 1203.43 158.668C1201.75 157.952 1199.15 157.779 1197.44 158.273Z" fill="#B0B0B0"/>
<path d="M1232.81 158.273C1229.91 159.137 1227.29 161.753 1226.68 164.393C1225.49 169.477 1231.18 174.561 1236.88 173.5C1241.16 172.71 1244.48 168.811 1244.06 165.134C1243.76 162.543 1241.58 159.877 1238.81 158.668C1237.13 157.952 1234.53 157.779 1232.81 158.273Z" fill="#B0B0B0"/>
<path d="M1268.2 158.273C1265.29 159.137 1262.67 161.753 1262.06 164.393C1260.87 169.477 1266.56 174.561 1272.26 173.5C1276.54 172.71 1279.86 168.811 1279.44 165.134C1279.14 162.543 1276.96 159.877 1274.19 158.668C1272.51 157.952 1269.91 157.779 1268.2 158.273Z" fill="#B0B0B0"/>
<path d="M1303.58 158.273C1300.67 159.137 1298.05 161.753 1297.44 164.393C1296.25 169.477 1301.94 174.561 1307.64 173.5C1311.92 172.71 1315.24 168.811 1314.82 165.134C1314.52 162.543 1312.34 159.877 1309.57 158.668C1307.89 157.952 1305.29 157.779 1303.58 158.273Z" fill="#B0B0B0"/>
<path d="M1338.96 158.273C1336.05 159.137 1333.43 161.753 1332.82 164.393C1331.63 169.477 1337.32 174.561 1343.02 173.5C1347.3 172.71 1350.62 168.811 1350.2 165.134C1349.9 162.543 1347.72 159.877 1344.95 158.668C1343.27 157.952 1340.67 157.779 1338.96 158.273Z" fill="#B0B0B0"/>
<path d="M1374.34 158.273C1371.43 159.137 1368.81 161.753 1368.2 164.393C1367.01 169.477 1372.7 174.561 1378.4 173.5C1382.68 172.71 1386 168.811 1385.58 165.134C1385.28 162.543 1383.1 159.877 1380.33 158.668C1378.65 157.952 1376.05 157.779 1374.34 158.273Z" fill="#B0B0B0"/>
<path d="M1409.72 158.273C1406.81 159.137 1404.19 161.753 1403.58 164.393C1402.39 169.477 1408.08 174.561 1413.78 173.5C1418.06 172.71 1421.38 168.811 1420.96 165.134C1420.66 162.543 1418.48 159.877 1415.71 158.668C1414.03 157.952 1411.43 157.779 1409.72 158.273Z" fill="#B0B0B0"/>
<path d="M1091.29 189.863C1088.39 190.726 1085.77 193.342 1085.16 195.983C1083.97 201.067 1089.66 206.151 1095.36 205.09C1099.64 204.3 1102.96 200.401 1102.54 196.723C1102.24 194.132 1100.06 191.467 1097.29 190.257C1095.61 189.542 1093.01 189.369 1091.29 189.863Z" fill="#B0B0B0"/>
<path d="M1126.68 189.863C1123.77 190.726 1121.15 193.342 1120.54 195.983C1119.35 201.067 1125.04 206.151 1130.74 205.09C1135.02 204.3 1138.34 200.401 1137.92 196.723C1137.62 194.132 1135.44 191.467 1132.67 190.257C1130.99 189.542 1128.39 189.369 1126.68 189.863Z" fill="#B0B0B0"/>
<path d="M1162.06 189.862C1159.15 190.726 1156.53 193.342 1155.92 195.983C1155.23 198.87 1156.8 202.005 1159.84 203.856C1162.8 205.682 1166.17 205.707 1169.16 203.93C1174.05 201.018 1174.71 195.588 1170.62 191.96C1168.27 189.838 1164.9 189.023 1162.06 189.862Z" fill="#B0B0B0"/>
<path d="M1197.44 189.862C1194.53 190.726 1191.91 193.342 1191.3 195.983C1190.61 198.87 1192.18 202.005 1195.22 203.856C1198.18 205.682 1201.55 205.707 1204.54 203.93C1209.43 201.018 1210.09 195.588 1206 191.96C1203.65 189.838 1200.28 189.023 1197.44 189.862Z" fill="#B0B0B0"/>
<path d="M1232.82 189.863C1228.64 191.097 1225.82 195.193 1226.68 198.797C1227.37 201.733 1230.44 204.473 1233.73 205.09C1239.06 206.102 1244.62 201.585 1244.06 196.723C1243.76 194.132 1241.58 191.467 1238.81 190.257C1237.13 189.542 1234.53 189.369 1232.82 189.863Z" fill="#B0B0B0"/>
<path d="M1268.2 189.863C1264.02 191.097 1261.2 195.193 1262.06 198.797C1262.75 201.733 1265.82 204.473 1269.11 205.09C1274.44 206.102 1280 201.585 1279.44 196.723C1279.14 194.132 1276.96 191.467 1274.19 190.257C1272.51 189.542 1269.91 189.369 1268.2 189.863Z" fill="#B0B0B0"/>
<path d="M1303.58 189.863C1299.4 191.097 1296.58 195.193 1297.44 198.797C1298.13 201.733 1301.2 204.473 1304.49 205.09C1309.82 206.102 1315.38 201.585 1314.82 196.723C1314.52 194.132 1312.34 191.467 1309.57 190.257C1307.89 189.542 1305.29 189.369 1303.58 189.863Z" fill="#B0B0B0"/>
<path d="M1338.96 189.863C1334.78 191.097 1331.96 195.193 1332.82 198.797C1333.51 201.733 1336.58 204.473 1339.87 205.09C1345.2 206.102 1350.76 201.585 1350.2 196.723C1349.9 194.132 1347.72 191.467 1344.95 190.257C1343.27 189.542 1340.67 189.369 1338.96 189.863Z" fill="#B0B0B0"/>
<path d="M1374.34 189.863C1371.43 190.726 1368.81 193.342 1368.2 195.983C1367.01 201.067 1372.7 206.151 1378.4 205.09C1382.68 204.3 1386 200.401 1385.58 196.723C1385.28 194.132 1383.1 191.467 1380.33 190.257C1378.65 189.542 1376.05 189.369 1374.34 189.863Z" fill="#B0B0B0"/>
<path d="M1409.72 189.863C1406.81 190.726 1404.19 193.342 1403.58 195.983C1402.39 201.067 1408.08 206.151 1413.78 205.09C1418.06 204.3 1421.38 200.401 1420.96 196.723C1420.66 194.132 1418.48 191.467 1415.71 190.257C1414.03 189.542 1411.43 189.369 1409.72 189.863Z" fill="#B0B0B0"/>
<path d="M1091.29 221.452C1088.39 222.316 1085.77 224.932 1085.16 227.572C1083.97 232.656 1089.66 237.74 1095.36 236.679C1099.64 235.889 1102.96 231.99 1102.54 228.313C1102.24 225.721 1100.06 223.056 1097.29 221.847C1095.61 221.131 1093.01 220.958 1091.29 221.452Z" fill="#B0B0B0"/>
<path d="M1126.68 221.452C1123.77 222.316 1121.15 224.932 1120.54 227.572C1119.35 232.656 1125.04 237.74 1130.74 236.679C1135.02 235.889 1138.34 231.99 1137.92 228.313C1137.62 225.721 1135.44 223.056 1132.67 221.847C1130.99 221.131 1128.39 220.958 1126.68 221.452Z" fill="#B0B0B0"/>
<path d="M1162.06 221.452C1159.15 222.316 1156.53 224.932 1155.92 227.573C1155.23 230.46 1156.8 233.594 1159.84 235.445C1162.8 237.272 1166.17 237.296 1169.16 235.519C1174.05 232.607 1174.71 227.178 1170.62 223.55C1168.27 221.427 1164.9 220.613 1162.06 221.452Z" fill="#B0B0B0"/>
<path d="M1197.44 221.452C1194.53 222.316 1191.91 224.932 1191.3 227.573C1190.61 230.46 1192.18 233.594 1195.22 235.445C1198.18 237.272 1201.55 237.296 1204.54 235.519C1209.43 232.607 1210.09 227.178 1206 223.55C1203.65 221.427 1200.28 220.613 1197.44 221.452Z" fill="#B0B0B0"/>
<path d="M1232.82 221.452C1228.64 222.686 1225.82 226.783 1226.68 230.386C1227.37 233.323 1230.44 236.062 1233.73 236.679C1239.06 237.691 1244.62 233.175 1244.06 228.313C1243.76 225.721 1241.58 223.056 1238.81 221.847C1237.13 221.131 1234.53 220.958 1232.82 221.452Z" fill="#B0B0B0"/>
<path d="M1268.2 221.452C1264.02 222.686 1261.2 226.783 1262.06 230.386C1262.75 233.323 1265.82 236.062 1269.11 236.679C1274.44 237.691 1280 233.175 1279.44 228.313C1279.14 225.721 1276.96 223.056 1274.19 221.847C1272.51 221.131 1269.91 220.958 1268.2 221.452Z" fill="#B0B0B0"/>
<path d="M1303.58 221.452C1299.4 222.686 1296.58 226.783 1297.44 230.386C1298.13 233.323 1301.2 236.062 1304.49 236.679C1309.82 237.691 1315.38 233.175 1314.82 228.313C1314.52 225.721 1312.34 223.056 1309.57 221.847C1307.89 221.131 1305.29 220.958 1303.58 221.452Z" fill="#B0B0B0"/>
<path d="M1338.96 221.452C1334.78 222.686 1331.96 226.783 1332.82 230.386C1333.51 233.323 1336.58 236.062 1339.87 236.679C1345.2 237.691 1350.76 233.175 1350.2 228.313C1349.9 225.721 1347.72 223.056 1344.95 221.847C1343.27 221.131 1340.67 220.958 1338.96 221.452Z" fill="#B0B0B0"/>
<path d="M1374.34 221.452C1371.43 222.316 1368.81 224.932 1368.2 227.572C1367.01 232.656 1372.7 237.74 1378.4 236.679C1382.68 235.889 1386 231.99 1385.58 228.313C1385.28 225.721 1383.1 223.056 1380.33 221.847C1378.65 221.131 1376.05 220.958 1374.34 221.452Z" fill="#B0B0B0"/>
<path d="M1409.72 221.452C1406.81 222.316 1404.19 224.932 1403.58 227.572C1402.39 232.656 1408.08 237.74 1413.78 236.679C1418.06 235.889 1421.38 231.99 1420.96 228.313C1420.66 225.721 1418.48 223.056 1415.71 221.847C1414.03 221.131 1411.43 220.958 1409.72 221.452Z" fill="#B0B0B0"/>
<path d="M1091.29 253.042C1088.39 253.905 1085.77 256.521 1085.16 259.162C1083.97 264.246 1089.66 269.33 1095.36 268.269C1099.64 267.479 1102.96 263.58 1102.54 259.902C1102.24 257.311 1100.06 254.646 1097.29 253.436C1095.61 252.721 1093.01 252.548 1091.29 253.042Z" fill="#B0B0B0"/>
<path d="M1126.68 253.042C1123.77 253.905 1121.15 256.521 1120.54 259.162C1119.35 264.246 1125.04 269.33 1130.74 268.269C1135.02 267.479 1138.34 263.58 1137.92 259.902C1137.62 257.311 1135.44 254.646 1132.67 253.436C1130.99 252.721 1128.39 252.548 1126.68 253.042Z" fill="#B0B0B0"/>
<path d="M1162.06 253.042C1159.15 253.905 1156.53 256.521 1155.92 259.162C1155.23 262.05 1156.8 265.184 1159.84 267.035C1162.8 268.861 1166.17 268.886 1169.16 267.109C1174.05 264.197 1174.71 258.767 1170.62 255.139C1168.27 253.017 1164.9 252.203 1162.06 253.042Z" fill="#B0B0B0"/>
<path d="M1197.44 253.042C1194.53 253.905 1191.91 256.521 1191.3 259.162C1190.61 262.05 1192.18 265.184 1195.22 267.035C1198.18 268.861 1201.55 268.886 1204.54 267.109C1209.43 264.197 1210.09 258.767 1206 255.139C1203.65 253.017 1200.28 252.203 1197.44 253.042Z" fill="#B0B0B0"/>
<path d="M1232.81 253.042C1229.91 253.905 1227.29 256.521 1226.68 259.162C1225.49 264.246 1231.18 269.33 1236.88 268.269C1241.16 267.479 1244.48 263.58 1244.06 259.902C1243.76 257.311 1241.58 254.646 1238.81 253.436C1237.13 252.721 1234.53 252.548 1232.81 253.042Z" fill="#B0B0B0"/>
<path d="M1268.2 253.042C1265.29 253.905 1262.67 256.521 1262.06 259.162C1260.87 264.246 1266.56 269.33 1272.26 268.269C1276.54 267.479 1279.86 263.58 1279.44 259.902C1279.14 257.311 1276.96 254.646 1274.19 253.436C1272.51 252.721 1269.91 252.548 1268.2 253.042Z" fill="#B0B0B0"/>
<path d="M1303.58 253.042C1300.67 253.905 1298.05 256.521 1297.44 259.162C1296.25 264.246 1301.94 269.33 1307.64 268.269C1311.92 267.479 1315.24 263.58 1314.82 259.902C1314.52 257.311 1312.34 254.646 1309.57 253.436C1307.89 252.721 1305.29 252.548 1303.58 253.042Z" fill="#B0B0B0"/>
<path d="M1338.96 253.042C1336.05 253.905 1333.43 256.521 1332.82 259.162C1331.63 264.246 1337.32 269.33 1343.02 268.269C1347.3 267.479 1350.62 263.58 1350.2 259.902C1349.9 257.311 1347.72 254.646 1344.95 253.436C1343.27 252.721 1340.67 252.548 1338.96 253.042Z" fill="#B0B0B0"/>
<path d="M1374.34 253.042C1371.43 253.905 1368.81 256.521 1368.2 259.162C1367.01 264.246 1372.7 269.33 1378.4 268.269C1382.68 267.479 1386 263.58 1385.58 259.902C1385.28 257.311 1383.1 254.646 1380.33 253.436C1378.65 252.721 1376.05 252.548 1374.34 253.042Z" fill="#B0B0B0"/>
<path d="M1409.72 253.042C1406.81 253.905 1404.19 256.521 1403.58 259.162C1402.39 264.246 1408.08 269.33 1413.78 268.269C1418.06 267.479 1421.38 263.58 1420.96 259.902C1420.66 257.311 1418.48 254.646 1415.71 253.436C1414.03 252.721 1411.43 252.548 1409.72 253.042Z" fill="#B0B0B0"/>
<path d="M1091.29 284.631C1088.39 285.495 1085.77 288.111 1085.16 290.752C1083.97 295.836 1089.66 300.92 1095.36 299.858C1099.64 299.069 1102.96 295.169 1102.54 291.492C1102.24 288.901 1100.06 286.235 1097.29 285.026C1095.61 284.31 1093.01 284.138 1091.29 284.631Z" fill="#B0B0B0"/>
<path d="M1126.68 284.631C1123.77 285.495 1121.15 288.111 1120.54 290.752C1119.35 295.836 1125.04 300.92 1130.74 299.858C1135.02 299.069 1138.34 295.169 1137.92 291.492C1137.62 288.901 1135.44 286.235 1132.67 285.026C1130.99 284.31 1128.39 284.138 1126.68 284.631Z" fill="#B0B0B0"/>
<path d="M1162.05 284.631C1159.15 285.495 1156.53 288.111 1155.92 290.752C1154.73 295.836 1160.42 300.92 1166.12 299.858C1170.4 299.069 1173.72 295.169 1173.3 291.492C1173 288.901 1170.82 286.235 1168.05 285.026C1166.37 284.31 1163.77 284.138 1162.05 284.631Z" fill="#B0B0B0"/>
<path d="M1197.44 284.631C1194.53 285.495 1191.91 288.111 1191.3 290.752C1190.11 295.836 1195.8 300.92 1201.5 299.858C1205.78 299.069 1209.1 295.169 1208.68 291.492C1208.38 288.901 1206.2 286.235 1203.43 285.026C1201.75 284.31 1199.15 284.138 1197.44 284.631Z" fill="#B0B0B0"/>
<path d="M1232.81 284.631C1229.91 285.495 1227.29 288.111 1226.68 290.752C1225.49 295.836 1231.18 300.92 1236.88 299.858C1241.16 299.069 1244.48 295.169 1244.06 291.492C1243.76 288.901 1241.58 286.235 1238.81 285.026C1237.13 284.31 1234.53 284.138 1232.81 284.631Z" fill="#B0B0B0"/>
<path d="M1268.2 284.631C1265.29 285.495 1262.67 288.111 1262.06 290.752C1260.87 295.836 1266.56 300.92 1272.26 299.858C1276.54 299.069 1279.86 295.169 1279.44 291.492C1279.14 288.901 1276.96 286.235 1274.19 285.026C1272.51 284.31 1269.91 284.138 1268.2 284.631Z" fill="#B0B0B0"/>
<path d="M1303.58 284.631C1300.67 285.495 1298.05 288.111 1297.44 290.752C1296.25 295.836 1301.94 300.92 1307.64 299.858C1311.92 299.069 1315.24 295.169 1314.82 291.492C1314.52 288.901 1312.34 286.235 1309.57 285.026C1307.89 284.31 1305.29 284.138 1303.58 284.631Z" fill="#B0B0B0"/>
<path d="M1338.96 284.631C1336.05 285.495 1333.43 288.111 1332.82 290.752C1331.63 295.836 1337.32 300.92 1343.02 299.858C1347.3 299.069 1350.62 295.169 1350.2 291.492C1349.9 288.901 1347.72 286.235 1344.95 285.026C1343.27 284.31 1340.67 284.138 1338.96 284.631Z" fill="#B0B0B0"/>
<path d="M1374.34 284.631C1371.43 285.495 1368.81 288.111 1368.2 290.752C1367.01 295.836 1372.7 300.92 1378.4 299.858C1382.68 299.069 1386 295.169 1385.58 291.492C1385.28 288.901 1383.1 286.235 1380.33 285.026C1378.65 284.31 1376.05 284.138 1374.34 284.631Z" fill="#B0B0B0"/>
<path d="M1409.72 284.631C1406.81 285.495 1404.19 288.111 1403.58 290.752C1402.39 295.836 1408.08 300.92 1413.78 299.858C1418.06 299.069 1421.38 295.169 1420.96 291.492C1420.66 288.901 1418.48 286.235 1415.71 285.026C1414.03 284.31 1411.43 284.138 1409.72 284.631Z" fill="#B0B0B0"/>
</g>
</g>
<defs>
<clipPath id="clip0_111_530">
<rect width="336" height="300" fill="white" transform="translate(1085)"/>
</clipPath>
</defs>
</svg>
