<svg width="318" height="369" viewBox="0 0 318 369" fill="none" xmlns="http://www.w3.org/2000/svg">
<rect x="25" width="273" height="337" rx="15" fill="white"/>
<rect x="45" y="238" width="106.371" height="69" rx="10" fill="#FFEBEA"/>
<rect x="78.0283" y="256.729" width="39.3429" height="32.0357" rx="5" fill="#FFC5C2"/>
<ellipse cx="111.057" cy="265.6" rx="2.42857" ry="2.46429" fill="#FEA4A1"/>
<path d="M103.528 278.414L110.89 288.764H96.1671L103.528 278.414Z" fill="#FF645F"/>
<path d="M92.1144 272.5L101.369 288.764H82.8603L92.1144 272.5Z" fill="#FEA4A1"/>
<rect y="288" width="78" height="81" rx="12" fill="white"/>
<path d="M17.9691 325.419C17.5938 321.831 16.9763 318.695 17.0007 315.564C17.0126 314.038 18.2224 312.521 18.89 311C20.0976 312.296 22.1688 313.471 22.372 314.909C23.648 323.944 24.6527 333.025 25.4326 342.118C25.7294 345.579 26.6906 346.64 30.3572 346.078C38.8796 344.77 47.4721 343.857 56.065 343.121C57.8323 342.969 60.9748 343.891 61.3276 345.002C62.4075 348.404 59.1957 348.483 56.992 348.749C46.457 350.021 35.9082 351.179 25.3616 352.354C22.5795 352.664 21.1091 351.665 20.7979 348.575C20.0338 340.99 18.9477 333.437 17.9691 325.419Z" fill="#FE7A76"/>
<path d="M57.1704 321.853C55.4302 324.536 53.9147 326.918 52.3533 329.27C48.7693 334.668 47.856 334.86 42.4668 331.414C41.6365 330.883 40.8273 330.319 39.4417 329.39C37.6451 331.515 36.0562 333.8 34.0401 335.608C33.0404 336.504 31.2554 336.525 29.8256 336.942C29.8325 335.306 29.3193 333.416 29.9669 332.094C30.9632 330.061 32.7928 328.447 34.2039 326.605C37.0465 322.895 40.0837 321.411 43.9719 325.326C45.7944 327.16 47.4447 326.816 48.803 324.537C49.9923 322.542 51.1727 320.468 52.7499 318.801C53.9384 317.544 55.7482 316.876 57.2815 315.945C57.3125 317.809 57.3434 319.674 57.1704 321.853Z" fill="#FFDAD9"/>
<path d="M145.067 185.026C165.547 185.026 185.529 184.913 205.507 185.16C208.212 185.193 211.457 186.4 213.465 188.178C217.21 191.494 215.428 197.728 210.688 199.216C209.135 199.703 207.446 199.97 205.819 199.971C157.366 200.01 108.913 200.011 60.4598 199.994C54.7615 199.992 51.4983 196.593 52.0631 191.419C52.4871 187.535 55.7917 185.034 60.6478 185.032C88.6207 185.019 116.594 185.026 145.067 185.026Z" fill="#E6E8EC"/>
<path d="M109.358 207.01C121.761 207.01 133.862 206.965 145.959 207.064C147.597 207.077 149.563 207.56 150.779 208.271C153.046 209.597 151.967 212.09 149.097 212.685C148.157 212.88 147.134 212.986 146.148 212.987C116.807 213.002 87.4648 213.003 58.123 212.996C54.6723 212.995 52.6962 211.636 53.0382 209.567C53.295 208.014 55.2961 207.014 58.2368 207.013C75.1765 207.007 92.1161 207.01 109.358 207.01Z" fill="#E6E8EC"/>
<path d="M218.358 247.009C230.761 247.009 242.862 246.971 254.959 247.053C256.597 247.064 258.563 247.466 259.779 248.059C262.046 249.164 260.967 251.241 258.097 251.737C257.157 251.9 256.134 251.988 255.148 251.989C225.807 252.002 196.465 252.002 167.123 251.996C163.672 251.996 161.696 250.863 162.038 249.139C162.295 247.845 164.296 247.011 167.237 247.011C184.176 247.006 201.116 247.009 218.358 247.009Z" fill="#E6E8EC"/>
<path d="M185.34 283.009C190.477 283.009 195.488 282.971 200.498 283.053C201.177 283.064 201.991 283.466 202.494 284.059C203.433 285.164 202.986 287.241 201.798 287.737C201.408 287.9 200.985 287.988 200.577 287.989C188.425 288.002 176.273 288.002 164.122 287.996C162.693 287.996 161.874 286.863 162.016 285.139C162.122 283.845 162.951 283.011 164.169 283.011C171.184 283.006 178.2 283.009 185.34 283.009Z" fill="#E6E8EC"/>
<path d="M218.358 274.009C230.761 274.009 242.862 273.971 254.959 274.053C256.597 274.064 258.563 274.466 259.779 275.059C262.046 276.164 260.967 278.241 258.097 278.737C257.157 278.9 256.134 278.988 255.148 278.989C225.807 279.002 196.465 279.002 167.123 278.996C163.672 278.996 161.696 277.863 162.038 276.139C162.295 274.845 164.296 274.011 167.237 274.011C184.176 274.006 201.116 274.009 218.358 274.009Z" fill="#E6E8EC"/>
<path d="M218.358 265.009C230.761 265.009 242.862 264.971 254.959 265.053C256.597 265.064 258.563 265.466 259.779 266.059C262.046 267.164 260.967 269.241 258.097 269.737C257.157 269.9 256.134 269.988 255.148 269.989C225.807 270.002 196.465 270.002 167.123 269.996C163.672 269.996 161.696 268.863 162.038 267.139C162.295 265.845 164.296 265.011 167.237 265.011C184.176 265.006 201.116 265.009 218.358 265.009Z" fill="#E6E8EC"/>
<path d="M218.358 256.009C230.761 256.009 242.862 255.971 254.959 256.053C256.597 256.064 258.563 256.466 259.779 257.059C262.046 258.164 260.967 260.241 258.097 260.737C257.157 260.9 256.134 260.988 255.148 260.989C225.807 261.002 196.465 261.002 167.123 260.996C163.672 260.996 161.696 259.863 162.038 258.139C162.295 256.845 164.296 256.011 167.237 256.011C184.176 256.006 201.116 256.009 218.358 256.009Z" fill="#E6E8EC"/>
<path d="M276.785 276.334C270.685 272.648 268.404 267.31 267.943 259.594C273.34 261.193 278.168 262.461 282.88 264.066C287.49 265.636 288.625 265.02 288.889 260.384C289.143 255.926 289.656 251.481 289.855 247.021C290.009 243.588 291.753 243.66 294.18 244.69C304.874 249.227 308.756 264.867 298.732 274.024C292.161 280.027 284.835 280.258 276.785 276.334Z" fill="#EDEEEF"/>
<path d="M284.88 253.981C285.165 258.74 284.216 260.881 279.301 258.418C276.387 256.959 273.045 256.293 269.841 255.491C266.618 254.684 266.463 252.958 267.766 250.357C270.57 244.761 275.197 241.584 281.14 240.237C284.232 239.537 286.439 240.254 285.913 244.198C285.498 247.304 285.23 250.429 284.88 253.981Z" fill="#C1C6CD"/>
<rect x="251.124" y="224" width="67" height="67" rx="15" transform="rotate(6.10374 251.124 224)" fill="white"/>
<path d="M271.785 278.334C265.685 274.648 263.404 269.31 262.943 261.594C268.34 263.193 273.168 264.461 277.88 266.066C282.49 267.636 283.625 267.02 283.889 262.384C284.143 257.926 284.656 253.481 284.855 249.021C285.009 245.588 286.753 245.66 289.18 246.69C299.874 251.227 303.756 266.867 293.732 276.024C287.161 282.027 279.835 282.258 271.785 278.334Z" fill="#EDEEEF"/>
<path d="M279.88 255.981C280.165 260.74 279.216 262.881 274.301 260.418C271.387 258.959 268.045 258.293 264.841 257.491C261.618 256.684 261.463 254.958 262.766 252.357C265.57 246.761 270.197 243.584 276.14 242.237C279.232 241.537 281.439 242.254 280.913 246.198C280.498 249.304 280.23 252.429 279.88 255.981Z" fill="#C1C6CD"/>
<path d="M190.728 127.248C190.118 127.094 189.498 126.607 188.846 125.8C189.449 125.958 190.083 126.437 190.728 127.248Z" fill="#FED7A1"/>
<path d="M187.711 123.28C187.109 123.105 186.506 122.598 185.888 121.77C186.485 121.948 187.097 122.448 187.711 123.28Z" fill="#FED7A1"/>
<rect x="53" y="30" width="219" height="140" rx="20" fill="#FFEBEA"/>
<rect x="121" y="68" width="81" height="65" rx="10" fill="#FFC5C2"/>
<circle cx="189" cy="86" r="5" fill="#FEA4A1"/>
<path d="M173.5 112L188.655 133H158.345L173.5 112Z" fill="#FF645F"/>
<path d="M150 100L169.053 133H130.947L150 100Z" fill="#FEA4A1"/>
</svg>
