<svg width="333" height="395" viewBox="0 0 333 395" fill="none" xmlns="http://www.w3.org/2000/svg">
<g filter="url(#filter0_d_4_1220)">
<rect x="37" width="273" height="357" rx="15" fill="white"/>
</g>
<rect x="57" y="238" width="106.371" height="78" rx="10" fill="#FFEBEA"/>
<rect x="90.0283" y="259.172" width="39.3429" height="36.2143" rx="5" fill="#FFC5C2"/>
<ellipse cx="123.057" cy="269.2" rx="2.42857" ry="2.78571" fill="#FEA4A1"/>
<path d="M115.528 283.686L122.89 295.386H108.167L115.528 283.686Z" fill="#FF645F"/>
<path d="M104.114 277L113.369 295.386H94.8603L104.114 277Z" fill="#FEA4A1"/>
<g filter="url(#filter1_d_4_1220)">
<rect x="2" y="295" width="88" height="94" rx="12" fill="white"/>
<path d="M25.0933 334.733C24.67 330.57 23.9732 326.93 24.0008 323.297C24.0142 321.525 25.3791 319.765 26.1323 318C27.4947 319.504 29.8315 320.867 30.0607 322.536C31.5004 333.021 32.6338 343.56 33.5137 354.112C33.8486 358.129 34.933 359.36 39.0696 358.707C48.6847 357.19 58.3788 356.13 68.0734 355.276C70.0673 355.1 73.6126 356.17 74.0107 357.459C75.229 361.407 71.6055 361.499 69.1192 361.808C57.2336 363.284 45.3323 364.628 33.4336 365.991C30.2948 366.35 28.6359 365.192 28.2848 361.606C27.4227 352.803 26.1974 344.038 25.0933 334.733Z" fill="#FE7A76"/>
<path d="M69.3202 330.594C67.3568 333.708 65.6471 336.473 63.8855 339.202C59.842 345.467 58.8116 345.689 52.7315 341.69C51.7948 341.074 50.8818 340.419 49.3185 339.342C47.2917 341.808 45.499 344.459 43.2245 346.557C42.0966 347.597 40.0827 347.622 38.4697 348.105C38.4774 346.207 37.8984 344.013 38.6291 342.48C39.7531 340.12 41.8172 338.246 43.4092 336.109C46.6163 331.803 50.0428 330.082 54.4295 334.624C56.4857 336.754 58.3476 336.354 59.88 333.71C61.2217 331.394 62.5535 328.988 64.3329 327.053C65.6738 325.595 67.7157 324.818 69.4455 323.739C69.4805 325.902 69.5154 328.065 69.3202 330.594Z" fill="#FFDAD9"/>
</g>
<path d="M157.067 185.026C177.547 185.026 197.529 184.913 217.507 185.16C220.212 185.193 223.457 186.4 225.465 188.178C229.21 191.494 227.428 197.728 222.688 199.216C221.135 199.703 219.446 199.97 217.819 199.971C169.366 200.01 120.913 200.011 72.4598 199.994C66.7615 199.992 63.4983 196.593 64.0631 191.419C64.4871 187.535 67.7917 185.034 72.6478 185.032C100.621 185.019 128.594 185.026 157.067 185.026Z" fill="#E6E8EC"/>
<path d="M121.358 207.01C133.761 207.01 145.862 206.965 157.959 207.064C159.597 207.077 161.563 207.56 162.779 208.271C165.046 209.597 163.967 212.09 161.097 212.685C160.157 212.88 159.134 212.986 158.148 212.987C128.807 213.002 99.4648 213.003 70.123 212.996C66.6723 212.995 64.6962 211.636 65.0382 209.567C65.295 208.014 67.2961 207.014 70.2368 207.013C87.1765 207.007 104.116 207.01 121.358 207.01Z" fill="#E6E8EC"/>
<path d="M230.358 247.009C242.761 247.009 254.862 246.971 266.959 247.053C268.597 247.064 270.563 247.466 271.779 248.059C274.046 249.164 272.967 251.241 270.097 251.737C269.157 251.9 268.134 251.988 267.148 251.989C237.807 252.002 208.465 252.002 179.123 251.996C175.672 251.996 173.696 250.863 174.038 249.139C174.295 247.845 176.296 247.011 179.237 247.011C196.176 247.006 213.116 247.009 230.358 247.009Z" fill="#E6E8EC"/>
<path d="M197.34 283.009C202.477 283.009 207.488 282.971 212.498 283.053C213.177 283.064 213.991 283.466 214.494 284.059C215.433 285.164 214.986 287.241 213.798 287.737C213.408 287.9 212.985 287.988 212.577 287.989C200.425 288.002 188.273 288.002 176.122 287.996C174.693 287.996 173.874 286.863 174.016 285.139C174.122 283.845 174.951 283.011 176.169 283.011C183.184 283.006 190.2 283.009 197.34 283.009Z" fill="#E6E8EC"/>
<path d="M230.358 274.009C242.761 274.009 254.862 273.971 266.959 274.053C268.597 274.064 270.563 274.466 271.779 275.059C274.046 276.164 272.967 278.241 270.097 278.737C269.157 278.9 268.134 278.988 267.148 278.989C237.807 279.002 208.465 279.002 179.123 278.996C175.672 278.996 173.696 277.863 174.038 276.139C174.295 274.845 176.296 274.011 179.237 274.011C196.176 274.006 213.116 274.009 230.358 274.009Z" fill="#E6E8EC"/>
<path d="M230.358 265.009C242.761 265.009 254.862 264.971 266.959 265.053C268.597 265.064 270.563 265.466 271.779 266.059C274.046 267.164 272.967 269.241 270.097 269.737C269.157 269.9 268.134 269.988 267.148 269.989C237.807 270.002 208.465 270.002 179.123 269.996C175.672 269.996 173.696 268.863 174.038 267.139C174.295 265.845 176.296 265.011 179.237 265.011C196.176 265.006 213.116 265.009 230.358 265.009Z" fill="#E6E8EC"/>
<path d="M230.358 256.009C242.761 256.009 254.862 255.971 266.959 256.053C268.597 256.064 270.563 256.466 271.779 257.059C274.046 258.164 272.967 260.241 270.097 260.737C269.157 260.9 268.134 260.988 267.148 260.989C237.807 261.002 208.465 261.002 179.123 260.996C175.672 260.996 173.696 259.863 174.038 258.139C174.295 256.845 176.296 256.011 179.237 256.011C196.176 256.006 213.116 256.009 230.358 256.009Z" fill="#E6E8EC"/>
<path d="M288.785 276.334C282.685 272.648 280.404 267.31 279.943 259.594C285.34 261.193 290.168 262.461 294.88 264.066C299.49 265.636 300.625 265.02 300.889 260.384C301.143 255.926 301.656 251.481 301.855 247.021C302.009 243.588 303.753 243.66 306.18 244.69C316.874 249.227 320.756 264.867 310.732 274.024C304.161 280.027 296.835 280.258 288.785 276.334Z" fill="#EDEEEF"/>
<path d="M296.88 253.981C297.165 258.74 296.216 260.881 291.301 258.418C288.387 256.959 285.045 256.293 281.841 255.491C278.618 254.684 278.463 252.958 279.766 250.357C282.57 244.761 287.197 241.584 293.14 240.237C296.232 239.537 298.439 240.254 297.913 244.198C297.498 247.304 297.23 250.429 296.88 253.981Z" fill="#C1C6CD"/>
<g filter="url(#filter2_d_4_1220)">
<g filter="url(#filter3_d_4_1220)">
<rect x="263.124" y="224" width="67" height="67" rx="15" transform="rotate(6.10374 263.124 224)" fill="white" shape-rendering="crispEdges"/>
<rect x="263.124" y="224" width="67" height="67" rx="15" transform="rotate(6.10374 263.124 224)" stroke="#F7F7F7" stroke-opacity="0.03" shape-rendering="crispEdges"/>
</g>
<path d="M283.785 278.334C277.685 274.648 275.404 269.31 274.943 261.594C280.34 263.193 285.168 264.461 289.88 266.066C294.49 267.636 295.625 267.02 295.889 262.384C296.143 257.926 296.656 253.481 296.855 249.021C297.009 245.588 298.753 245.66 301.18 246.69C311.874 251.227 315.756 266.867 305.732 276.024C299.161 282.027 291.835 282.258 283.785 278.334Z" fill="#EDEEEF"/>
<path d="M291.88 255.981C292.165 260.74 291.216 262.881 286.301 260.418C283.387 258.959 280.045 258.293 276.841 257.491C273.618 256.684 273.463 254.958 274.766 252.357C277.57 246.761 282.197 243.584 288.14 242.237C291.232 241.537 293.439 242.254 292.913 246.198C292.498 249.304 292.23 252.429 291.88 255.981Z" fill="#C1C6CD"/>
</g>
<path d="M202.728 127.248C202.118 127.094 201.498 126.607 200.846 125.8C201.449 125.958 202.083 126.437 202.728 127.248Z" fill="#FED7A1"/>
<path d="M199.711 123.28C199.109 123.105 198.506 122.598 197.888 121.77C198.485 121.948 199.097 122.448 199.711 123.28Z" fill="#FED7A1"/>
<rect x="65" y="30" width="219" height="140" rx="20" fill="#FFEBEA"/>
<rect x="133" y="68" width="81" height="65" rx="10" fill="#FFC5C2"/>
<circle cx="201" cy="86" r="5" fill="#FEA4A1"/>
<path d="M185.5 112L200.655 133H170.345L185.5 112Z" fill="#FF645F"/>
<path d="M162 100L181.053 133H142.947L162 100Z" fill="#FEA4A1"/>
<defs>
<filter id="filter0_d_4_1220" x="33" y="0" width="281" height="365" filterUnits="userSpaceOnUse" color-interpolation-filters="sRGB">
<feFlood flood-opacity="0" result="BackgroundImageFix"/>
<feColorMatrix in="SourceAlpha" type="matrix" values="0 0 0 0 0 0 0 0 0 0 0 0 0 0 0 0 0 0 127 0" result="hardAlpha"/>
<feOffset dy="4"/>
<feGaussianBlur stdDeviation="2"/>
<feComposite in2="hardAlpha" operator="out"/>
<feColorMatrix type="matrix" values="0 0 0 0 0 0 0 0 0 0 0 0 0 0 0 0 0 0 0.03 0"/>
<feBlend mode="normal" in2="BackgroundImageFix" result="effect1_dropShadow_4_1220"/>
<feBlend mode="normal" in="SourceGraphic" in2="effect1_dropShadow_4_1220" result="shape"/>
</filter>
<filter id="filter1_d_4_1220" x="0" y="295" width="92" height="100" filterUnits="userSpaceOnUse" color-interpolation-filters="sRGB">
<feFlood flood-opacity="0" result="BackgroundImageFix"/>
<feColorMatrix in="SourceAlpha" type="matrix" values="0 0 0 0 0 0 0 0 0 0 0 0 0 0 0 0 0 0 127 0" result="hardAlpha"/>
<feOffset dy="4"/>
<feGaussianBlur stdDeviation="1"/>
<feComposite in2="hardAlpha" operator="out"/>
<feColorMatrix type="matrix" values="0 0 0 0 0 0 0 0 0 0 0 0 0 0 0 0 0 0 0.05 0"/>
<feBlend mode="normal" in2="BackgroundImageFix" result="effect1_dropShadow_4_1220"/>
<feBlend mode="normal" in="SourceGraphic" in2="effect1_dropShadow_4_1220" result="shape"/>
</filter>
<filter id="filter2_d_4_1220" x="253.009" y="225.009" width="79.7266" height="79.7271" filterUnits="userSpaceOnUse" color-interpolation-filters="sRGB">
<feFlood flood-opacity="0" result="BackgroundImageFix"/>
<feColorMatrix in="SourceAlpha" type="matrix" values="0 0 0 0 0 0 0 0 0 0 0 0 0 0 0 0 0 0 127 0" result="hardAlpha"/>
<feOffset dy="4"/>
<feGaussianBlur stdDeviation="2"/>
<feComposite in2="hardAlpha" operator="out"/>
<feColorMatrix type="matrix" values="0 0 0 0 0 0 0 0 0 0 0 0 0 0 0 0 0 0 0.02 0"/>
<feBlend mode="normal" in2="BackgroundImageFix" result="effect1_dropShadow_4_1220"/>
<feBlend mode="normal" in="SourceGraphic" in2="effect1_dropShadow_4_1220" result="shape"/>
</filter>
<filter id="filter3_d_4_1220" x="253.009" y="225.009" width="79.7266" height="79.7271" filterUnits="userSpaceOnUse" color-interpolation-filters="sRGB">
<feFlood flood-opacity="0" result="BackgroundImageFix"/>
<feColorMatrix in="SourceAlpha" type="matrix" values="0 0 0 0 0 0 0 0 0 0 0 0 0 0 0 0 0 0 127 0" result="hardAlpha"/>
<feOffset dy="4"/>
<feGaussianBlur stdDeviation="2"/>
<feComposite in2="hardAlpha" operator="out"/>
<feColorMatrix type="matrix" values="0 0 0 0 0 0 0 0 0 0 0 0 0 0 0 0 0 0 0.02 0"/>
<feBlend mode="normal" in2="BackgroundImageFix" result="effect1_dropShadow_4_1220"/>
<feBlend mode="normal" in="SourceGraphic" in2="effect1_dropShadow_4_1220" result="shape"/>
</filter>
</defs>
</svg>
