<svg width="43" height="43" viewBox="0 0 43 43" fill="none" xmlns="http://www.w3.org/2000/svg">
<g clip-path="url(#clip0_289_475)">
<path d="M37.2658 12.8104C37.2623 9.64559 34.6972 7.08057 31.5324 7.07707H29.3502C28.9793 3.01782 25.5755 -0.0895996 21.4991 -0.0895996C17.4227 -0.0895996 14.0189 3.01782 13.648 7.07707H11.4658C8.2992 7.07707 5.73242 9.64384 5.73242 12.8104C5.73242 15.977 8.2992 18.5437 11.4658 18.5437H19.3491V17.1104H11.4658C9.0911 17.1104 7.16576 15.1851 7.16576 12.8104C7.16576 10.4357 9.0911 8.5104 11.4658 8.5104H15.0491V7.79373C15.0491 4.2314 17.9368 1.34373 21.4991 1.34373C25.0614 1.34373 27.9491 4.2314 27.9491 7.79373V8.5104H31.5324C33.9071 8.5104 35.8324 10.4357 35.8324 12.8104C35.8324 15.1851 33.9071 17.1104 31.5324 17.1104H23.6491V18.5437H31.5324C34.6972 18.5402 37.2623 15.9752 37.2658 12.8104Z" fill="#910078"/>
<path d="M34.3991 40.7604V28.5771C34.3977 27.3901 33.4361 26.4285 32.2491 26.4271H30.8158V24.8618C31.7588 24.5301 32.3478 23.5908 32.2354 22.5974C32.1231 21.6039 31.3389 20.8197 30.3454 20.7074C29.352 20.595 28.4128 21.184 28.081 22.1271H22.2158V13.1071L23.8591 14.7504L24.8725 13.737L21.4991 10.3636L18.1257 13.737L19.1391 14.7504L20.7824 13.1071V22.1271H14.9172C14.5854 21.184 13.6462 20.5947 12.6527 20.7074C11.6593 20.8197 10.8751 21.6036 10.7627 22.597C10.6504 23.5905 11.2393 24.5301 12.1824 24.8615V27.1437H7.88242C6.69544 27.1451 5.73382 28.1067 5.73242 29.2937V37.8937C5.73382 39.0807 6.69544 40.0423 7.88242 40.0437H12.1824V41.4771H10.0324V42.9104H15.7658V41.4771H13.6158V40.0437H17.9158C19.1027 40.0423 20.0644 39.0807 20.0658 37.8937V29.2937C20.0644 28.1067 19.1027 27.1451 17.9158 27.1437H13.6158V24.8618C14.2229 24.6452 14.7006 24.1675 14.9172 23.5604H28.081C28.2976 24.1675 28.7753 24.6452 29.3824 24.8615V26.4271H25.0824C23.8954 26.4285 22.9338 27.3901 22.9324 28.5771V40.7604C22.9338 41.9474 23.8954 42.909 25.0824 42.9104H32.2491C33.4361 42.909 34.3977 41.9474 34.3991 40.7604ZM18.6324 37.8937C18.6321 38.2895 18.3115 38.61 17.9158 38.6104H7.88242C7.48665 38.61 7.16611 38.2895 7.16576 37.8937V36.4604H18.6324V37.8937ZM17.9158 28.5771C18.3115 28.5774 18.6321 28.898 18.6324 29.2937V35.0271H7.16576V29.2937C7.16611 28.898 7.48665 28.5774 7.88242 28.5771H17.9158ZM12.8991 23.5604C12.5033 23.5604 12.1824 23.2395 12.1824 22.8437C12.1824 22.448 12.5033 22.1271 12.8991 22.1271C13.2949 22.1271 13.6158 22.448 13.6158 22.8437C13.6154 23.2395 13.2949 23.56 12.8991 23.5604ZM30.0991 22.1271C30.4949 22.1271 30.8158 22.448 30.8158 22.8437C30.8158 23.2395 30.4949 23.5604 30.0991 23.5604C29.7033 23.5604 29.3824 23.2395 29.3824 22.8437C29.3828 22.448 29.7033 22.1274 30.0991 22.1271ZM24.3658 28.5771C24.3661 28.1813 24.6866 27.8607 25.0824 27.8604H32.2491C32.6449 27.8607 32.9654 28.1813 32.9658 28.5771V37.8937H24.3658V28.5771ZM24.3658 40.7604V39.3271H32.9658V40.7604C32.9654 41.1562 32.6449 41.4767 32.2491 41.4771H25.0824C24.6866 41.4767 24.3661 41.1562 24.3658 40.7604Z" fill="#910078"/>
</g>
<defs>
<clipPath id="clip0_289_475">
<rect width="43" height="43" fill="white"/>
</clipPath>
</defs>
</svg>
