<svg width="38" height="38" viewBox="0 0 38 38" fill="none" xmlns="http://www.w3.org/2000/svg">
<g clip-path="url(#clip0_289_488)">
<path d="M30.913 17.999H34.0637C34.1897 18.4685 34.4821 18.8761 34.8863 19.146C35.2906 19.416 35.7792 19.5297 36.2611 19.4662C36.743 19.4026 37.1854 19.1661 37.5058 18.8006C37.8263 18.4351 38.003 17.9656 38.003 17.4795C38.003 16.9934 37.8263 16.5239 37.5058 16.1584C37.1854 15.7929 36.743 15.5563 36.2611 15.4928C35.7792 15.4292 35.2906 15.543 34.8863 15.8129C34.4821 16.0828 34.1897 16.4905 34.0637 16.9599H30.913V14.4436H33.2508C33.3334 14.4436 33.4148 14.4239 33.4883 14.3862C33.5618 14.3484 33.6252 14.2937 33.6733 14.2266L35.2942 11.9623C35.749 12.1322 36.25 12.131 36.704 11.9589C37.1579 11.7868 37.5339 11.4556 37.7618 11.027C37.9897 10.5983 38.054 10.1015 37.9429 9.62892C37.8317 9.15636 37.5525 8.74031 37.1574 8.45826C36.7623 8.17621 36.2781 8.04737 35.7951 8.09575C35.312 8.14413 34.863 8.36642 34.5317 8.72123C34.2003 9.07604 34.0092 9.53919 33.994 10.0244C33.9787 10.5096 34.1403 10.9839 34.4487 11.3588L32.9837 13.4046H30.9127V11.4781C30.9127 11.3404 30.8579 11.2082 30.7605 11.1108C30.6631 11.0133 30.5309 10.9586 30.3931 10.9586C29.5896 10.9585 28.8066 10.7045 28.1559 10.233L31.0222 6.70024C31.4677 6.90009 31.9707 6.93111 32.4375 6.78753C32.9042 6.64395 33.3027 6.33556 33.5589 5.91984C33.815 5.50412 33.9113 5.00944 33.8297 4.528C33.7481 4.04657 33.4942 3.61123 33.1154 3.30314C32.7365 2.99505 32.2586 2.83522 31.7706 2.85345C31.2827 2.87169 30.818 3.06673 30.4632 3.40224C30.1084 3.73774 29.8877 4.19081 29.8423 4.67699C29.7968 5.16317 29.9297 5.64929 30.2162 6.04474L27.3991 9.51817C26.8522 8.83905 26.554 7.99322 26.5542 7.1212C26.5542 6.98344 26.4994 6.85134 26.402 6.75393C26.3046 6.65651 26.1725 6.60175 26.0347 6.60167H11.9667C11.8289 6.60175 11.6968 6.65651 11.5994 6.75393C11.502 6.85134 11.4472 6.98344 11.4472 7.1212C11.4474 7.99322 11.1492 8.83905 10.6023 9.51817L7.78521 6.04444C8.0705 5.64999 8.20266 5.16529 8.15708 4.68062C8.1115 4.19596 7.89128 3.74439 7.53746 3.41005C7.18363 3.07571 6.72033 2.8814 6.23386 2.86331C5.7474 2.84523 5.27095 3.0046 4.89327 3.31175C4.5156 3.6189 4.26246 4.05286 4.18102 4.53281C4.09958 5.01275 4.19539 5.50593 4.4506 5.92047C4.70581 6.33501 5.10301 6.64264 5.56821 6.78604C6.03342 6.92945 6.53488 6.89884 6.9792 6.69994L9.84552 10.2328C9.19482 10.7042 8.41183 10.9582 7.60827 10.9583C7.47049 10.9583 7.33834 11.0131 7.24091 11.1105C7.14348 11.2079 7.08874 11.3401 7.08874 11.4778V13.4043H5.01804L3.55326 11.3585C3.86621 10.9802 4.03083 10.5009 4.01641 10.0101C4.002 9.51936 3.80953 9.05059 3.47492 8.69129C3.1403 8.33198 2.6864 8.10668 2.19789 8.05741C1.70938 8.00814 1.21964 8.13828 0.820019 8.42354C0.420401 8.7088 0.13821 9.1297 0.0260921 9.60772C-0.0860258 10.0857 -0.0204124 10.5882 0.210691 11.0214C0.441795 11.4546 0.822604 11.7889 1.28207 11.962C1.74154 12.1351 2.24828 12.1351 2.70776 11.962L4.3287 14.2263C4.37675 14.2935 4.4401 14.3482 4.51351 14.386C4.58693 14.4238 4.66829 14.4435 4.75085 14.4436H7.08874V16.9599H3.93801C3.81199 16.4905 3.51962 16.0828 3.11536 15.8129C2.71111 15.543 2.22252 15.4292 1.74061 15.4928C1.25869 15.5563 0.816312 15.7929 0.495855 16.1584C0.175399 16.5239 -0.00128376 16.9934 -0.00128376 17.4795C-0.00128376 17.9656 0.175399 18.4351 0.495855 18.8006C0.816312 19.1661 1.25869 19.4026 1.74061 19.4662C2.22252 19.5297 2.71111 19.416 3.11536 19.146C3.51962 18.8761 3.81199 18.4685 3.93801 17.999H7.08874V20.9277C7.08874 21.058 7.09617 21.1871 7.10062 21.3169H4.5282C4.43186 21.3169 4.33742 21.3437 4.25544 21.3943C4.17345 21.4449 4.10713 21.5173 4.06388 21.6034L2.40851 24.9019C1.92971 24.801 1.43055 24.8777 1.00409 25.1176C0.57764 25.3575 0.253005 25.7444 0.0907179 26.206C-0.071569 26.6676 -0.0604295 27.1725 0.12206 27.6266C0.304549 28.0806 0.645931 28.4527 1.08255 28.6736C1.51917 28.8945 2.02123 28.9491 2.49511 28.8271C2.96899 28.7052 3.38235 28.4151 3.65811 28.0109C3.93388 27.6066 4.05322 27.1159 3.99389 26.6302C3.93456 26.1445 3.7006 25.697 3.33565 25.371L4.84882 22.3548H7.18523C7.4965 24.7145 8.57403 26.9068 10.2522 28.5948L6.8839 31.4768C6.48083 31.199 5.99047 31.0772 5.50425 31.1343C5.01803 31.1913 4.56915 31.4232 4.2413 31.7868C3.91346 32.1503 3.72903 32.6207 3.72241 33.1102C3.71579 33.5997 3.88743 34.0749 4.20532 34.4472C4.52321 34.8195 4.96566 35.0635 5.45015 35.1336C5.93465 35.2038 6.42813 35.0953 6.83856 34.8285C7.249 34.5617 7.54838 34.1547 7.68088 33.6834C7.81338 33.2121 7.76995 32.7087 7.5587 32.2671L11.0283 29.2984C11.2871 29.513 11.5537 29.7202 11.8346 29.9117L18.7081 34.6023C18.7946 34.6607 18.8965 34.6918 19.0008 34.6918C19.1052 34.6918 19.2071 34.6607 19.2936 34.6023L26.1671 29.9117C26.448 29.7202 26.7146 29.513 26.9734 29.2984L30.443 32.2671C30.2341 32.7058 30.1918 33.2055 30.324 33.6731C30.4561 34.1408 30.7537 34.5444 31.1614 34.8089C31.569 35.0734 32.0589 35.1807 32.5397 35.1108C33.0206 35.041 33.4597 34.7987 33.7752 34.4292C34.0908 34.0596 34.2612 33.588 34.2549 33.1021C34.2485 32.6163 34.0658 32.1492 33.7407 31.7881C33.4156 31.4269 32.9704 31.1962 32.4878 31.139C32.0053 31.0817 31.5184 31.2018 31.1178 31.4768L27.7495 28.5948C29.4277 26.9068 30.5052 24.7145 30.8165 22.3548H33.1526L34.6666 25.3698C34.3092 25.6917 34.0809 26.1325 34.024 26.6102C33.9672 27.0879 34.0858 27.5699 34.3577 27.9667C34.6296 28.3635 35.0364 28.6481 35.5024 28.7675C35.9684 28.8869 36.4619 28.833 36.8911 28.6158C37.3203 28.3987 37.6561 28.033 37.836 27.5869C38.0158 27.1407 38.0276 26.6444 37.869 26.1903C37.7104 25.7361 37.3923 25.355 36.9738 25.1179C36.5553 24.8807 36.0649 24.8035 35.5938 24.9008L33.9384 21.6022C33.8952 21.5161 33.8288 21.4437 33.7469 21.3931C33.6649 21.3425 33.5704 21.3157 33.4741 21.3157H30.9017C30.9061 21.186 30.9135 21.0568 30.9135 20.9265L30.913 17.999ZM35.9969 16.5146C36.1878 16.5146 36.3743 16.5712 36.533 16.6772C36.6916 16.7832 36.8153 16.9339 36.8883 17.1102C36.9614 17.2865 36.9805 17.4805 36.9432 17.6677C36.906 17.8549 36.8141 18.0268 36.6792 18.1617C36.5443 18.2967 36.3723 18.3885 36.1852 18.4258C35.998 18.463 35.804 18.4439 35.6277 18.3709C35.4514 18.2978 35.3007 18.1742 35.1947 18.0155C35.0887 17.8568 35.0321 17.6703 35.0321 17.4795C35.0324 17.2237 35.1342 16.9784 35.315 16.7976C35.4959 16.6167 35.7411 16.5149 35.9969 16.5146ZM35.9969 9.12244C36.1878 9.12244 36.3743 9.17903 36.533 9.28504C36.6916 9.39106 36.8153 9.54175 36.8883 9.71805C36.9614 9.89436 36.9805 10.0884 36.9432 10.2755C36.906 10.4627 36.8141 10.6346 36.6792 10.7695C36.5443 10.9045 36.3723 10.9964 36.1852 11.0336C35.998 11.0708 35.804 11.0517 35.6277 10.9787C35.4514 10.9057 35.3007 10.782 35.1947 10.6233C35.0887 10.4647 35.0321 10.2781 35.0321 10.0873C35.0326 9.83164 35.1345 9.58664 35.3154 9.40596C35.4962 9.22527 35.7413 9.12364 35.9969 9.12333V9.12244ZM1.03992 10.0882C1.03992 9.89734 1.0965 9.7108 1.20252 9.55213C1.30854 9.39347 1.45923 9.2698 1.63553 9.19677C1.81183 9.12375 2.00583 9.10464 2.19299 9.14187C2.38015 9.1791 2.55207 9.27099 2.68701 9.40593C2.82194 9.54086 2.91384 9.71278 2.95106 9.89994C2.98829 10.0871 2.96919 10.2811 2.89616 10.4574C2.82313 10.6337 2.69947 10.7844 2.5408 10.8904C2.38213 10.9964 2.19559 11.053 2.00476 11.053C1.74896 11.0527 1.50374 10.9509 1.32286 10.7701C1.14198 10.5892 1.04023 10.344 1.03992 10.0882ZM2.00476 18.4443C1.81393 18.4443 1.62739 18.3877 1.46872 18.2817C1.31005 18.1757 1.18639 18.025 1.11336 17.8487C1.04033 17.6724 1.02123 17.4784 1.05846 17.2912C1.09568 17.1041 1.18758 16.9322 1.32251 16.7972C1.45745 16.6623 1.62937 16.5704 1.81653 16.5332C2.00369 16.4959 2.19769 16.515 2.37399 16.5881C2.55029 16.6611 2.70098 16.7848 2.807 16.9434C2.91302 17.1021 2.9696 17.2886 2.9696 17.4795C2.96929 17.7353 2.86754 17.9805 2.68666 18.1614C2.50578 18.3422 2.26056 18.444 2.00476 18.4443ZM2.00476 27.8297C1.81393 27.8297 1.62739 27.7731 1.46872 27.6671C1.31005 27.5611 1.18639 27.4104 1.11336 27.2341C1.04033 27.0578 1.02123 26.8638 1.05846 26.6766C1.09568 26.4895 1.18758 26.3176 1.32251 26.1826C1.45745 26.0477 1.62937 25.9558 1.81653 25.9186C2.00369 25.8813 2.19769 25.9005 2.37399 25.9735C2.55029 26.0465 2.70098 26.1702 2.807 26.3288C2.91302 26.4875 2.9696 26.674 2.9696 26.8649C2.96929 27.1207 2.86754 27.3659 2.68666 27.5468C2.50578 27.7277 2.26056 27.8294 2.00476 27.8297ZM36.9618 26.8649C36.9618 27.0557 36.9052 27.2422 36.7992 27.4009C36.6932 27.5596 36.5425 27.6832 36.3662 27.7563C36.1899 27.8293 35.9959 27.8484 35.8087 27.8112C35.6215 27.774 35.4496 27.6821 35.3147 27.5471C35.1798 27.4122 35.0879 27.2403 35.0506 27.0531C35.0134 26.8659 35.0325 26.6719 35.1055 26.4956C35.1786 26.3193 35.3022 26.1687 35.4609 26.0626C35.6196 25.9566 35.8061 25.9 35.9969 25.9C36.2527 25.9003 36.498 26.0021 36.6788 26.183C36.8597 26.3639 36.9615 26.6091 36.9618 26.8649ZM31.8377 3.90635C32.0285 3.90635 32.2151 3.96293 32.3738 4.06895C32.5324 4.17497 32.6561 4.32566 32.7291 4.50196C32.8021 4.67826 32.8213 4.87226 32.784 5.05942C32.7468 5.24658 32.6549 5.4185 32.52 5.55344C32.385 5.68837 32.2131 5.78026 32.026 5.81749C31.8388 5.85472 31.6448 5.83562 31.4685 5.76259C31.2922 5.68956 31.1415 5.5659 31.0355 5.40723C30.9295 5.24856 30.8729 5.06202 30.8729 4.87119C30.8732 4.61539 30.9749 4.37016 31.1558 4.18929C31.3367 4.00841 31.5819 3.90666 31.8377 3.90635ZM5.19913 4.87119C5.19913 4.68036 5.25572 4.49382 5.36174 4.33515C5.46776 4.17648 5.61845 4.05282 5.79475 3.97979C5.97105 3.90676 6.16505 3.88766 6.35221 3.92488C6.53937 3.96211 6.71129 4.05401 6.84623 4.18894C6.98116 4.32388 7.07305 4.4958 7.11028 4.68296C7.14751 4.87012 7.1284 5.06412 7.05538 5.24042C6.98235 5.41672 6.85868 5.56741 6.70002 5.67343C6.54135 5.77945 6.35481 5.83603 6.16398 5.83603C5.90818 5.83572 5.66295 5.73396 5.48208 5.55309C5.3012 5.37221 5.19945 5.12699 5.19913 4.87119ZM5.75221 34.0938C5.56138 34.0938 5.37484 34.0372 5.21617 33.9312C5.05751 33.8252 4.93384 33.6745 4.86081 33.4982C4.78779 33.3219 4.76868 33.1279 4.80591 32.9407C4.84314 32.7535 4.93503 32.5816 5.06996 32.4467C5.2049 32.3118 5.37682 32.2199 5.56398 32.1826C5.75114 32.1454 5.94514 32.1645 6.12144 32.2375C6.29774 32.3106 6.44843 32.4342 6.55445 32.5929C6.66047 32.7516 6.71706 32.9381 6.71706 33.1289C6.71674 33.3847 6.61499 33.63 6.43411 33.8108C6.25324 33.9917 6.00801 34.0935 5.75221 34.0938ZM25.5814 29.0537L19.0008 33.5437L12.4203 29.0537C11.097 28.1514 10.0142 26.9394 9.26608 25.5232C8.51797 24.1069 8.12721 22.5294 8.12781 20.9277V11.9701C9.23204 11.8415 10.2605 11.3439 11.0466 10.5578C11.8327 9.77167 12.3303 8.74319 12.4589 7.63895H25.5428C25.6714 8.74319 26.169 9.77167 26.9551 10.5578C27.7412 11.3439 28.7697 11.8415 29.8739 11.9701V20.9277C29.8745 22.5294 29.4837 24.1069 28.7356 25.5232C27.9875 26.9394 26.9047 28.1514 25.5814 29.0537ZM33.2143 33.1289C33.2143 33.3198 33.1577 33.5063 33.0517 33.665C32.9457 33.8236 32.795 33.9473 32.6187 34.0203C32.4424 34.0934 32.2484 34.1125 32.0613 34.0752C31.8741 34.038 31.7022 33.9461 31.5672 33.8112C31.4323 33.6763 31.3404 33.5043 31.3032 33.3172C31.266 33.13 31.2851 32.936 31.3581 32.7597C31.4311 32.5834 31.5548 32.4327 31.7134 32.3267C31.8721 32.2207 32.0587 32.1641 32.2495 32.1641C32.5053 32.1644 32.7505 32.2662 32.9314 32.447C33.1123 32.6279 33.214 32.8731 33.2143 33.1289Z" fill="black"/>
<path d="M27.9434 13.8181C27.9434 13.7176 27.9143 13.6192 27.8595 13.5349C27.8048 13.4506 27.7268 13.3839 27.6349 13.3431C26.0901 12.657 24.8549 11.4219 24.1686 9.87706C24.1278 9.7852 24.0611 9.70716 23.9768 9.65241C23.8925 9.59766 23.7941 9.56855 23.6936 9.5686H14.3061C14.2056 9.56855 14.1072 9.59766 14.0229 9.65241C13.9386 9.70716 13.872 9.7852 13.8311 9.87706C13.145 11.4219 11.9099 12.6571 10.3651 13.3434C10.2733 13.3842 10.1952 13.4509 10.1405 13.5352C10.0858 13.6195 10.0566 13.7178 10.0566 13.8184V20.9276C10.056 22.2154 10.3701 23.4838 10.9716 24.6225C11.5731 25.7612 12.4438 26.7356 13.5078 27.461L18.7079 31.0092C18.7944 31.0676 18.8963 31.0987 19.0006 31.0987C19.1049 31.0987 19.2068 31.0676 19.2933 31.0092L24.4922 27.461C25.5559 26.7357 26.4262 25.7616 27.0276 24.6233C27.629 23.4851 27.9431 22.2171 27.9428 20.9297L27.9434 13.8181ZM26.9043 20.9276C26.9045 22.0458 26.6316 23.147 26.1092 24.1356C25.5869 25.1242 24.8309 25.9702 23.9071 26.6L19 29.9497L14.0927 26.6C13.1689 25.9701 12.413 25.1241 11.8907 24.1355C11.3684 23.1469 11.0955 22.0457 11.0957 20.9276V14.1476C12.6302 13.3852 13.8734 12.1421 14.6359 10.6077H23.3641C24.1266 12.1421 25.3698 13.3852 26.9043 14.1476V20.9276Z" fill="black"/>
</g>
<defs>
<clipPath id="clip0_289_488">
<rect width="38" height="38" fill="white"/>
</clipPath>
</defs>
</svg>
