<svg width="41" height="41" viewBox="0 0 41 41" fill="none" xmlns="http://www.w3.org/2000/svg">
<g clip-path="url(#clip0_289_443)">
<path d="M21.5138 19.487C21.2007 19.1739 20.6938 19.1739 20.3807 19.487C20.0684 19.7993 20.0684 20.3062 20.3807 20.6193C20.6938 20.9316 21.2007 20.9316 21.5138 20.6193C21.8261 20.3062 21.8261 19.7993 21.5138 19.487Z" fill="#0073C6"/>
<path d="M31.7061 9.29473C30.1414 7.73008 27.6083 7.73 26.0435 9.29473C24.4829 10.8554 24.4828 13.3954 26.0438 14.9574C27.605 16.5176 30.145 16.5182 31.7061 14.9572C33.2706 13.3926 33.271 10.8595 31.7061 9.29473ZM30.5736 13.8247C29.6373 14.7611 28.1131 14.7611 27.1762 13.8248C26.2397 12.8877 26.2396 11.3635 27.1761 10.4272C28.1148 9.48844 29.6347 9.48828 30.5736 10.4272C31.5124 11.3659 31.5125 12.8858 30.5736 13.8247Z" fill="#0073C6"/>
<path d="M40.7658 0.234556C40.6086 0.0773632 40.3939 -0.00783979 40.1708 0.000568394C39.9898 0.00705471 35.6788 0.180343 30.5542 1.99163C26.4478 3.44152 23.025 5.51738 20.3809 8.16156C19.7884 8.75405 19.2119 9.38235 18.6602 10.0351C16.0458 8.49612 13.9508 8.97867 12.6264 9.68744C9.57697 11.3194 7.68945 15.7506 7.68945 18.9201C7.68969 19.2439 7.88484 19.536 8.18401 19.6599C8.28307 19.701 8.38717 19.7209 8.49031 19.7209C8.69876 19.7209 8.90352 19.6395 9.0567 19.4863C10.6649 17.8781 12.6485 17.9787 13.2965 18.0639L13.5769 18.3444C13.025 19.6576 12.5805 20.9635 12.2544 22.2337C12.1367 22.6933 12.1764 23.1797 12.3514 23.6246C11.5804 23.9799 10.8365 24.5016 10.1888 25.1493C8.12756 27.2107 7.70899 32.2343 7.69218 32.4471C7.67376 32.6807 7.75848 32.9107 7.92416 33.0764C8.07495 33.2271 8.27891 33.3109 8.49031 33.3109C8.51129 33.3109 8.53235 33.3101 8.55341 33.3084C8.76626 33.2917 13.79 32.8731 15.8513 30.8119C16.4988 30.1644 17.0204 29.4207 17.3757 28.6498C17.8467 28.835 18.3315 28.8579 18.7674 28.7462C20.037 28.4202 21.3427 27.9757 22.6562 27.4238L22.9366 27.7042C23.0217 28.3523 23.1223 30.3359 21.5142 31.9439C21.2853 32.1729 21.2167 32.5174 21.3407 32.8165C21.4645 33.1158 21.7565 33.3108 22.0804 33.3108C25.2499 33.3108 29.681 31.4233 31.313 28.3739C32.0218 27.0496 32.5043 24.9546 30.9654 22.3402C31.6178 21.7887 32.2462 21.2122 32.8389 20.6194C35.4831 17.9753 37.5589 14.5525 39.0088 10.4464C40.8201 5.32159 40.9933 1.01051 40.9998 0.829536C41.0078 0.607319 40.923 0.391829 40.7658 0.234556ZM9.47984 17.1977C9.97728 14.7903 11.4221 12.1486 13.3824 11.0995C14.6924 10.3985 16.1243 10.4672 17.6468 11.3005C16.3497 13.0064 15.2221 14.8441 14.2823 16.7848C14.2703 16.7775 14.1262 16.5962 13.8584 16.5359C13.7483 16.511 11.6295 16.0552 9.47984 17.1977ZM14.7189 29.6793C13.6178 30.7804 11.0349 31.3611 9.40232 31.5982C9.63951 29.9656 10.2203 27.3828 11.3213 26.2818C11.9379 25.6652 12.6528 25.1977 13.3715 24.9344L16.0663 27.6292C15.803 28.3478 15.3355 29.0627 14.7189 29.6793ZM18.3696 27.1947C18.1379 27.2541 17.8694 27.1669 17.6699 26.9677C16.6339 25.9317 16.2286 25.5265 16.1015 25.3994C15.8683 25.1662 15.2965 24.5944 14.0334 23.3312C13.8337 23.1311 13.7466 22.8628 13.8057 22.6314C14.0622 21.6325 14.3977 20.6077 14.8056 19.573L21.4276 26.195C20.3928 26.603 19.3681 26.9384 18.3696 27.1947ZM29.9012 27.6182C28.852 29.5784 26.2104 31.0233 23.8031 31.5207C24.5706 30.0763 24.7398 28.2377 24.4594 27.1227C24.3943 26.8638 24.2253 26.7336 24.2159 26.7183C26.1564 25.7784 27.9941 24.6508 29.7001 23.3538C30.5335 24.8764 30.6021 26.3084 29.9012 27.6182ZM31.7066 19.487C30.985 20.2085 30.208 20.9056 29.3972 21.5588C27.4479 23.1283 25.3024 24.4577 23.0135 25.5161L15.4846 17.9873C16.5429 15.6982 17.8723 13.5527 19.4417 11.6037C20.0955 10.7923 20.7925 10.0152 21.5137 9.29402C23.886 6.92163 26.9477 5.03355 30.6163 3.67447L37.3262 10.3844C35.9672 14.0528 34.0792 17.1145 31.7066 19.487ZM37.9023 8.69544L32.3052 3.09831C35.3546 2.15114 38.0075 1.79648 39.3317 1.66899C39.2041 2.9934 38.8494 5.64631 37.9023 8.69544Z" fill="#0073C6"/>
<path d="M19.2488 33.0761C18.9359 32.7634 18.4288 32.7636 18.1162 33.0763L15.8516 35.3417C15.539 35.6545 15.5391 36.1615 15.8518 36.4742C16.1646 36.7868 16.6717 36.7868 16.9843 36.474L19.2489 34.2086C19.5615 33.8958 19.5615 33.3887 19.2488 33.0761Z" fill="#0073C6"/>
<path d="M7.92353 21.7517C7.61091 21.4389 7.10394 21.4389 6.79107 21.7515L4.52566 24.0161C4.21288 24.3288 4.2128 24.8358 4.52542 25.1486C4.83797 25.4612 5.34494 25.4615 5.65789 25.1488L7.92329 22.8842C8.23608 22.5715 8.23616 22.0645 7.92353 21.7517Z" fill="#0073C6"/>
<path d="M13.5865 34.2094C13.2739 33.8967 12.7668 33.8967 12.454 34.2093L7.02952 39.633C6.71674 39.9457 6.71674 40.4528 7.02944 40.7655C7.34198 41.0782 7.84912 41.0783 8.1619 40.7655L13.5864 35.3419C13.8992 35.0292 13.8992 34.5221 13.5865 34.2094Z" fill="#0073C6"/>
<path d="M7.18021 34.2094C6.86759 33.8967 6.36046 33.8967 6.04775 34.2093L0.62327 39.633C0.310486 39.9457 0.310486 40.4528 0.62319 40.7655C0.935735 41.0782 1.44287 41.0783 1.75565 40.7655L7.18013 35.3419C7.49292 35.0292 7.49292 34.5221 7.18021 34.2094Z" fill="#0073C6"/>
<path d="M6.79066 27.4138C6.47804 27.1012 5.9709 27.1012 5.6582 27.4139L0.234518 32.8383C-0.0781861 33.1511 -0.0781861 33.6581 0.234598 33.9709C0.547303 34.2836 1.05436 34.2836 1.36706 33.9708L6.79074 28.5463C7.10345 28.2335 7.10345 27.7266 6.79066 27.4138Z" fill="#0073C6"/>
<path d="M24.9115 16.0891C24.5987 15.7764 24.0918 15.7764 23.7789 16.0891L22.6466 17.2214C22.3339 17.5341 22.3339 18.0412 22.6466 18.354C22.9594 18.6667 23.4664 18.6667 23.7792 18.354L24.9115 17.2217C25.2242 16.909 25.2242 16.4019 24.9115 16.0891Z" fill="#0073C6"/>
</g>
<defs>
<clipPath id="clip0_289_443">
<rect width="41" height="41" fill="white"/>
</clipPath>
</defs>
</svg>
