<svg width="123" height="123" viewBox="0 0 123 123" fill="none" xmlns="http://www.w3.org/2000/svg">
<path fill-rule="evenodd" clip-rule="evenodd" d="M61.3711 0.947266C27.7258 0.947266 0.371094 28.302 0.371094 61.9473C0.371094 95.5926 27.7258 122.947 61.3711 122.947C95.0164 122.947 122.371 95.5926 122.371 61.9473C122.371 28.302 95.0164 0.947266 61.3711 0.947266Z" fill="#77A23B"/>
<path fill-rule="evenodd" clip-rule="evenodd" d="M90.8701 41.3837C92.3475 42.861 92.3475 45.2915 90.8701 46.7688L55.1279 82.511C54.3893 83.2497 53.4123 83.631 52.4354 83.631C51.4584 83.631 50.4814 83.2497 49.7428 82.511L31.8717 64.6399C30.3943 63.1626 30.3943 60.7321 31.8717 59.2548C33.349 57.7774 35.7795 57.7774 37.2568 59.2548L52.4354 74.4333L85.485 41.3837C86.9623 39.8825 89.3928 39.8825 90.8701 41.3837Z" fill="white"/>
</svg>
