<svg width="213" height="190" viewBox="0 0 213 190" fill="none" xmlns="http://www.w3.org/2000/svg">
<g clip-path="url(#clip0_855_2414)">
<path d="M183.072 160.771H29.8555C29.8555 129.074 51.4777 130.852 51.4777 113.072C51.4777 107.308 51.4777 82.11 51.4777 82.11C51.4777 56.9116 66.0118 40.2353 89.5671 35.0239C90.4262 27.6667 97.6575 21.9648 106.464 21.9648C115.27 21.9648 122.502 27.728 123.361 35.0239C146.916 40.2353 161.45 56.8503 161.45 82.11C161.45 82.11 161.45 107.37 161.45 113.072C161.45 130.852 183.072 129.074 183.072 160.771Z" fill="#9E9F9F"/>
<path d="M183.072 160.771H29.8555C29.8555 158.809 29.9271 156.97 30.0703 155.253H163.813C163.813 123.31 142.191 125.088 142.191 107.186C142.191 101.423 142.191 75.979 142.191 75.979C142.191 50.5354 117.919 32.0197 94.364 26.8083C94.0777 24.6012 103.027 24.2946 101.81 22.5166C103.314 22.1488 104.817 21.9648 106.464 21.9648C115.27 21.9648 122.502 27.728 123.361 35.0239C146.916 40.2353 161.45 56.8503 161.45 82.11C161.45 82.11 161.45 107.37 161.45 113.072C161.45 130.852 183.072 129.074 183.072 160.771Z" fill="#9E9F9F"/>
<path d="M138.182 161.078C138.182 161.078 135.103 186.951 105.032 186.951C97.1568 186.951 91.2858 185.173 86.99 182.537C74.747 175.179 74.5322 161.078 74.5322 161.078H138.182Z" fill="#9E9F9F"/>
<path d="M138.181 161.078C138.181 161.078 135.103 186.951 105.032 186.951C97.1565 186.951 91.2856 185.173 86.9898 182.537C87.849 182.291 88.9229 182.169 90.2832 182.107C90.498 182.107 90.6412 182.107 90.856 182.107C103.6 181.372 104.388 165.554 91.7868 163.837C83.3384 162.672 76.7515 161.753 76.6083 161.691L76.1787 161.139H138.181V161.078Z" fill="#9E9F9F"/>
<path d="M164.171 113.134V82.1723C164.171 57.0351 150.21 39.3165 125.796 33.2468C124.006 25.3991 115.987 19.6973 106.536 19.6973C97.0138 19.6973 88.9949 25.3991 87.205 33.2468C62.7906 39.3165 48.8292 57.0351 48.8292 82.1109V113.073C48.8292 119.817 45.3926 123.373 40.9536 127.787C34.7963 134.102 27.207 141.827 27.207 160.772C27.207 162.059 28.4242 163.102 29.9277 163.102H72.4561C73.8164 178.123 88.5653 190.017 106.536 190.017C124.435 190.017 139.184 178.123 140.545 163.102H183.073C184.576 163.102 185.794 162.059 185.794 160.772C185.794 141.827 178.133 134.041 172.047 127.848C167.68 123.373 164.171 119.878 164.171 113.134ZM106.536 185.418C91.5724 185.418 79.2578 175.609 77.8975 163.102H135.103C133.743 175.609 121.428 185.418 106.536 185.418ZM137.967 158.503H75.0336H32.6484C33.2211 142.931 39.5217 136.554 45.1062 130.852C49.8316 126.07 54.2706 121.595 54.2706 113.134V82.1723C54.2706 58.7518 67.4443 42.4433 90.3553 37.3546C91.4292 37.1093 92.2884 36.3123 92.36 35.3313C93.0759 29.0777 99.2332 24.3568 106.536 24.3568C113.911 24.3568 119.996 29.0777 120.712 35.3313C120.855 36.3123 121.643 37.1093 122.717 37.3546C145.628 42.382 158.802 58.7518 158.802 82.1723V113.134C158.802 121.595 163.241 126.07 167.966 130.852C173.551 136.493 179.851 142.931 180.424 158.503H137.967Z" fill="#9E9F9F"/>
<path d="M152.716 18.2864C151.499 17.5507 149.78 17.7959 148.921 18.8382C148.062 19.8805 148.348 21.3519 149.565 22.0876C168.825 33.7365 180.352 52.6814 180.352 72.8524C180.352 78.5542 179.421 84.1948 177.703 89.5901C177.273 90.8163 178.132 92.1038 179.564 92.4716C179.779 92.5329 180.066 92.5329 180.28 92.5329C181.497 92.5329 182.571 91.8585 182.858 90.8163C184.791 84.9918 185.722 78.9221 185.722 72.8524C185.793 51.1486 173.407 30.7937 152.716 18.2864Z" fill="#9E9F9F"/>
<path d="M170.4 0.445437C169.183 -0.290284 167.536 -0.106354 166.605 0.935918C165.746 1.97819 165.961 3.38832 167.178 4.18535C192.523 20.2486 207.63 45.8762 207.63 72.8527C207.63 79.6581 206.699 86.4635 204.838 93.0237C204.48 94.2499 205.411 95.5374 206.842 95.844C207.057 95.9053 207.272 95.9053 207.487 95.9053C208.704 95.9053 209.85 95.1695 210.136 94.1273C212.069 87.1992 213.071 80.0873 213.071 72.914C213 44.4661 197.105 17.367 170.4 0.445437Z" fill="#9E9F9F"/>
<path d="M63.4349 22.0876C64.6521 21.3519 64.9385 19.8805 64.0793 18.8382C63.2201 17.7959 61.5018 17.5507 60.2847 18.2864C39.5932 30.7937 27.207 51.1486 27.207 72.8524C27.207 78.9834 28.1378 84.9918 30.0709 90.8163C30.4289 91.8585 31.5028 92.5329 32.6484 92.5329C32.8632 92.5329 33.1496 92.5329 33.3643 92.4716C34.7963 92.1038 35.6554 90.8776 35.2259 89.5901C33.4359 84.1948 32.5768 78.5542 32.5768 72.8524C32.6484 52.6814 44.1754 33.6752 63.4349 22.0876Z" fill="#9E9F9F"/>
<path d="M5.44134 72.8527C5.44134 45.9375 20.5482 20.2486 45.8218 4.18535C47.039 3.44963 47.2538 1.97819 46.3946 0.935918C45.5355 -0.106354 43.8171 -0.290284 42.6 0.445437C15.8945 17.367 0 44.4661 0 72.8527C0 80.026 1.00235 87.1992 2.93546 94.066C3.22185 95.1082 4.3674 95.844 5.58454 95.844C5.79933 95.844 6.01412 95.844 6.22891 95.7827C7.66084 95.4761 8.5916 94.2499 8.23361 92.9624C6.3721 86.4635 5.44134 79.6581 5.44134 72.8527Z" fill="#9E9F9F"/>
</g>
<defs>
<clipPath id="clip0_855_2414">
<rect width="213" height="190" fill="white"/>
</clipPath>
</defs>
</svg>
