<svg width="513" height="502" viewBox="0 0 513 502" fill="none" xmlns="http://www.w3.org/2000/svg">
<path d="M238.984 258.115C243.952 258.115 248.809 256.623 252.939 253.826C257.07 251.03 260.29 247.055 262.191 242.405C264.092 237.755 264.589 232.638 263.619 227.702C262.649 222.766 260.257 218.232 256.743 214.673C253.23 211.114 248.754 208.691 243.882 207.709C239.009 206.728 233.959 207.233 229.369 209.159C224.779 211.086 220.857 214.348 218.097 218.533C215.338 222.719 213.865 227.639 213.866 232.673C213.873 239.419 216.522 245.887 221.231 250.657C225.94 255.427 232.325 258.109 238.984 258.115ZM238.984 216.131C242.214 216.131 245.37 217.101 248.055 218.919C250.74 220.736 252.833 223.32 254.069 226.342C255.305 229.365 255.628 232.691 254.998 235.9C254.368 239.108 252.813 242.056 250.53 244.369C248.246 246.682 245.337 248.258 242.17 248.896C239.003 249.535 235.72 249.207 232.736 247.955C229.753 246.703 227.202 244.583 225.408 241.863C223.614 239.143 222.657 235.944 222.657 232.673C222.66 228.286 224.381 224.081 227.443 220.98C230.504 217.878 234.655 216.134 238.984 216.131Z" fill="#FB2119"/>
<path d="M292.037 260.341C295.732 260.341 299.343 259.232 302.415 257.152C305.487 255.073 307.881 252.117 309.295 248.66C310.708 245.201 311.078 241.396 310.358 237.726C309.637 234.055 307.858 230.683 305.246 228.036C302.633 225.39 299.305 223.588 295.682 222.857C292.058 222.127 288.302 222.502 284.889 223.934C281.476 225.366 278.559 227.792 276.507 230.904C274.454 234.016 273.358 237.675 273.358 241.418C273.364 246.435 275.334 251.245 278.836 254.792C282.337 258.34 287.085 260.335 292.037 260.341ZM292.037 231.399C293.993 231.399 295.905 231.987 297.531 233.088C299.157 234.188 300.425 235.753 301.173 237.584C301.922 239.414 302.118 241.429 301.736 243.372C301.355 245.316 300.413 247.101 299.03 248.502C297.647 249.903 295.885 250.857 293.967 251.243C292.048 251.63 290.06 251.432 288.253 250.673C286.446 249.915 284.902 248.631 283.815 246.984C282.729 245.336 282.148 243.399 282.148 241.418C282.151 238.761 283.193 236.214 285.048 234.336C286.901 232.458 289.415 231.401 292.037 231.399Z" fill="#FB2119"/>
<path d="M292.037 265.551C287.602 265.565 283.215 266.482 279.138 268.249C275.061 270.017 271.376 272.597 268.304 275.837C261.606 270.197 253.463 266.607 244.825 265.486C236.187 264.365 227.412 265.759 219.529 269.505C211.644 273.251 204.976 279.195 200.304 286.64C195.632 294.086 193.15 302.725 193.148 311.547C193.148 312.728 193.611 313.861 194.435 314.696C195.259 315.531 196.377 316 197.543 316H280.434C281.6 316 282.717 315.531 283.541 314.696C284.366 313.861 284.829 312.728 284.829 311.547C284.822 308.814 284.576 306.088 284.095 303.399H320.605C321.77 303.399 322.888 302.93 323.712 302.095C324.537 301.26 325 300.127 325 298.946C324.99 290.092 321.515 281.603 315.335 275.343C309.155 269.082 300.776 265.56 292.037 265.551ZM202.197 307.095C203.186 298.559 207.039 290.626 213.111 284.623C219.182 278.621 227.104 274.912 235.552 274.119C243.999 273.326 252.459 275.496 259.516 280.265C266.573 285.035 271.799 292.116 274.32 300.322C275.023 302.526 275.51 304.794 275.775 307.095H202.197ZM281.537 294.494C279.817 290.049 277.429 285.9 274.457 282.195C277.511 278.892 281.411 276.512 285.722 275.321C290.033 274.13 294.586 274.174 298.873 275.449C303.161 276.724 307.015 279.179 310.007 282.541C312.998 285.904 315.01 290.041 315.819 294.494H281.537Z" fill="#FB2119"/>
<rect width="513" height="502" fill="#FB2119" fill-opacity="0.08"/>
</svg>
