<svg width="42" height="42" viewBox="0 0 42 42" fill="none" xmlns="http://www.w3.org/2000/svg">
<path d="M17.605 20.239C18.3209 20.239 19.0208 20.0267 19.616 19.629C20.2113 19.2312 20.6752 18.6659 20.9491 18.0044C21.2231 17.3431 21.2947 16.6153 21.155 15.9132C21.0152 15.211 20.6705 14.5661 20.1642 14.0599C19.6579 13.5538 19.0129 13.209 18.3108 13.0695C17.6087 12.9299 16.8809 13.0016 16.2195 13.2757C15.5582 13.5498 14.9929 14.0137 14.5953 14.6091C14.1976 15.2044 13.9855 15.9042 13.9856 16.6201C13.9866 17.5797 14.3683 18.4997 15.0469 19.1781C15.7255 19.8566 16.6455 20.2382 17.605 20.239ZM17.605 14.2673C18.0704 14.2673 18.5253 14.4053 18.9123 14.6638C19.2991 14.9224 19.6007 15.2898 19.7788 15.7197C19.9569 16.1497 20.0035 16.6228 19.9127 17.0792C19.8219 17.5356 19.5978 17.9548 19.2688 18.2838C18.9397 18.6129 18.5205 18.837 18.0641 18.9277C17.6077 19.0185 17.1346 18.972 16.7047 18.7939C16.2748 18.6158 15.9073 18.3142 15.6488 17.9273C15.3903 17.5404 15.2523 17.0855 15.2523 16.6201C15.2528 15.9963 15.5008 15.3981 15.942 14.957C16.3831 14.5159 16.9812 14.2678 17.605 14.2673Z" fill="#FB2119"/>
<path d="M25.2501 20.5556C25.7824 20.5556 26.3028 20.3978 26.7455 20.102C27.1881 19.8063 27.5331 19.3859 27.7369 18.8941C27.9406 18.4022 27.9939 17.861 27.89 17.3389C27.7862 16.8167 27.5298 16.3372 27.1534 15.9607C26.7769 15.5843 26.2973 15.3279 25.7752 15.2241C25.2531 15.1202 24.7119 15.1735 24.22 15.3772C23.7282 15.5809 23.3078 15.926 23.0121 16.3686C22.7163 16.8112 22.5584 17.3316 22.5584 17.864C22.5592 18.5776 22.8431 19.2618 23.3477 19.7663C23.8523 20.271 24.5364 20.5548 25.2501 20.5556ZM25.2501 16.439C25.5319 16.439 25.8074 16.5226 26.0417 16.6792C26.2761 16.8357 26.4587 17.0583 26.5666 17.3187C26.6745 17.579 26.7027 17.8656 26.6477 18.142C26.5927 18.4184 26.457 18.6724 26.2577 18.8716C26.0584 19.0709 25.8045 19.2066 25.5281 19.2616C25.2517 19.3166 24.9651 19.2884 24.7048 19.1805C24.4444 19.0727 24.2218 18.89 24.0652 18.6557C23.9087 18.4214 23.8251 18.1458 23.8251 17.864C23.8254 17.4862 23.9756 17.1239 24.2428 16.8567C24.51 16.5896 24.8722 16.4393 25.2501 16.439Z" fill="#FB2119"/>
<path d="M25.25 21.2967C24.6109 21.2986 23.9788 21.4291 23.3913 21.6804C22.8037 21.9318 22.2728 22.2988 21.83 22.7597C20.8649 21.9575 19.6914 21.4469 18.4467 21.2874C17.202 21.1279 15.9376 21.3262 14.8015 21.859C13.6654 22.3919 12.7045 23.2373 12.0313 24.2962C11.3581 25.3553 11.0004 26.5841 11 27.839C11 28.0069 11.0667 28.1681 11.1855 28.2868C11.3043 28.4056 11.4654 28.4723 11.6333 28.4723H23.578C23.746 28.4723 23.907 28.4056 24.0258 28.2868C24.1446 28.1681 24.2113 28.0069 24.2113 27.839C24.2103 27.4503 24.1748 27.0624 24.1056 26.68H29.3667C29.5346 26.68 29.6957 26.6132 29.8144 26.4945C29.9333 26.3757 30 26.2146 30 26.0467C29.9986 24.7873 29.4977 23.5799 28.6073 22.6894C27.7167 21.7989 26.5094 21.298 25.25 21.2967ZM12.304 27.2056C12.4466 25.9915 13.0017 24.8632 13.8767 24.0094C14.7516 23.1556 15.8932 22.6282 17.1104 22.5154C18.3277 22.4025 19.5468 22.7112 20.5637 23.3896C21.5806 24.068 22.3337 25.0751 22.697 26.2424C22.7983 26.5559 22.8684 26.8784 22.9066 27.2056H12.304ZM23.737 25.4133C23.4892 24.7811 23.145 24.191 22.7167 23.6641C23.1569 23.1942 23.7189 22.8557 24.3401 22.6863C24.9613 22.5169 25.6173 22.5231 26.2351 22.7045C26.8529 22.8858 27.4083 23.235 27.8394 23.7133C28.2705 24.1915 28.5605 24.7801 28.677 25.4133H23.737Z" fill="#FB2119"/>
<rect width="42" height="42" rx="5" fill="#FB2119" fill-opacity="0.24"/>
</svg>
